;TYPE=PLATED
;Layer: PTH_Through_Via
;EasyEDA Pro v3.2.148, 2026-06-19 23:32:46
;Gerber Generator version 0.3
M48
METRIC,LZ,0000.00000
;Hole size 1 = 0.30998 METRIC
T01C0.30998
%
G05
G90
T01
X17.018Y-15.113
X10.541Y-21.209
X4.318Y-18.542
X7.493Y-25.146
X10.541Y-17.272
X4.445Y-19.812
X4.445Y-21.717
X11.684Y-26.86202
X24.257Y-24.257
X25.273Y-23.622
X18.09902Y-10.414
X14.478Y-8.43356
X14.859Y-10.795
X7.62Y-15.367
X7.112Y-16.002
X20.701Y-26.58948
X19.431Y-20.955
X19.05Y-18.034
X22.352Y-19.939
X17.018Y-18.034
X3.556Y-17.399
X20.193Y-24.13
X20.066Y-20.32
M30