;TYPE=PLATED
;Layer: PTH_Through
;EasyEDA Pro v3.2.148, 2026-06-19 23:32:46
;Gerber Generator version 0.3
M48
METRIC,LZ,0000.00000
;Hole size 1 = 0.30998 METRIC
T01C0.30998
;Hole size 2 = 0.60000 METRIC
T02C0.60000
;Hole size 3 = 0.70002 METRIC
T03C0.70002
;Hole size 4 = 0.91440 METRIC
T04C0.91440
%
G05
G90
T01
X17.018Y-15.113
X10.541Y-21.209
X4.318Y-18.542
X7.493Y-25.146
X10.541Y-17.272
X4.445Y-19.812
X4.445Y-21.717
X11.684Y-26.86202
X24.257Y-24.257
X25.273Y-23.622
X18.09902Y-10.414
X14.478Y-8.43356
X14.859Y-10.795
X7.62Y-15.367
X7.112Y-16.002
X20.701Y-26.58948
X19.431Y-20.955
X19.05Y-18.034
X22.352Y-19.939
X17.018Y-18.034
X3.556Y-17.399
X20.193Y-24.13
X20.066Y-20.32
T02
X5.95817Y-15.74132G85X5.05817Y-15.74132
X5.95823Y-24.39134G85X5.05821Y-24.39134
X1.60802Y-15.74122G85X1.00802Y-15.74122
X1.60807Y-24.39119G85X1.00808Y-24.39119
X24.51826Y-5.83142G85X24.51826Y-4.93142
X15.86837Y-5.83148G85X15.86837Y-4.93146
X24.51829Y-1.48116G85X24.51829Y-0.88114
X15.86837Y-1.48118G85X15.86837Y-0.88118
X13.55685Y-7.56771G85X12.92047Y-6.93133
X7.44082Y-13.68407G85X6.80441Y-13.04765
X10.48124Y-4.4916G85X10.05694Y-4.0673
X4.36453Y-10.60818G85X3.94025Y-10.1839
T03
X24.865Y-34.47953G85X24.865Y-36.27948
X11.96503Y-34.47951G85X11.96503Y-36.27951
X34.4829Y-12.09197G85X36.28287Y-12.09197
X34.48305Y-24.99213G85X36.28302Y-24.99213
T04
X24.13Y-9.144
X18.923Y-4.064
X10.668Y-18.542
M30