M48
METRIC,LZ,000.000
;FILE_FORMAT=3:3
;TYPE=PLATED
;Layer: PTH_Through
;EasyEDA v6.5.54, 2026-06-19 11:45:45
;6a2118062d98413c807dd24a82e81eea,7ea0ab90f84049098100ea965be8407d,10
;Gerber Generator version 0.2
;Holesize 1 = 0.310 mm
T01C0.310
;Holesize 2 = 0.600 mm
T02C0.600
;Holesize 3 = 0.701 mm
T03C0.701
;Holesize 4 = 0.915 mm
T04C0.915
%
G05
G90
T01
X017018Y-015113
X010541Y-021209
X004318Y-018542
X007493Y-025146
X010541Y-017272
X004445Y-019812
X004445Y-021717
X011684Y-026862
X024257Y-024257
X025273Y-023622
X018099Y-010414
X014478Y-008434
X014859Y-010795
X007620Y-015367
X007112Y-016002
X020701Y-026589
X019431Y-020955
X019050Y-018034
X022352Y-019939
X017018Y-018034
X003556Y-017399
X020193Y-024130
X020066Y-020320
T02
X005058Y-015741G85X005958Y-015741
X005058Y-024391G85X005958Y-024391
X001008Y-015741G85X001608Y-015741
X001008Y-024391G85X001608Y-024391
X024518Y-004931G85X024518Y-005831
X015868Y-004931G85X015868Y-005831
X024518Y-000881G85X024518Y-001481
X015868Y-000881G85X015868Y-001481
X012921Y-006931G85X013557Y-007567
X006804Y-013048G85X007440Y-013684
X010057Y-004067G85X010481Y-004492
X003940Y-010184G85X004364Y-010608
T03
X024865Y-036279G85X024865Y-034480
X011965Y-036280G85X011965Y-034480
X036283Y-012092G85X034483Y-012092
X036283Y-024992G85X034483Y-024992
T04
X024130Y-009144
X018923Y-004064
X010668Y-018542
M30
