M48
METRIC,LZ,000.000
;FILE_FORMAT=3:3
;TYPE=PLATED
;Layer: PTH_Through_Via
;EasyEDA v6.5.54, 2026-06-19 11:45:45
;6a2118062d98413c807dd24a82e81eea,7ea0ab90f84049098100ea965be8407d,10
;Gerber Generator version 0.2
;Holesize 1 = 0.310 mm
T01C0.310
%
G05
G90
T01
X017018Y-015113
X010541Y-021209
X004318Y-018542
X007493Y-025146
X010541Y-017272
X004445Y-019812
X004445Y-021717
X011684Y-026862
X024257Y-024257
X025273Y-023622
X018099Y-010414
X014478Y-008434
X014859Y-010795
X007620Y-015367
X007112Y-016002
X020701Y-026589
X019431Y-020955
X019050Y-018034
X022352Y-019939
X017018Y-018034
X003556Y-017399
X020193Y-024130
X020066Y-020320
M30
