G04 Layer: DrillDrawingLayer*
G04 EasyEDA Pro v3.2.148, 2026-06-19 23:32:46*
G04 Gerber Generator version 0.3*
G04 Scale: 100 percent, Rotated: No, Reflected: No*
G04 Dimensions in millimeters*
G04 Leading zeros omitted, absolute positions, 4 integers and 5 decimals*
G04 Generated by one-click*
G04 Object Configs: Pad,Via,Track,Text,Image,Dimension,BoardOutline,BoardCutout,CopperFilled,SolidRegion,FPCStiffener,Line,PlaneZone,ComponentProperty,ComponentSilkscreen,TearDrop*
G04 Layer Configs: 1,2,3,4,5,6,7,8,9,10,11,13,14,56*
G04 Copper Areas: 0*
%FSLAX45Y45*%
%MOMM*%
%AMIconRect*4,1,4,0.28,-0.28,-0.28,-0.28,-0.28,0.28,0.28,0.28,0.28,-0.28,0*4,0,4,0.233333,-0.233333,0.233333,0.233333,-0.233333,0.233333,-0.233333,-0.233333,0.233333,-0.233333,0*%
%AMIconTriangle*4,1,3,-0.339593,0.240473,0.339593,0.240473,0,-0.37884,-0.339593,0.240473,0*4,0,3,-0.265673,0.19404,0,-0.27342,0.266233,0.19404,-0.265673,0.19404,0*%
%AMIconStar6*4,1,12,0.12068,0.20888,0.298527,0.172713,0.241313,0,0.298527,-0.17206,0.12068,-0.208227,0,-0.344073,-0.120073,-0.208227,-0.298573,-0.17206,-0.240707,0,-0.298573,0.17206,-0.120073,0.20888,0,0.344073,0.12068,0.20888,0*4,0,12,-0.000467,0.273467,-0.090067,0.171733,-0.237533,0.136733,-0.193667,-0.007467,-0.237533,-0.1372,-0.090067,-0.171733,-0.000467,-0.273933,0.090067,-0.171733,0.237533,-0.1372,0.194133,0.007,0.237533,0.1372,0.090067,0.171267,-0.000467,0.273467,0*%
%AMIconStar4*4,1,8,-0.311733,0.311733,0,0.202533,0.311733,0.311733,0.202533,0,0.311733,-0.311733,0,-0.202533,-0.304407,-0.311733,-0.202533,0,-0.311733,0.311733,0*4,0,8,0.233333,-0.233333,0.1512,0,0.233333,0.233333,0,0.1512,-0.233333,0.233333,-0.1512,0,-0.233333,-0.233333,0,-0.1512,0.233333,-0.233333,0*%
%AMIconPlus*4,1,12,0.1736,-0.28,-0.1736,-0.28,-0.1736,-0.1736,-0.28,-0.1736,-0.28,0.1736,-0.1736,0.1736,-0.1736,0.28,0.1736,0.28,0.1736,0.1736,0.28,0.1736,0.28,-0.1736,0.1736,-0.1736,0.1736,-0.28,0*4,0,12,0.126933,-0.233333,0.126933,-0.126933,0.233333,-0.126933,0.233333,0.126933,0.126933,0.126933,0.126933,0.233333,-0.126933,0.233333,-0.126933,0.126933,-0.233333,0.126933,-0.233333,-0.126933,-0.126933,-0.126933,-0.126933,-0.233333,0.126933,-0.233333,0*%
%AMIconX*4,1,16,0.28,-0.28,0.076347,-0.28,0,-0.203653,-0.076347,-0.28,-0.28,-0.28,-0.28,-0.076347,-0.203653,0,-0.28,0.076347,-0.28,0.28,-0.076347,0.28,0,0.203653,0.076347,0.28,0.28,0.28,0.28,0.076347,0.203653,0,0.28,-0.076347,0.28,-0.28,0*4,0,16,0.23352,-0.23296,0.23352,-0.095853,0.137107,0.000093,0.23352,0.095853,0.23352,0.2331,0.095853,0.2331,0,0.137107,-0.095853,0.2331,-0.23352,0.2331,-0.23352,0.095853,-0.137107,0.000093,-0.23352,-0.095853,-0.23352,-0.23296,-0.095853,-0.23296,0,-0.137107,0.095853,-0.23296,0.23352,-0.23296,0*%
%AMIconDiamond*4,1,4,0,-0.364,-0.364,0,0,0.364,0.364,0,0,-0.364,0*4,0,4,0,-0.284807,0.284807,0,0,0.28504,-0.284807,0,0,-0.284807,0*%
%ADD10IconRect*%
%ADD11C,0.616X0.522667*%
%ADD12IconTriangle*%
%ADD13IconStar6*%
%ADD14IconStar4*%
%ADD15IconPlus*%
%ADD16IconX*%
%ADD17IconDiamond*%
%ADD18C,0.2032*%
%ADD19C,0.254*%
G75*


G04 Drill Drawing Start*
G54D10*
G01X3347695Y-3337306D03*
G54D11*
G01X1066800Y-1854200D03*
G01X1892300Y-406400D03*
G01X2413000Y-914400D03*
G54D12*
G01X508000Y-3175000D03*
G01X3009900Y-2997200D03*
G01X3187700Y-508000D03*
G54D13*
G01X1196503Y-3537951D03*
G01X2486500Y-3537951D03*
G01X3538289Y-1209197D03*
G01X3538304Y-2499213D03*
G54D14*
G01X550817Y-1574132D03*
G01X550822Y-2439134D03*
G01X712261Y-1336586D03*
G01X1323866Y-724952D03*
G01X1586837Y-538147D03*
G01X2451826Y-538142D03*
G54D15*
G01X130802Y-1574122D03*
G01X130807Y-2439119D03*
G01X415239Y-1039604D03*
G01X1026909Y-427945D03*
G01X1586837Y-118118D03*
G01X2451829Y-118115D03*
G54D16*
G01X498805Y-2295627D03*
G01X498805Y-1717624D03*
G01X776910Y-1198347D03*
G01X1185621Y-789635D03*
G01X1730299Y-486105D03*
G01X2308276Y-486105D03*
G54D17*
G01X355600Y-1739900D03*
G01X431800Y-1854200D03*
G01X444500Y-2171700D03*
G01X444500Y-1981200D03*
G01X711200Y-1600200D03*
G01X749300Y-2514600D03*
G01X762000Y-1536700D03*
G01X1054100Y-2120900D03*
G01X1054100Y-1727200D03*
G01X1168400Y-2686202D03*
G01X1447800Y-843356D03*
G01X1485900Y-1079500D03*
G01X1701800Y-1803400D03*
G01X1701800Y-1511300D03*
G01X1809902Y-1041400D03*
G01X1905000Y-1803400D03*
G01X1943100Y-2095500D03*
G01X2006600Y-2032000D03*
G01X2019300Y-2413000D03*
G01X2070100Y-2658948D03*
G01X2235200Y-1993900D03*
G01X2425700Y-2425700D03*
G01X2527300Y-2362200D03*
G04 Drill Drawing End*

G04 Text Start*
G54D18*
G01X6000438Y-221706D02*
G01X6000438Y-341848D01*
G01X6000438Y-221706D02*
G01X6046158Y-341848D01*
G01X6091878Y-221706D02*
G01X6046158Y-341848D01*
G01X6091878Y-221706D02*
G01X6091878Y-341848D01*
G01X6208210Y-261838D02*
G01X6208210Y-341848D01*
G01X6208210Y-278856D02*
G01X6196780Y-267426D01*
G01X6185350Y-261838D01*
G01X6168332Y-261838D01*
G01X6156902Y-267426D01*
G01X6145472Y-278856D01*
G01X6139630Y-296128D01*
G01X6139630Y-307558D01*
G01X6145472Y-324576D01*
G01X6156902Y-336006D01*
G01X6168332Y-341848D01*
G01X6185350Y-341848D01*
G01X6196780Y-336006D01*
G01X6208210Y-324576D01*
G01X6255962Y-261838D02*
G01X6255962Y-341848D01*
G01X6255962Y-296128D02*
G01X6261804Y-278856D01*
G01X6273234Y-267426D01*
G01X6284664Y-261838D01*
G01X6301682Y-261838D01*
G01X6349434Y-221706D02*
G01X6349434Y-341848D01*
G01X6406584Y-261838D02*
G01X6349434Y-318988D01*
G01X6372294Y-296128D02*
G01X6412426Y-341848D01*
G01X7537719Y-250408D02*
G01X7531877Y-238978D01*
G01X7520447Y-227548D01*
G01X7509017Y-221706D01*
G01X7486157Y-221706D01*
G01X7474727Y-227548D01*
G01X7463297Y-238978D01*
G01X7457709Y-250408D01*
G01X7451867Y-267426D01*
G01X7451867Y-296128D01*
G01X7457709Y-313146D01*
G01X7463297Y-324576D01*
G01X7474727Y-336006D01*
G01X7486157Y-341848D01*
G01X7509017Y-341848D01*
G01X7520447Y-336006D01*
G01X7531877Y-324576D01*
G01X7537719Y-313146D01*
G01X7614173Y-261838D02*
G01X7602743Y-267426D01*
G01X7591313Y-278856D01*
G01X7585471Y-296128D01*
G01X7585471Y-307558D01*
G01X7591313Y-324576D01*
G01X7602743Y-336006D01*
G01X7614173Y-341848D01*
G01X7631191Y-341848D01*
G01X7642621Y-336006D01*
G01X7654051Y-324576D01*
G01X7659893Y-307558D01*
G01X7659893Y-296128D01*
G01X7654051Y-278856D01*
G01X7642621Y-267426D01*
G01X7631191Y-261838D01*
G01X7614173Y-261838D01*
G01X7707645Y-261838D02*
G01X7707645Y-318988D01*
G01X7713487Y-336006D01*
G01X7724917Y-341848D01*
G01X7741935Y-341848D01*
G01X7753365Y-336006D01*
G01X7770637Y-318988D01*
G01X7770637Y-261838D02*
G01X7770637Y-341848D01*
G01X7818389Y-261838D02*
G01X7818389Y-341848D01*
G01X7818389Y-284698D02*
G01X7835661Y-267426D01*
G01X7847091Y-261838D01*
G01X7864109Y-261838D01*
G01X7875539Y-267426D01*
G01X7881381Y-284698D01*
G01X7881381Y-341848D01*
G01X7946405Y-221706D02*
G01X7946405Y-318988D01*
G01X7951993Y-336006D01*
G01X7963423Y-341848D01*
G01X7974853Y-341848D01*
G01X7929133Y-261838D02*
G01X7969265Y-261838D01*
G01X8946040Y-238978D02*
G01X8934610Y-227548D01*
G01X8917592Y-221706D01*
G01X8894732Y-221706D01*
G01X8877460Y-227548D01*
G01X8866030Y-238978D01*
G01X8866030Y-250408D01*
G01X8871872Y-261838D01*
G01X8877460Y-267426D01*
G01X8888890Y-273268D01*
G01X8923180Y-284698D01*
G01X8934610Y-290286D01*
G01X8940452Y-296128D01*
G01X8946040Y-307558D01*
G01X8946040Y-324576D01*
G01X8934610Y-336006D01*
G01X8917592Y-341848D01*
G01X8894732Y-341848D01*
G01X8877460Y-336006D01*
G01X8866030Y-324576D01*
G01X8993792Y-221706D02*
G01X8999634Y-227548D01*
G01X9005222Y-221706D01*
G01X8999634Y-216118D01*
G01X8993792Y-221706D01*
G01X8999634Y-261838D02*
G01X8999634Y-341848D01*
G01X9115966Y-261838D02*
G01X9052974Y-341848D01*
G01X9052974Y-261838D02*
G01X9115966Y-261838D01*
G01X9052974Y-341848D02*
G01X9115966Y-341848D01*
G01X9163718Y-296128D02*
G01X9232298Y-296128D01*
G01X9232298Y-284698D01*
G01X9226710Y-273268D01*
G01X9220868Y-267426D01*
G01X9209438Y-261838D01*
G01X9192420Y-261838D01*
G01X9180990Y-267426D01*
G01X9169560Y-278856D01*
G01X9163718Y-296128D01*
G01X9163718Y-307558D01*
G01X9169560Y-324576D01*
G01X9180990Y-336006D01*
G01X9192420Y-341848D01*
G01X9209438Y-341848D01*
G01X9220868Y-336006D01*
G01X9232298Y-324576D01*
G01X12754153Y-221706D02*
G01X12754153Y-341848D01*
G01X12754153Y-221706D02*
G01X12805715Y-221706D01*
G01X12822733Y-227548D01*
G01X12828575Y-233136D01*
G01X12834163Y-244566D01*
G01X12834163Y-261838D01*
G01X12828575Y-273268D01*
G01X12822733Y-278856D01*
G01X12805715Y-284698D01*
G01X12754153Y-284698D01*
G01X12881915Y-221706D02*
G01X12881915Y-341848D01*
G01X12998247Y-261838D02*
G01X12998247Y-341848D01*
G01X12998247Y-278856D02*
G01X12986817Y-267426D01*
G01X12975387Y-261838D01*
G01X12958369Y-261838D01*
G01X12946939Y-267426D01*
G01X12935509Y-278856D01*
G01X12929667Y-296128D01*
G01X12929667Y-307558D01*
G01X12935509Y-324576D01*
G01X12946939Y-336006D01*
G01X12958369Y-341848D01*
G01X12975387Y-341848D01*
G01X12986817Y-336006D01*
G01X12998247Y-324576D01*
G01X13063271Y-221706D02*
G01X13063271Y-318988D01*
G01X13068859Y-336006D01*
G01X13080289Y-341848D01*
G01X13091719Y-341848D01*
G01X13045999Y-261838D02*
G01X13086131Y-261838D01*
G01X13139471Y-296128D02*
G01X13208051Y-296128D01*
G01X13208051Y-284698D01*
G01X13202463Y-273268D01*
G01X13196621Y-267426D01*
G01X13185191Y-261838D01*
G01X13168173Y-261838D01*
G01X13156743Y-267426D01*
G01X13145313Y-278856D01*
G01X13139471Y-296128D01*
G01X13139471Y-307558D01*
G01X13145313Y-324576D01*
G01X13156743Y-336006D01*
G01X13168173Y-341848D01*
G01X13185191Y-341848D01*
G01X13196621Y-336006D01*
G01X13208051Y-324576D01*
G01X13324383Y-221706D02*
G01X13324383Y-341848D01*
G01X13324383Y-278856D02*
G01X13312953Y-267426D01*
G01X13301523Y-261838D01*
G01X13284505Y-261838D01*
G01X13273075Y-267426D01*
G01X13261645Y-278856D01*
G01X13255803Y-296128D01*
G01X13255803Y-307558D01*
G01X13261645Y-324576D01*
G01X13273075Y-336006D01*
G01X13284505Y-341848D01*
G01X13301523Y-341848D01*
G01X13312953Y-336006D01*
G01X13324383Y-324576D01*
G01X14295570Y-238978D02*
G01X14284140Y-227548D01*
G01X14267122Y-221706D01*
G01X14244262Y-221706D01*
G01X14226990Y-227548D01*
G01X14215560Y-238978D01*
G01X14215560Y-250408D01*
G01X14221402Y-261838D01*
G01X14226990Y-267426D01*
G01X14238420Y-273268D01*
G01X14272710Y-284698D01*
G01X14284140Y-290286D01*
G01X14289982Y-296128D01*
G01X14295570Y-307558D01*
G01X14295570Y-324576D01*
G01X14284140Y-336006D01*
G01X14267122Y-341848D01*
G01X14244262Y-341848D01*
G01X14226990Y-336006D01*
G01X14215560Y-324576D01*
G01X14343322Y-221706D02*
G01X14343322Y-341848D01*
G01X14343322Y-284698D02*
G01X14360594Y-267426D01*
G01X14372024Y-261838D01*
G01X14389042Y-261838D01*
G01X14400472Y-267426D01*
G01X14406314Y-284698D01*
G01X14406314Y-341848D01*
G01X14522646Y-261838D02*
G01X14522646Y-341848D01*
G01X14522646Y-278856D02*
G01X14511216Y-267426D01*
G01X14499786Y-261838D01*
G01X14482768Y-261838D01*
G01X14471338Y-267426D01*
G01X14459908Y-278856D01*
G01X14454066Y-296128D01*
G01X14454066Y-307558D01*
G01X14459908Y-324576D01*
G01X14471338Y-336006D01*
G01X14482768Y-341848D01*
G01X14499786Y-341848D01*
G01X14511216Y-336006D01*
G01X14522646Y-324576D01*
G01X14570398Y-261838D02*
G01X14570398Y-381726D01*
G01X14570398Y-278856D02*
G01X14581828Y-267426D01*
G01X14593258Y-261838D01*
G01X14610530Y-261838D01*
G01X14621960Y-267426D01*
G01X14633390Y-278856D01*
G01X14638978Y-296128D01*
G01X14638978Y-307558D01*
G01X14633390Y-324576D01*
G01X14621960Y-336006D01*
G01X14610530Y-341848D01*
G01X14593258Y-341848D01*
G01X14581828Y-336006D01*
G01X14570398Y-324576D01*
G01X14686730Y-296128D02*
G01X14755310Y-296128D01*
G01X14755310Y-284698D01*
G01X14749722Y-273268D01*
G01X14743880Y-267426D01*
G01X14732450Y-261838D01*
G01X14715432Y-261838D01*
G01X14704002Y-267426D01*
G01X14692572Y-278856D01*
G01X14686730Y-296128D01*
G01X14686730Y-307558D01*
G01X14692572Y-324576D01*
G01X14704002Y-336006D01*
G01X14715432Y-341848D01*
G01X14732450Y-341848D01*
G01X14743880Y-336006D01*
G01X14755310Y-324576D01*
G01X15646741Y-221706D02*
G01X15692461Y-341848D01*
G01X15738181Y-221706D02*
G01X15692461Y-341848D01*
G01X15785933Y-221706D02*
G01X15791775Y-227548D01*
G01X15797363Y-221706D01*
G01X15791775Y-216118D01*
G01X15785933Y-221706D01*
G01X15791775Y-261838D02*
G01X15791775Y-341848D01*
G01X15913695Y-261838D02*
G01X15913695Y-341848D01*
G01X15913695Y-278856D02*
G01X15902265Y-267426D01*
G01X15890835Y-261838D01*
G01X15873817Y-261838D01*
G01X15862387Y-267426D01*
G01X15850957Y-278856D01*
G01X15845115Y-296128D01*
G01X15845115Y-307558D01*
G01X15850957Y-324576D01*
G01X15862387Y-336006D01*
G01X15873817Y-341848D01*
G01X15890835Y-341848D01*
G01X15902265Y-336006D01*
G01X15913695Y-324576D01*
G01X16064317Y-198846D02*
G01X15961447Y-381726D01*
G01X16112069Y-221706D02*
G01X16112069Y-341848D01*
G01X16112069Y-221706D02*
G01X16163631Y-221706D01*
G01X16180649Y-227548D01*
G01X16186491Y-233136D01*
G01X16192079Y-244566D01*
G01X16192079Y-261838D01*
G01X16186491Y-273268D01*
G01X16180649Y-278856D01*
G01X16163631Y-284698D01*
G01X16112069Y-284698D01*
G01X16308411Y-261838D02*
G01X16308411Y-341848D01*
G01X16308411Y-278856D02*
G01X16296981Y-267426D01*
G01X16285551Y-261838D01*
G01X16268533Y-261838D01*
G01X16257103Y-267426D01*
G01X16245673Y-278856D01*
G01X16239831Y-296128D01*
G01X16239831Y-307558D01*
G01X16245673Y-324576D01*
G01X16257103Y-336006D01*
G01X16268533Y-341848D01*
G01X16285551Y-341848D01*
G01X16296981Y-336006D01*
G01X16308411Y-324576D01*
G01X16424743Y-221706D02*
G01X16424743Y-341848D01*
G01X16424743Y-278856D02*
G01X16413313Y-267426D01*
G01X16401883Y-261838D01*
G01X16384865Y-261838D01*
G01X16373435Y-267426D01*
G01X16362005Y-278856D01*
G01X16356163Y-296128D01*
G01X16356163Y-307558D01*
G01X16362005Y-324576D01*
G01X16373435Y-336006D01*
G01X16384865Y-341848D01*
G01X16401883Y-341848D01*
G01X16413313Y-336006D01*
G01X16424743Y-324576D01*
G01X17315921Y-221706D02*
G01X17315921Y-341848D01*
G01X17315921Y-221706D02*
G01X17367483Y-221706D01*
G01X17384501Y-227548D01*
G01X17390343Y-233136D01*
G01X17395931Y-244566D01*
G01X17395931Y-261838D01*
G01X17390343Y-273268D01*
G01X17384501Y-278856D01*
G01X17367483Y-284698D01*
G01X17315921Y-284698D01*
G01X17512263Y-261838D02*
G01X17512263Y-341848D01*
G01X17512263Y-278856D02*
G01X17500833Y-267426D01*
G01X17489403Y-261838D01*
G01X17472385Y-261838D01*
G01X17460955Y-267426D01*
G01X17449525Y-278856D01*
G01X17443683Y-296128D01*
G01X17443683Y-307558D01*
G01X17449525Y-324576D01*
G01X17460955Y-336006D01*
G01X17472385Y-341848D01*
G01X17489403Y-341848D01*
G01X17500833Y-336006D01*
G01X17512263Y-324576D01*
G01X17628595Y-221706D02*
G01X17628595Y-341848D01*
G01X17628595Y-278856D02*
G01X17617165Y-267426D01*
G01X17605735Y-261838D01*
G01X17588717Y-261838D01*
G01X17577287Y-267426D01*
G01X17565857Y-278856D01*
G01X17560015Y-296128D01*
G01X17560015Y-307558D01*
G01X17565857Y-324576D01*
G01X17577287Y-336006D01*
G01X17588717Y-341848D01*
G01X17605735Y-341848D01*
G01X17617165Y-336006D01*
G01X17628595Y-324576D01*
G01X17884373Y-238978D02*
G01X17872943Y-227548D01*
G01X17855925Y-221706D01*
G01X17833065Y-221706D01*
G01X17815793Y-227548D01*
G01X17804363Y-238978D01*
G01X17804363Y-250408D01*
G01X17810205Y-261838D01*
G01X17815793Y-267426D01*
G01X17827223Y-273268D01*
G01X17861513Y-284698D01*
G01X17872943Y-290286D01*
G01X17878785Y-296128D01*
G01X17884373Y-307558D01*
G01X17884373Y-324576D01*
G01X17872943Y-336006D01*
G01X17855925Y-341848D01*
G01X17833065Y-341848D01*
G01X17815793Y-336006D01*
G01X17804363Y-324576D01*
G01X17932125Y-221706D02*
G01X17932125Y-341848D01*
G01X17932125Y-284698D02*
G01X17949397Y-267426D01*
G01X17960827Y-261838D01*
G01X17977845Y-261838D01*
G01X17989275Y-267426D01*
G01X17995117Y-284698D01*
G01X17995117Y-341848D01*
G01X18111449Y-261838D02*
G01X18111449Y-341848D01*
G01X18111449Y-278856D02*
G01X18100019Y-267426D01*
G01X18088589Y-261838D01*
G01X18071571Y-261838D01*
G01X18060141Y-267426D01*
G01X18048711Y-278856D01*
G01X18042869Y-296128D01*
G01X18042869Y-307558D01*
G01X18048711Y-324576D01*
G01X18060141Y-336006D01*
G01X18071571Y-341848D01*
G01X18088589Y-341848D01*
G01X18100019Y-336006D01*
G01X18111449Y-324576D01*
G01X18159201Y-261838D02*
G01X18159201Y-381726D01*
G01X18159201Y-278856D02*
G01X18170631Y-267426D01*
G01X18182061Y-261838D01*
G01X18199333Y-261838D01*
G01X18210763Y-267426D01*
G01X18222193Y-278856D01*
G01X18227781Y-296128D01*
G01X18227781Y-307558D01*
G01X18222193Y-324576D01*
G01X18210763Y-336006D01*
G01X18199333Y-341848D01*
G01X18182061Y-341848D01*
G01X18170631Y-336006D01*
G01X18159201Y-324576D01*
G01X18275533Y-296128D02*
G01X18344113Y-296128D01*
G01X18344113Y-284698D01*
G01X18338525Y-273268D01*
G01X18332683Y-267426D01*
G01X18321253Y-261838D01*
G01X18304235Y-261838D01*
G01X18292805Y-267426D01*
G01X18281375Y-278856D01*
G01X18275533Y-296128D01*
G01X18275533Y-307558D01*
G01X18281375Y-324576D01*
G01X18292805Y-336006D01*
G01X18304235Y-341848D01*
G01X18321253Y-341848D01*
G01X18332683Y-336006D01*
G01X18344113Y-324576D01*
G01X19235290Y-221706D02*
G01X19235290Y-341848D01*
G01X19235290Y-341848D02*
G01X19303870Y-341848D01*
G01X19420202Y-261838D02*
G01X19420202Y-341848D01*
G01X19420202Y-278856D02*
G01X19408772Y-267426D01*
G01X19397342Y-261838D01*
G01X19380324Y-261838D01*
G01X19368894Y-267426D01*
G01X19357464Y-278856D01*
G01X19351622Y-296128D01*
G01X19351622Y-307558D01*
G01X19357464Y-324576D01*
G01X19368894Y-336006D01*
G01X19380324Y-341848D01*
G01X19397342Y-341848D01*
G01X19408772Y-336006D01*
G01X19420202Y-324576D01*
G01X19473796Y-261838D02*
G01X19508086Y-341848D01*
G01X19542376Y-261838D02*
G01X19508086Y-341848D01*
G01X19496656Y-364708D01*
G01X19485226Y-376138D01*
G01X19473796Y-381726D01*
G01X19467954Y-381726D01*
G01X19590128Y-296128D02*
G01X19658708Y-296128D01*
G01X19658708Y-284698D01*
G01X19653120Y-273268D01*
G01X19647278Y-267426D01*
G01X19635848Y-261838D01*
G01X19618830Y-261838D01*
G01X19607400Y-267426D01*
G01X19595970Y-278856D01*
G01X19590128Y-296128D01*
G01X19590128Y-307558D01*
G01X19595970Y-324576D01*
G01X19607400Y-336006D01*
G01X19618830Y-341848D01*
G01X19635848Y-341848D01*
G01X19647278Y-336006D01*
G01X19658708Y-324576D01*
G01X19706460Y-261838D02*
G01X19706460Y-341848D01*
G01X19706460Y-296128D02*
G01X19712302Y-278856D01*
G01X19723732Y-267426D01*
G01X19735162Y-261838D01*
G01X19752180Y-261838D01*
G01X19927948Y-221706D02*
G01X19927948Y-341848D01*
G01X19927948Y-221706D02*
G01X19979510Y-221706D01*
G01X19996528Y-227548D01*
G01X20002370Y-233136D01*
G01X20007958Y-244566D01*
G01X20007958Y-261838D01*
G01X20002370Y-273268D01*
G01X19996528Y-278856D01*
G01X19979510Y-284698D01*
G01X19927948Y-284698D01*
G01X20124290Y-261838D02*
G01X20124290Y-341848D01*
G01X20124290Y-278856D02*
G01X20112860Y-267426D01*
G01X20101430Y-261838D01*
G01X20084412Y-261838D01*
G01X20072982Y-267426D01*
G01X20061552Y-278856D01*
G01X20055710Y-296128D01*
G01X20055710Y-307558D01*
G01X20061552Y-324576D01*
G01X20072982Y-336006D01*
G01X20084412Y-341848D01*
G01X20101430Y-341848D01*
G01X20112860Y-336006D01*
G01X20124290Y-324576D01*
G01X20172042Y-221706D02*
G01X20177884Y-227548D01*
G01X20183472Y-221706D01*
G01X20177884Y-216118D01*
G01X20172042Y-221706D01*
G01X20177884Y-261838D02*
G01X20177884Y-341848D01*
G01X20231224Y-261838D02*
G01X20231224Y-341848D01*
G01X20231224Y-296128D02*
G01X20237066Y-278856D01*
G01X20248496Y-267426D01*
G01X20259926Y-261838D01*
G01X20276944Y-261838D01*
G01X7451867Y-825137D02*
G01X7463297Y-819549D01*
G01X7480569Y-802277D01*
G01X7480569Y-922419D01*
G01X8866030Y-825137D02*
G01X8877460Y-819549D01*
G01X8894732Y-802277D01*
G01X8894732Y-922419D01*
G01X8942484Y-825137D02*
G01X8953914Y-819549D01*
G01X8971186Y-802277D01*
G01X8971186Y-922419D01*
G01X9047640Y-802277D02*
G01X9030368Y-808119D01*
G01X9024780Y-819549D01*
G01X9024780Y-830979D01*
G01X9030368Y-842409D01*
G01X9041798Y-847997D01*
G01X9064658Y-853839D01*
G01X9081930Y-859427D01*
G01X9093360Y-870857D01*
G01X9098948Y-882287D01*
G01X9098948Y-899559D01*
G01X9093360Y-910989D01*
G01X9087518Y-916577D01*
G01X9070500Y-922419D01*
G01X9047640Y-922419D01*
G01X9030368Y-916577D01*
G01X9024780Y-910989D01*
G01X9018938Y-899559D01*
G01X9018938Y-882287D01*
G01X9024780Y-870857D01*
G01X9036210Y-859427D01*
G01X9053228Y-853839D01*
G01X9076088Y-847997D01*
G01X9087518Y-842409D01*
G01X9093360Y-830979D01*
G01X9093360Y-819549D01*
G01X9087518Y-808119D01*
G01X9070500Y-802277D01*
G01X9047640Y-802277D01*
G01X9152542Y-893717D02*
G01X9146700Y-899559D01*
G01X9152542Y-905147D01*
G01X9158130Y-899559D01*
G01X9152542Y-893717D01*
G01X9205882Y-825137D02*
G01X9217312Y-819549D01*
G01X9234584Y-802277D01*
G01X9234584Y-922419D01*
G01X9282336Y-842409D02*
G01X9282336Y-922419D01*
G01X9282336Y-865269D02*
G01X9299608Y-847997D01*
G01X9311038Y-842409D01*
G01X9328056Y-842409D01*
G01X9339486Y-847997D01*
G01X9345328Y-865269D01*
G01X9345328Y-922419D01*
G01X9345328Y-865269D02*
G01X9362346Y-847997D01*
G01X9373776Y-842409D01*
G01X9391048Y-842409D01*
G01X9402478Y-847997D01*
G01X9408066Y-865269D01*
G01X9408066Y-922419D01*
G01X9455818Y-802277D02*
G01X9461660Y-808119D01*
G01X9467248Y-802277D01*
G01X9461660Y-796689D01*
G01X9455818Y-802277D01*
G01X9461660Y-842409D02*
G01X9461660Y-922419D01*
G01X9515000Y-802277D02*
G01X9515000Y-922419D01*
G01X9602884Y-779417D02*
G01X9591454Y-790847D01*
G01X9580024Y-808119D01*
G01X9568594Y-830979D01*
G01X9562752Y-859427D01*
G01X9562752Y-882287D01*
G01X9568594Y-910989D01*
G01X9580024Y-933849D01*
G01X9591454Y-950867D01*
G01X9602884Y-962297D01*
G01X9662066Y-802277D02*
G01X9725058Y-802277D01*
G01X9690768Y-847997D01*
G01X9707786Y-847997D01*
G01X9719216Y-853839D01*
G01X9725058Y-859427D01*
G01X9730646Y-876699D01*
G01X9730646Y-888129D01*
G01X9725058Y-905147D01*
G01X9713628Y-916577D01*
G01X9696356Y-922419D01*
G01X9679338Y-922419D01*
G01X9662066Y-916577D01*
G01X9656478Y-910989D01*
G01X9650636Y-899559D01*
G01X9784240Y-893717D02*
G01X9778398Y-899559D01*
G01X9784240Y-905147D01*
G01X9789828Y-899559D01*
G01X9784240Y-893717D01*
G01X9871870Y-802277D02*
G01X9854852Y-808119D01*
G01X9843422Y-825137D01*
G01X9837580Y-853839D01*
G01X9837580Y-870857D01*
G01X9843422Y-899559D01*
G01X9854852Y-916577D01*
G01X9871870Y-922419D01*
G01X9883300Y-922419D01*
G01X9900572Y-916577D01*
G01X9912002Y-899559D01*
G01X9917590Y-870857D01*
G01X9917590Y-853839D01*
G01X9912002Y-825137D01*
G01X9900572Y-808119D01*
G01X9883300Y-802277D01*
G01X9871870Y-802277D01*
G01X9999632Y-802277D02*
G01X9982614Y-808119D01*
G01X9971184Y-825137D01*
G01X9965342Y-853839D01*
G01X9965342Y-870857D01*
G01X9971184Y-899559D01*
G01X9982614Y-916577D01*
G01X9999632Y-922419D01*
G01X10011062Y-922419D01*
G01X10028334Y-916577D01*
G01X10039764Y-899559D01*
G01X10045352Y-870857D01*
G01X10045352Y-853839D01*
G01X10039764Y-825137D01*
G01X10028334Y-808119D01*
G01X10011062Y-802277D01*
G01X9999632Y-802277D01*
G01X10127394Y-802277D02*
G01X10110376Y-808119D01*
G01X10098946Y-825137D01*
G01X10093104Y-853839D01*
G01X10093104Y-870857D01*
G01X10098946Y-899559D01*
G01X10110376Y-916577D01*
G01X10127394Y-922419D01*
G01X10138824Y-922419D01*
G01X10156096Y-916577D01*
G01X10167526Y-899559D01*
G01X10173114Y-870857D01*
G01X10173114Y-853839D01*
G01X10167526Y-825137D01*
G01X10156096Y-808119D01*
G01X10138824Y-802277D01*
G01X10127394Y-802277D01*
G01X10220866Y-842409D02*
G01X10220866Y-922419D01*
G01X10220866Y-865269D02*
G01X10238138Y-847997D01*
G01X10249568Y-842409D01*
G01X10266586Y-842409D01*
G01X10278016Y-847997D01*
G01X10283858Y-865269D01*
G01X10283858Y-922419D01*
G01X10283858Y-865269D02*
G01X10300876Y-847997D01*
G01X10312306Y-842409D01*
G01X10329578Y-842409D01*
G01X10341008Y-847997D01*
G01X10346596Y-865269D01*
G01X10346596Y-922419D01*
G01X10394348Y-842409D02*
G01X10394348Y-922419D01*
G01X10394348Y-865269D02*
G01X10411620Y-847997D01*
G01X10423050Y-842409D01*
G01X10440068Y-842409D01*
G01X10451498Y-847997D01*
G01X10457340Y-865269D01*
G01X10457340Y-922419D01*
G01X10457340Y-865269D02*
G01X10474358Y-847997D01*
G01X10485788Y-842409D01*
G01X10503060Y-842409D01*
G01X10514490Y-847997D01*
G01X10520078Y-865269D01*
G01X10520078Y-922419D01*
G01X10567830Y-779417D02*
G01X10579260Y-790847D01*
G01X10590690Y-808119D01*
G01X10602120Y-830979D01*
G01X10607962Y-859427D01*
G01X10607962Y-882287D01*
G01X10602120Y-910989D01*
G01X10590690Y-933849D01*
G01X10579260Y-950867D01*
G01X10567830Y-962297D01*
G01X12754153Y-802277D02*
G01X12754153Y-922419D01*
G01X12754153Y-802277D02*
G01X12834163Y-922419D01*
G01X12834163Y-802277D02*
G01X12834163Y-922419D01*
G01X12881915Y-802277D02*
G01X12881915Y-922419D01*
G01X12881915Y-802277D02*
G01X12933477Y-802277D01*
G01X12950495Y-808119D01*
G01X12956337Y-813707D01*
G01X12961925Y-825137D01*
G01X12961925Y-842409D01*
G01X12956337Y-853839D01*
G01X12950495Y-859427D01*
G01X12933477Y-865269D01*
G01X12881915Y-865269D01*
G01X13049809Y-802277D02*
G01X13049809Y-922419D01*
G01X13009677Y-802277D02*
G01X13089687Y-802277D01*
G01X13137439Y-802277D02*
G01X13137439Y-922419D01*
G01X13217449Y-802277D02*
G01X13217449Y-922419D01*
G01X13137439Y-859427D02*
G01X13217449Y-859427D01*
G01X14215560Y-802277D02*
G01X14215560Y-922419D01*
G01X14215560Y-802277D02*
G01X14267122Y-802277D01*
G01X14284140Y-808119D01*
G01X14289982Y-813707D01*
G01X14295570Y-825137D01*
G01X14295570Y-836567D01*
G01X14289982Y-847997D01*
G01X14284140Y-853839D01*
G01X14267122Y-859427D01*
G01X14215560Y-859427D01*
G01X14255692Y-859427D02*
G01X14295570Y-922419D01*
G01X14372024Y-842409D02*
G01X14360594Y-847997D01*
G01X14349164Y-859427D01*
G01X14343322Y-876699D01*
G01X14343322Y-888129D01*
G01X14349164Y-905147D01*
G01X14360594Y-916577D01*
G01X14372024Y-922419D01*
G01X14389042Y-922419D01*
G01X14400472Y-916577D01*
G01X14411902Y-905147D01*
G01X14417744Y-888129D01*
G01X14417744Y-876699D01*
G01X14411902Y-859427D01*
G01X14400472Y-847997D01*
G01X14389042Y-842409D01*
G01X14372024Y-842409D01*
G01X14465496Y-842409D02*
G01X14465496Y-899559D01*
G01X14471338Y-916577D01*
G01X14482768Y-922419D01*
G01X14499786Y-922419D01*
G01X14511216Y-916577D01*
G01X14528488Y-899559D01*
G01X14528488Y-842409D02*
G01X14528488Y-922419D01*
G01X14576240Y-842409D02*
G01X14576240Y-922419D01*
G01X14576240Y-865269D02*
G01X14593512Y-847997D01*
G01X14604942Y-842409D01*
G01X14621960Y-842409D01*
G01X14633390Y-847997D01*
G01X14639232Y-865269D01*
G01X14639232Y-922419D01*
G01X14755564Y-802277D02*
G01X14755564Y-922419D01*
G01X14755564Y-859427D02*
G01X14744134Y-847997D01*
G01X14732704Y-842409D01*
G01X14715686Y-842409D01*
G01X14704256Y-847997D01*
G01X14692826Y-859427D01*
G01X14686984Y-876699D01*
G01X14686984Y-888129D01*
G01X14692826Y-905147D01*
G01X14704256Y-916577D01*
G01X14715686Y-922419D01*
G01X14732704Y-922419D01*
G01X14744134Y-916577D01*
G01X14755564Y-905147D01*
G01X15646741Y-802277D02*
G01X15692461Y-922419D01*
G01X15738181Y-802277D02*
G01X15692461Y-922419D01*
G01X15785933Y-802277D02*
G01X15791775Y-808119D01*
G01X15797363Y-802277D01*
G01X15791775Y-796689D01*
G01X15785933Y-802277D01*
G01X15791775Y-842409D02*
G01X15791775Y-922419D01*
G01X15913695Y-842409D02*
G01X15913695Y-922419D01*
G01X15913695Y-859427D02*
G01X15902265Y-847997D01*
G01X15890835Y-842409D01*
G01X15873817Y-842409D01*
G01X15862387Y-847997D01*
G01X15850957Y-859427D01*
G01X15845115Y-876699D01*
G01X15845115Y-888129D01*
G01X15850957Y-905147D01*
G01X15862387Y-916577D01*
G01X15873817Y-922419D01*
G01X15890835Y-922419D01*
G01X15902265Y-916577D01*
G01X15913695Y-905147D01*
G01X19275422Y-802277D02*
G01X19275422Y-922419D01*
G01X19235290Y-802277D02*
G01X19315300Y-802277D01*
G01X19391754Y-842409D02*
G01X19380324Y-847997D01*
G01X19368894Y-859427D01*
G01X19363052Y-876699D01*
G01X19363052Y-888129D01*
G01X19368894Y-905147D01*
G01X19380324Y-916577D01*
G01X19391754Y-922419D01*
G01X19408772Y-922419D01*
G01X19420202Y-916577D01*
G01X19431632Y-905147D01*
G01X19437474Y-888129D01*
G01X19437474Y-876699D01*
G01X19431632Y-859427D01*
G01X19420202Y-847997D01*
G01X19408772Y-842409D01*
G01X19391754Y-842409D01*
G01X19485226Y-842409D02*
G01X19485226Y-962297D01*
G01X19485226Y-859427D02*
G01X19496656Y-847997D01*
G01X19508086Y-842409D01*
G01X19525358Y-842409D01*
G01X19536788Y-847997D01*
G01X19548218Y-859427D01*
G01X19553806Y-876699D01*
G01X19553806Y-888129D01*
G01X19548218Y-905147D01*
G01X19536788Y-916577D01*
G01X19525358Y-922419D01*
G01X19508086Y-922419D01*
G01X19496656Y-916577D01*
G01X19485226Y-905147D01*
G01X19729574Y-802277D02*
G01X19729574Y-922419D01*
G01X19729574Y-922419D02*
G01X19798154Y-922419D01*
G01X19914486Y-842409D02*
G01X19914486Y-922419D01*
G01X19914486Y-859427D02*
G01X19903056Y-847997D01*
G01X19891626Y-842409D01*
G01X19874608Y-842409D01*
G01X19863178Y-847997D01*
G01X19851748Y-859427D01*
G01X19845906Y-876699D01*
G01X19845906Y-888129D01*
G01X19851748Y-905147D01*
G01X19863178Y-916577D01*
G01X19874608Y-922419D01*
G01X19891626Y-922419D01*
G01X19903056Y-916577D01*
G01X19914486Y-905147D01*
G01X19968080Y-842409D02*
G01X20002370Y-922419D01*
G01X20036660Y-842409D02*
G01X20002370Y-922419D01*
G01X19990940Y-945279D01*
G01X19979510Y-956709D01*
G01X19968080Y-962297D01*
G01X19962238Y-962297D01*
G01X20084412Y-876699D02*
G01X20152992Y-876699D01*
G01X20152992Y-865269D01*
G01X20147404Y-853839D01*
G01X20141562Y-847997D01*
G01X20130132Y-842409D01*
G01X20113114Y-842409D01*
G01X20101684Y-847997D01*
G01X20090254Y-859427D01*
G01X20084412Y-876699D01*
G01X20084412Y-888129D01*
G01X20090254Y-905147D01*
G01X20101684Y-916577D01*
G01X20113114Y-922419D01*
G01X20130132Y-922419D01*
G01X20141562Y-916577D01*
G01X20152992Y-905147D01*
G01X20200744Y-842409D02*
G01X20200744Y-922419D01*
G01X20200744Y-876699D02*
G01X20206586Y-859427D01*
G01X20218016Y-847997D01*
G01X20229446Y-842409D01*
G01X20246464Y-842409D01*
G01X20294216Y-870857D02*
G01X20397086Y-870857D01*
G01X20444838Y-802277D02*
G01X20444838Y-922419D01*
G01X20444838Y-802277D02*
G01X20496400Y-802277D01*
G01X20513418Y-808119D01*
G01X20519260Y-813707D01*
G01X20524848Y-825137D01*
G01X20524848Y-836567D01*
G01X20519260Y-847997D01*
G01X20513418Y-853839D01*
G01X20496400Y-859427D01*
G01X20444838Y-859427D02*
G01X20496400Y-859427D01*
G01X20513418Y-865269D01*
G01X20519260Y-870857D01*
G01X20524848Y-882287D01*
G01X20524848Y-899559D01*
G01X20519260Y-910989D01*
G01X20513418Y-916577D01*
G01X20496400Y-922419D01*
G01X20444838Y-922419D01*
G01X20601302Y-842409D02*
G01X20589872Y-847997D01*
G01X20578442Y-859427D01*
G01X20572600Y-876699D01*
G01X20572600Y-888129D01*
G01X20578442Y-905147D01*
G01X20589872Y-916577D01*
G01X20601302Y-922419D01*
G01X20618320Y-922419D01*
G01X20629750Y-916577D01*
G01X20641180Y-905147D01*
G01X20647022Y-888129D01*
G01X20647022Y-876699D01*
G01X20641180Y-859427D01*
G01X20629750Y-847997D01*
G01X20618320Y-842409D01*
G01X20601302Y-842409D01*
G01X20712046Y-802277D02*
G01X20712046Y-899559D01*
G01X20717634Y-916577D01*
G01X20729064Y-922419D01*
G01X20740494Y-922419D01*
G01X20694774Y-842409D02*
G01X20734906Y-842409D01*
G01X20805518Y-802277D02*
G01X20805518Y-899559D01*
G01X20811106Y-916577D01*
G01X20822536Y-922419D01*
G01X20833966Y-922419D01*
G01X20788246Y-842409D02*
G01X20828378Y-842409D01*
G01X20910420Y-842409D02*
G01X20898990Y-847997D01*
G01X20887560Y-859427D01*
G01X20881718Y-876699D01*
G01X20881718Y-888129D01*
G01X20887560Y-905147D01*
G01X20898990Y-916577D01*
G01X20910420Y-922419D01*
G01X20927438Y-922419D01*
G01X20938868Y-916577D01*
G01X20950298Y-905147D01*
G01X20956140Y-888129D01*
G01X20956140Y-876699D01*
G01X20950298Y-859427D01*
G01X20938868Y-847997D01*
G01X20927438Y-842409D01*
G01X20910420Y-842409D01*
G01X21003892Y-842409D02*
G01X21003892Y-922419D01*
G01X21003892Y-865269D02*
G01X21021164Y-847997D01*
G01X21032594Y-842409D01*
G01X21049612Y-842409D01*
G01X21061042Y-847997D01*
G01X21066884Y-865269D01*
G01X21066884Y-922419D01*
G01X21066884Y-865269D02*
G01X21083902Y-847997D01*
G01X21095332Y-842409D01*
G01X21112604Y-842409D01*
G01X21124034Y-847997D01*
G01X21129622Y-865269D01*
G01X21129622Y-922419D01*
G01X21305390Y-802277D02*
G01X21305390Y-922419D01*
G01X21305390Y-922419D02*
G01X21373970Y-922419D01*
G01X21490302Y-842409D02*
G01X21490302Y-922419D01*
G01X21490302Y-859427D02*
G01X21478872Y-847997D01*
G01X21467442Y-842409D01*
G01X21450424Y-842409D01*
G01X21438994Y-847997D01*
G01X21427564Y-859427D01*
G01X21421722Y-876699D01*
G01X21421722Y-888129D01*
G01X21427564Y-905147D01*
G01X21438994Y-916577D01*
G01X21450424Y-922419D01*
G01X21467442Y-922419D01*
G01X21478872Y-916577D01*
G01X21490302Y-905147D01*
G01X21543896Y-842409D02*
G01X21578186Y-922419D01*
G01X21612476Y-842409D02*
G01X21578186Y-922419D01*
G01X21566756Y-945279D01*
G01X21555326Y-956709D01*
G01X21543896Y-962297D01*
G01X21538054Y-962297D01*
G01X21660228Y-876699D02*
G01X21728808Y-876699D01*
G01X21728808Y-865269D01*
G01X21723220Y-853839D01*
G01X21717378Y-847997D01*
G01X21705948Y-842409D01*
G01X21688930Y-842409D01*
G01X21677500Y-847997D01*
G01X21666070Y-859427D01*
G01X21660228Y-876699D01*
G01X21660228Y-888129D01*
G01X21666070Y-905147D01*
G01X21677500Y-916577D01*
G01X21688930Y-922419D01*
G01X21705948Y-922419D01*
G01X21717378Y-916577D01*
G01X21728808Y-905147D01*
G01X21776560Y-842409D02*
G01X21776560Y-922419D01*
G01X21776560Y-876699D02*
G01X21782402Y-859427D01*
G01X21793832Y-847997D01*
G01X21805262Y-842409D01*
G01X21822280Y-842409D01*
G01X7463297Y-1382849D02*
G01X7526289Y-1382849D01*
G01X7491999Y-1428569D01*
G01X7509017Y-1428569D01*
G01X7520447Y-1434411D01*
G01X7526289Y-1439999D01*
G01X7531877Y-1457271D01*
G01X7531877Y-1468701D01*
G01X7526289Y-1485719D01*
G01X7514859Y-1497149D01*
G01X7497587Y-1502991D01*
G01X7480569Y-1502991D01*
G01X7463297Y-1497149D01*
G01X7457709Y-1491561D01*
G01X7451867Y-1480131D01*
G01X8877460Y-1382849D02*
G01X8940452Y-1382849D01*
G01X8906162Y-1428569D01*
G01X8923180Y-1428569D01*
G01X8934610Y-1434411D01*
G01X8940452Y-1439999D01*
G01X8946040Y-1457271D01*
G01X8946040Y-1468701D01*
G01X8940452Y-1485719D01*
G01X8929022Y-1497149D01*
G01X8911750Y-1502991D01*
G01X8894732Y-1502991D01*
G01X8877460Y-1497149D01*
G01X8871872Y-1491561D01*
G01X8866030Y-1480131D01*
G01X9062372Y-1400121D02*
G01X9056784Y-1388691D01*
G01X9039512Y-1382849D01*
G01X9028082Y-1382849D01*
G01X9011064Y-1388691D01*
G01X8999634Y-1405709D01*
G01X8993792Y-1434411D01*
G01X8993792Y-1462859D01*
G01X8999634Y-1485719D01*
G01X9011064Y-1497149D01*
G01X9028082Y-1502991D01*
G01X9033924Y-1502991D01*
G01X9050942Y-1497149D01*
G01X9062372Y-1485719D01*
G01X9068214Y-1468701D01*
G01X9068214Y-1462859D01*
G01X9062372Y-1445841D01*
G01X9050942Y-1434411D01*
G01X9033924Y-1428569D01*
G01X9028082Y-1428569D01*
G01X9011064Y-1434411D01*
G01X8999634Y-1445841D01*
G01X8993792Y-1462859D01*
G01X9121808Y-1474289D02*
G01X9115966Y-1480131D01*
G01X9121808Y-1485719D01*
G01X9127396Y-1480131D01*
G01X9121808Y-1474289D01*
G01X9209438Y-1382849D02*
G01X9192420Y-1388691D01*
G01X9180990Y-1405709D01*
G01X9175148Y-1434411D01*
G01X9175148Y-1451429D01*
G01X9180990Y-1480131D01*
G01X9192420Y-1497149D01*
G01X9209438Y-1502991D01*
G01X9220868Y-1502991D01*
G01X9238140Y-1497149D01*
G01X9249570Y-1480131D01*
G01X9255158Y-1451429D01*
G01X9255158Y-1434411D01*
G01X9249570Y-1405709D01*
G01X9238140Y-1388691D01*
G01X9220868Y-1382849D01*
G01X9209438Y-1382849D01*
G01X9302910Y-1422981D02*
G01X9365902Y-1502991D01*
G01X9365902Y-1422981D02*
G01X9302910Y-1502991D01*
G01X9425084Y-1382849D02*
G01X9488076Y-1382849D01*
G01X9453786Y-1428569D01*
G01X9470804Y-1428569D01*
G01X9482234Y-1434411D01*
G01X9488076Y-1439999D01*
G01X9493664Y-1457271D01*
G01X9493664Y-1468701D01*
G01X9488076Y-1485719D01*
G01X9476646Y-1497149D01*
G01X9459374Y-1502991D01*
G01X9442356Y-1502991D01*
G01X9425084Y-1497149D01*
G01X9419496Y-1491561D01*
G01X9413654Y-1480131D01*
G01X9609996Y-1400121D02*
G01X9604408Y-1388691D01*
G01X9587136Y-1382849D01*
G01X9575706Y-1382849D01*
G01X9558688Y-1388691D01*
G01X9547258Y-1405709D01*
G01X9541416Y-1434411D01*
G01X9541416Y-1462859D01*
G01X9547258Y-1485719D01*
G01X9558688Y-1497149D01*
G01X9575706Y-1502991D01*
G01X9581548Y-1502991D01*
G01X9598566Y-1497149D01*
G01X9609996Y-1485719D01*
G01X9615838Y-1468701D01*
G01X9615838Y-1462859D01*
G01X9609996Y-1445841D01*
G01X9598566Y-1434411D01*
G01X9581548Y-1428569D01*
G01X9575706Y-1428569D01*
G01X9558688Y-1434411D01*
G01X9547258Y-1445841D01*
G01X9541416Y-1462859D01*
G01X9669432Y-1474289D02*
G01X9663590Y-1480131D01*
G01X9669432Y-1485719D01*
G01X9675020Y-1480131D01*
G01X9669432Y-1474289D01*
G01X9757062Y-1382849D02*
G01X9740044Y-1388691D01*
G01X9728614Y-1405709D01*
G01X9722772Y-1434411D01*
G01X9722772Y-1451429D01*
G01X9728614Y-1480131D01*
G01X9740044Y-1497149D01*
G01X9757062Y-1502991D01*
G01X9768492Y-1502991D01*
G01X9785764Y-1497149D01*
G01X9797194Y-1480131D01*
G01X9802782Y-1451429D01*
G01X9802782Y-1434411D01*
G01X9797194Y-1405709D01*
G01X9785764Y-1388691D01*
G01X9768492Y-1382849D01*
G01X9757062Y-1382849D01*
G01X9850534Y-1422981D02*
G01X9850534Y-1502991D01*
G01X9850534Y-1445841D02*
G01X9867806Y-1428569D01*
G01X9879236Y-1422981D01*
G01X9896254Y-1422981D01*
G01X9907684Y-1428569D01*
G01X9913526Y-1445841D01*
G01X9913526Y-1502991D01*
G01X9913526Y-1445841D02*
G01X9930544Y-1428569D01*
G01X9941974Y-1422981D01*
G01X9959246Y-1422981D01*
G01X9970676Y-1428569D01*
G01X9976264Y-1445841D01*
G01X9976264Y-1502991D01*
G01X10024016Y-1382849D02*
G01X10029858Y-1388691D01*
G01X10035446Y-1382849D01*
G01X10029858Y-1377261D01*
G01X10024016Y-1382849D01*
G01X10029858Y-1422981D02*
G01X10029858Y-1502991D01*
G01X10083198Y-1382849D02*
G01X10083198Y-1502991D01*
G01X10171082Y-1359989D02*
G01X10159652Y-1371419D01*
G01X10148222Y-1388691D01*
G01X10136792Y-1411551D01*
G01X10130950Y-1439999D01*
G01X10130950Y-1462859D01*
G01X10136792Y-1491561D01*
G01X10148222Y-1514421D01*
G01X10159652Y-1531439D01*
G01X10171082Y-1542869D01*
G01X10253124Y-1382849D02*
G01X10236106Y-1388691D01*
G01X10224676Y-1405709D01*
G01X10218834Y-1434411D01*
G01X10218834Y-1451429D01*
G01X10224676Y-1480131D01*
G01X10236106Y-1497149D01*
G01X10253124Y-1502991D01*
G01X10264554Y-1502991D01*
G01X10281826Y-1497149D01*
G01X10293256Y-1480131D01*
G01X10298844Y-1451429D01*
G01X10298844Y-1434411D01*
G01X10293256Y-1405709D01*
G01X10281826Y-1388691D01*
G01X10264554Y-1382849D01*
G01X10253124Y-1382849D01*
G01X10352438Y-1474289D02*
G01X10346596Y-1480131D01*
G01X10352438Y-1485719D01*
G01X10358026Y-1480131D01*
G01X10352438Y-1474289D01*
G01X10480200Y-1422981D02*
G01X10474358Y-1439999D01*
G01X10462928Y-1451429D01*
G01X10445910Y-1457271D01*
G01X10440068Y-1457271D01*
G01X10423050Y-1451429D01*
G01X10411620Y-1439999D01*
G01X10405778Y-1422981D01*
G01X10405778Y-1417139D01*
G01X10411620Y-1400121D01*
G01X10423050Y-1388691D01*
G01X10440068Y-1382849D01*
G01X10445910Y-1382849D01*
G01X10462928Y-1388691D01*
G01X10474358Y-1400121D01*
G01X10480200Y-1422981D01*
G01X10480200Y-1451429D01*
G01X10474358Y-1480131D01*
G01X10462928Y-1497149D01*
G01X10445910Y-1502991D01*
G01X10434480Y-1502991D01*
G01X10417208Y-1497149D01*
G01X10411620Y-1485719D01*
G01X10527952Y-1405709D02*
G01X10539382Y-1400121D01*
G01X10556654Y-1382849D01*
G01X10556654Y-1502991D01*
G01X10661556Y-1382849D02*
G01X10604406Y-1462859D01*
G01X10690258Y-1462859D01*
G01X10661556Y-1382849D02*
G01X10661556Y-1502991D01*
G01X10738010Y-1422981D02*
G01X10801002Y-1502991D01*
G01X10801002Y-1422981D02*
G01X10738010Y-1502991D01*
G01X10883044Y-1382849D02*
G01X10866026Y-1388691D01*
G01X10854596Y-1405709D01*
G01X10848754Y-1434411D01*
G01X10848754Y-1451429D01*
G01X10854596Y-1480131D01*
G01X10866026Y-1497149D01*
G01X10883044Y-1502991D01*
G01X10894474Y-1502991D01*
G01X10911746Y-1497149D01*
G01X10923176Y-1480131D01*
G01X10928764Y-1451429D01*
G01X10928764Y-1434411D01*
G01X10923176Y-1405709D01*
G01X10911746Y-1388691D01*
G01X10894474Y-1382849D01*
G01X10883044Y-1382849D01*
G01X10982358Y-1474289D02*
G01X10976516Y-1480131D01*
G01X10982358Y-1485719D01*
G01X10987946Y-1480131D01*
G01X10982358Y-1474289D01*
G01X11110120Y-1422981D02*
G01X11104278Y-1439999D01*
G01X11092848Y-1451429D01*
G01X11075830Y-1457271D01*
G01X11069988Y-1457271D01*
G01X11052970Y-1451429D01*
G01X11041540Y-1439999D01*
G01X11035698Y-1422981D01*
G01X11035698Y-1417139D01*
G01X11041540Y-1400121D01*
G01X11052970Y-1388691D01*
G01X11069988Y-1382849D01*
G01X11075830Y-1382849D01*
G01X11092848Y-1388691D01*
G01X11104278Y-1400121D01*
G01X11110120Y-1422981D01*
G01X11110120Y-1451429D01*
G01X11104278Y-1480131D01*
G01X11092848Y-1497149D01*
G01X11075830Y-1502991D01*
G01X11064400Y-1502991D01*
G01X11047128Y-1497149D01*
G01X11041540Y-1485719D01*
G01X11157872Y-1405709D02*
G01X11169302Y-1400121D01*
G01X11186574Y-1382849D01*
G01X11186574Y-1502991D01*
G01X11291476Y-1382849D02*
G01X11234326Y-1462859D01*
G01X11320178Y-1462859D01*
G01X11291476Y-1382849D02*
G01X11291476Y-1502991D01*
G01X11367930Y-1422981D02*
G01X11367930Y-1502991D01*
G01X11367930Y-1445841D02*
G01X11385202Y-1428569D01*
G01X11396632Y-1422981D01*
G01X11413650Y-1422981D01*
G01X11425080Y-1428569D01*
G01X11430922Y-1445841D01*
G01X11430922Y-1502991D01*
G01X11430922Y-1445841D02*
G01X11447940Y-1428569D01*
G01X11459370Y-1422981D01*
G01X11476642Y-1422981D01*
G01X11488072Y-1428569D01*
G01X11493660Y-1445841D01*
G01X11493660Y-1502991D01*
G01X11541412Y-1422981D02*
G01X11541412Y-1502991D01*
G01X11541412Y-1445841D02*
G01X11558684Y-1428569D01*
G01X11570114Y-1422981D01*
G01X11587132Y-1422981D01*
G01X11598562Y-1428569D01*
G01X11604404Y-1445841D01*
G01X11604404Y-1502991D01*
G01X11604404Y-1445841D02*
G01X11621422Y-1428569D01*
G01X11632852Y-1422981D01*
G01X11650124Y-1422981D01*
G01X11661554Y-1428569D01*
G01X11667142Y-1445841D01*
G01X11667142Y-1502991D01*
G01X11714894Y-1359989D02*
G01X11726324Y-1371419D01*
G01X11737754Y-1388691D01*
G01X11749184Y-1411551D01*
G01X11755026Y-1439999D01*
G01X11755026Y-1462859D01*
G01X11749184Y-1491561D01*
G01X11737754Y-1514421D01*
G01X11726324Y-1531439D01*
G01X11714894Y-1542869D01*
G01X12754153Y-1382849D02*
G01X12754153Y-1502991D01*
G01X12754153Y-1382849D02*
G01X12805715Y-1382849D01*
G01X12822733Y-1388691D01*
G01X12828575Y-1394279D01*
G01X12834163Y-1405709D01*
G01X12834163Y-1422981D01*
G01X12828575Y-1434411D01*
G01X12822733Y-1439999D01*
G01X12805715Y-1445841D01*
G01X12754153Y-1445841D01*
G01X12922047Y-1382849D02*
G01X12922047Y-1502991D01*
G01X12881915Y-1382849D02*
G01X12961925Y-1382849D01*
G01X13009677Y-1382849D02*
G01X13009677Y-1502991D01*
G01X13089687Y-1382849D02*
G01X13089687Y-1502991D01*
G01X13009677Y-1439999D02*
G01X13089687Y-1439999D01*
G01X14215560Y-1382849D02*
G01X14215560Y-1502991D01*
G01X14215560Y-1382849D02*
G01X14267122Y-1382849D01*
G01X14284140Y-1388691D01*
G01X14289982Y-1394279D01*
G01X14295570Y-1405709D01*
G01X14295570Y-1417139D01*
G01X14289982Y-1428569D01*
G01X14284140Y-1434411D01*
G01X14267122Y-1439999D01*
G01X14215560Y-1439999D01*
G01X14255692Y-1439999D02*
G01X14295570Y-1502991D01*
G01X14372024Y-1422981D02*
G01X14360594Y-1428569D01*
G01X14349164Y-1439999D01*
G01X14343322Y-1457271D01*
G01X14343322Y-1468701D01*
G01X14349164Y-1485719D01*
G01X14360594Y-1497149D01*
G01X14372024Y-1502991D01*
G01X14389042Y-1502991D01*
G01X14400472Y-1497149D01*
G01X14411902Y-1485719D01*
G01X14417744Y-1468701D01*
G01X14417744Y-1457271D01*
G01X14411902Y-1439999D01*
G01X14400472Y-1428569D01*
G01X14389042Y-1422981D01*
G01X14372024Y-1422981D01*
G01X14465496Y-1422981D02*
G01X14465496Y-1480131D01*
G01X14471338Y-1497149D01*
G01X14482768Y-1502991D01*
G01X14499786Y-1502991D01*
G01X14511216Y-1497149D01*
G01X14528488Y-1480131D01*
G01X14528488Y-1422981D02*
G01X14528488Y-1502991D01*
G01X14576240Y-1422981D02*
G01X14576240Y-1502991D01*
G01X14576240Y-1445841D02*
G01X14593512Y-1428569D01*
G01X14604942Y-1422981D01*
G01X14621960Y-1422981D01*
G01X14633390Y-1428569D01*
G01X14639232Y-1445841D01*
G01X14639232Y-1502991D01*
G01X14755564Y-1382849D02*
G01X14755564Y-1502991D01*
G01X14755564Y-1439999D02*
G01X14744134Y-1428569D01*
G01X14732704Y-1422981D01*
G01X14715686Y-1422981D01*
G01X14704256Y-1428569D01*
G01X14692826Y-1439999D01*
G01X14686984Y-1457271D01*
G01X14686984Y-1468701D01*
G01X14692826Y-1485719D01*
G01X14704256Y-1497149D01*
G01X14715686Y-1502991D01*
G01X14732704Y-1502991D01*
G01X14744134Y-1497149D01*
G01X14755564Y-1485719D01*
G01X15646741Y-1382849D02*
G01X15646741Y-1502991D01*
G01X15646741Y-1382849D02*
G01X15698303Y-1382849D01*
G01X15715321Y-1388691D01*
G01X15721163Y-1394279D01*
G01X15726751Y-1405709D01*
G01X15726751Y-1422981D01*
G01X15721163Y-1434411D01*
G01X15715321Y-1439999D01*
G01X15698303Y-1445841D01*
G01X15646741Y-1445841D01*
G01X15843083Y-1422981D02*
G01X15843083Y-1502991D01*
G01X15843083Y-1439999D02*
G01X15831653Y-1428569D01*
G01X15820223Y-1422981D01*
G01X15803205Y-1422981D01*
G01X15791775Y-1428569D01*
G01X15780345Y-1439999D01*
G01X15774503Y-1457271D01*
G01X15774503Y-1468701D01*
G01X15780345Y-1485719D01*
G01X15791775Y-1497149D01*
G01X15803205Y-1502991D01*
G01X15820223Y-1502991D01*
G01X15831653Y-1497149D01*
G01X15843083Y-1485719D01*
G01X15959415Y-1382849D02*
G01X15959415Y-1502991D01*
G01X15959415Y-1439999D02*
G01X15947985Y-1428569D01*
G01X15936555Y-1422981D01*
G01X15919537Y-1422981D01*
G01X15908107Y-1428569D01*
G01X15896677Y-1439999D01*
G01X15890835Y-1457271D01*
G01X15890835Y-1468701D01*
G01X15896677Y-1485719D01*
G01X15908107Y-1497149D01*
G01X15919537Y-1502991D01*
G01X15936555Y-1502991D01*
G01X15947985Y-1497149D01*
G01X15959415Y-1485719D01*
G01X17315921Y-1382849D02*
G01X17315921Y-1502991D01*
G01X17315921Y-1382849D02*
G01X17367483Y-1382849D01*
G01X17384501Y-1388691D01*
G01X17390343Y-1394279D01*
G01X17395931Y-1405709D01*
G01X17395931Y-1417139D01*
G01X17390343Y-1428569D01*
G01X17384501Y-1434411D01*
G01X17367483Y-1439999D01*
G01X17315921Y-1439999D01*
G01X17356053Y-1439999D02*
G01X17395931Y-1502991D01*
G01X17472385Y-1422981D02*
G01X17460955Y-1428569D01*
G01X17449525Y-1439999D01*
G01X17443683Y-1457271D01*
G01X17443683Y-1468701D01*
G01X17449525Y-1485719D01*
G01X17460955Y-1497149D01*
G01X17472385Y-1502991D01*
G01X17489403Y-1502991D01*
G01X17500833Y-1497149D01*
G01X17512263Y-1485719D01*
G01X17518105Y-1468701D01*
G01X17518105Y-1457271D01*
G01X17512263Y-1439999D01*
G01X17500833Y-1428569D01*
G01X17489403Y-1422981D01*
G01X17472385Y-1422981D01*
G01X17565857Y-1422981D02*
G01X17565857Y-1480131D01*
G01X17571699Y-1497149D01*
G01X17583129Y-1502991D01*
G01X17600147Y-1502991D01*
G01X17611577Y-1497149D01*
G01X17628849Y-1480131D01*
G01X17628849Y-1422981D02*
G01X17628849Y-1502991D01*
G01X17676601Y-1422981D02*
G01X17676601Y-1502991D01*
G01X17676601Y-1445841D02*
G01X17693873Y-1428569D01*
G01X17705303Y-1422981D01*
G01X17722321Y-1422981D01*
G01X17733751Y-1428569D01*
G01X17739593Y-1445841D01*
G01X17739593Y-1502991D01*
G01X17855925Y-1382849D02*
G01X17855925Y-1502991D01*
G01X17855925Y-1439999D02*
G01X17844495Y-1428569D01*
G01X17833065Y-1422981D01*
G01X17816047Y-1422981D01*
G01X17804617Y-1428569D01*
G01X17793187Y-1439999D01*
G01X17787345Y-1457271D01*
G01X17787345Y-1468701D01*
G01X17793187Y-1485719D01*
G01X17804617Y-1497149D01*
G01X17816047Y-1502991D01*
G01X17833065Y-1502991D01*
G01X17844495Y-1497149D01*
G01X17855925Y-1485719D01*
G01X19275422Y-1382849D02*
G01X19275422Y-1502991D01*
G01X19235290Y-1382849D02*
G01X19315300Y-1382849D01*
G01X19391754Y-1422981D02*
G01X19380324Y-1428569D01*
G01X19368894Y-1439999D01*
G01X19363052Y-1457271D01*
G01X19363052Y-1468701D01*
G01X19368894Y-1485719D01*
G01X19380324Y-1497149D01*
G01X19391754Y-1502991D01*
G01X19408772Y-1502991D01*
G01X19420202Y-1497149D01*
G01X19431632Y-1485719D01*
G01X19437474Y-1468701D01*
G01X19437474Y-1457271D01*
G01X19431632Y-1439999D01*
G01X19420202Y-1428569D01*
G01X19408772Y-1422981D01*
G01X19391754Y-1422981D01*
G01X19485226Y-1422981D02*
G01X19485226Y-1542869D01*
G01X19485226Y-1439999D02*
G01X19496656Y-1428569D01*
G01X19508086Y-1422981D01*
G01X19525358Y-1422981D01*
G01X19536788Y-1428569D01*
G01X19548218Y-1439999D01*
G01X19553806Y-1457271D01*
G01X19553806Y-1468701D01*
G01X19548218Y-1485719D01*
G01X19536788Y-1497149D01*
G01X19525358Y-1502991D01*
G01X19508086Y-1502991D01*
G01X19496656Y-1497149D01*
G01X19485226Y-1485719D01*
G01X19729574Y-1382849D02*
G01X19729574Y-1502991D01*
G01X19729574Y-1502991D02*
G01X19798154Y-1502991D01*
G01X19914486Y-1422981D02*
G01X19914486Y-1502991D01*
G01X19914486Y-1439999D02*
G01X19903056Y-1428569D01*
G01X19891626Y-1422981D01*
G01X19874608Y-1422981D01*
G01X19863178Y-1428569D01*
G01X19851748Y-1439999D01*
G01X19845906Y-1457271D01*
G01X19845906Y-1468701D01*
G01X19851748Y-1485719D01*
G01X19863178Y-1497149D01*
G01X19874608Y-1502991D01*
G01X19891626Y-1502991D01*
G01X19903056Y-1497149D01*
G01X19914486Y-1485719D01*
G01X19968080Y-1422981D02*
G01X20002370Y-1502991D01*
G01X20036660Y-1422981D02*
G01X20002370Y-1502991D01*
G01X19990940Y-1525851D01*
G01X19979510Y-1537281D01*
G01X19968080Y-1542869D01*
G01X19962238Y-1542869D01*
G01X20084412Y-1457271D02*
G01X20152992Y-1457271D01*
G01X20152992Y-1445841D01*
G01X20147404Y-1434411D01*
G01X20141562Y-1428569D01*
G01X20130132Y-1422981D01*
G01X20113114Y-1422981D01*
G01X20101684Y-1428569D01*
G01X20090254Y-1439999D01*
G01X20084412Y-1457271D01*
G01X20084412Y-1468701D01*
G01X20090254Y-1485719D01*
G01X20101684Y-1497149D01*
G01X20113114Y-1502991D01*
G01X20130132Y-1502991D01*
G01X20141562Y-1497149D01*
G01X20152992Y-1485719D01*
G01X20200744Y-1422981D02*
G01X20200744Y-1502991D01*
G01X20200744Y-1457271D02*
G01X20206586Y-1439999D01*
G01X20218016Y-1428569D01*
G01X20229446Y-1422981D01*
G01X20246464Y-1422981D01*
G01X20294216Y-1451429D02*
G01X20397086Y-1451429D01*
G01X20444838Y-1382849D02*
G01X20444838Y-1502991D01*
G01X20444838Y-1382849D02*
G01X20496400Y-1382849D01*
G01X20513418Y-1388691D01*
G01X20519260Y-1394279D01*
G01X20524848Y-1405709D01*
G01X20524848Y-1417139D01*
G01X20519260Y-1428569D01*
G01X20513418Y-1434411D01*
G01X20496400Y-1439999D01*
G01X20444838Y-1439999D02*
G01X20496400Y-1439999D01*
G01X20513418Y-1445841D01*
G01X20519260Y-1451429D01*
G01X20524848Y-1462859D01*
G01X20524848Y-1480131D01*
G01X20519260Y-1491561D01*
G01X20513418Y-1497149D01*
G01X20496400Y-1502991D01*
G01X20444838Y-1502991D01*
G01X20601302Y-1422981D02*
G01X20589872Y-1428569D01*
G01X20578442Y-1439999D01*
G01X20572600Y-1457271D01*
G01X20572600Y-1468701D01*
G01X20578442Y-1485719D01*
G01X20589872Y-1497149D01*
G01X20601302Y-1502991D01*
G01X20618320Y-1502991D01*
G01X20629750Y-1497149D01*
G01X20641180Y-1485719D01*
G01X20647022Y-1468701D01*
G01X20647022Y-1457271D01*
G01X20641180Y-1439999D01*
G01X20629750Y-1428569D01*
G01X20618320Y-1422981D01*
G01X20601302Y-1422981D01*
G01X20712046Y-1382849D02*
G01X20712046Y-1480131D01*
G01X20717634Y-1497149D01*
G01X20729064Y-1502991D01*
G01X20740494Y-1502991D01*
G01X20694774Y-1422981D02*
G01X20734906Y-1422981D01*
G01X20805518Y-1382849D02*
G01X20805518Y-1480131D01*
G01X20811106Y-1497149D01*
G01X20822536Y-1502991D01*
G01X20833966Y-1502991D01*
G01X20788246Y-1422981D02*
G01X20828378Y-1422981D01*
G01X20910420Y-1422981D02*
G01X20898990Y-1428569D01*
G01X20887560Y-1439999D01*
G01X20881718Y-1457271D01*
G01X20881718Y-1468701D01*
G01X20887560Y-1485719D01*
G01X20898990Y-1497149D01*
G01X20910420Y-1502991D01*
G01X20927438Y-1502991D01*
G01X20938868Y-1497149D01*
G01X20950298Y-1485719D01*
G01X20956140Y-1468701D01*
G01X20956140Y-1457271D01*
G01X20950298Y-1439999D01*
G01X20938868Y-1428569D01*
G01X20927438Y-1422981D01*
G01X20910420Y-1422981D01*
G01X21003892Y-1422981D02*
G01X21003892Y-1502991D01*
G01X21003892Y-1445841D02*
G01X21021164Y-1428569D01*
G01X21032594Y-1422981D01*
G01X21049612Y-1422981D01*
G01X21061042Y-1428569D01*
G01X21066884Y-1445841D01*
G01X21066884Y-1502991D01*
G01X21066884Y-1445841D02*
G01X21083902Y-1428569D01*
G01X21095332Y-1422981D01*
G01X21112604Y-1422981D01*
G01X21124034Y-1428569D01*
G01X21129622Y-1445841D01*
G01X21129622Y-1502991D01*
G01X21305390Y-1382849D02*
G01X21305390Y-1502991D01*
G01X21305390Y-1502991D02*
G01X21373970Y-1502991D01*
G01X21490302Y-1422981D02*
G01X21490302Y-1502991D01*
G01X21490302Y-1439999D02*
G01X21478872Y-1428569D01*
G01X21467442Y-1422981D01*
G01X21450424Y-1422981D01*
G01X21438994Y-1428569D01*
G01X21427564Y-1439999D01*
G01X21421722Y-1457271D01*
G01X21421722Y-1468701D01*
G01X21427564Y-1485719D01*
G01X21438994Y-1497149D01*
G01X21450424Y-1502991D01*
G01X21467442Y-1502991D01*
G01X21478872Y-1497149D01*
G01X21490302Y-1485719D01*
G01X21543896Y-1422981D02*
G01X21578186Y-1502991D01*
G01X21612476Y-1422981D02*
G01X21578186Y-1502991D01*
G01X21566756Y-1525851D01*
G01X21555326Y-1537281D01*
G01X21543896Y-1542869D01*
G01X21538054Y-1542869D01*
G01X21660228Y-1457271D02*
G01X21728808Y-1457271D01*
G01X21728808Y-1445841D01*
G01X21723220Y-1434411D01*
G01X21717378Y-1428569D01*
G01X21705948Y-1422981D01*
G01X21688930Y-1422981D01*
G01X21677500Y-1428569D01*
G01X21666070Y-1439999D01*
G01X21660228Y-1457271D01*
G01X21660228Y-1468701D01*
G01X21666070Y-1485719D01*
G01X21677500Y-1497149D01*
G01X21688930Y-1502991D01*
G01X21705948Y-1502991D01*
G01X21717378Y-1497149D01*
G01X21728808Y-1485719D01*
G01X21776560Y-1422981D02*
G01X21776560Y-1502991D01*
G01X21776560Y-1457271D02*
G01X21782402Y-1439999D01*
G01X21793832Y-1428569D01*
G01X21805262Y-1422981D01*
G01X21822280Y-1422981D01*
G01X7463297Y-1963420D02*
G01X7526289Y-1963420D01*
G01X7491999Y-2009140D01*
G01X7509017Y-2009140D01*
G01X7520447Y-2014982D01*
G01X7526289Y-2020570D01*
G01X7531877Y-2037842D01*
G01X7531877Y-2049272D01*
G01X7526289Y-2066290D01*
G01X7514859Y-2077720D01*
G01X7497587Y-2083562D01*
G01X7480569Y-2083562D01*
G01X7463297Y-2077720D01*
G01X7457709Y-2072132D01*
G01X7451867Y-2060702D01*
G01X8923180Y-1963420D02*
G01X8866030Y-2043430D01*
G01X8951882Y-2043430D01*
G01X8923180Y-1963420D02*
G01X8923180Y-2083562D01*
G01X9011064Y-1963420D02*
G01X9074056Y-1963420D01*
G01X9039766Y-2009140D01*
G01X9056784Y-2009140D01*
G01X9068214Y-2014982D01*
G01X9074056Y-2020570D01*
G01X9079644Y-2037842D01*
G01X9079644Y-2049272D01*
G01X9074056Y-2066290D01*
G01X9062626Y-2077720D01*
G01X9045354Y-2083562D01*
G01X9028336Y-2083562D01*
G01X9011064Y-2077720D01*
G01X9005476Y-2072132D01*
G01X8999634Y-2060702D01*
G01X9133238Y-2054860D02*
G01X9127396Y-2060702D01*
G01X9133238Y-2066290D01*
G01X9138826Y-2060702D01*
G01X9133238Y-2054860D01*
G01X9198008Y-1963420D02*
G01X9261000Y-1963420D01*
G01X9226710Y-2009140D01*
G01X9243728Y-2009140D01*
G01X9255158Y-2014982D01*
G01X9261000Y-2020570D01*
G01X9266588Y-2037842D01*
G01X9266588Y-2049272D01*
G01X9261000Y-2066290D01*
G01X9249570Y-2077720D01*
G01X9232298Y-2083562D01*
G01X9215280Y-2083562D01*
G01X9198008Y-2077720D01*
G01X9192420Y-2072132D01*
G01X9186578Y-2060702D01*
G01X9314340Y-2003552D02*
G01X9314340Y-2083562D01*
G01X9314340Y-2026412D02*
G01X9331612Y-2009140D01*
G01X9343042Y-2003552D01*
G01X9360060Y-2003552D01*
G01X9371490Y-2009140D01*
G01X9377332Y-2026412D01*
G01X9377332Y-2083562D01*
G01X9377332Y-2026412D02*
G01X9394350Y-2009140D01*
G01X9405780Y-2003552D01*
G01X9423052Y-2003552D01*
G01X9434482Y-2009140D01*
G01X9440070Y-2026412D01*
G01X9440070Y-2083562D01*
G01X9487822Y-1963420D02*
G01X9493664Y-1969262D01*
G01X9499252Y-1963420D01*
G01X9493664Y-1957832D01*
G01X9487822Y-1963420D01*
G01X9493664Y-2003552D02*
G01X9493664Y-2083562D01*
G01X9547004Y-1963420D02*
G01X9547004Y-2083562D01*
G01X9634888Y-1940560D02*
G01X9623458Y-1951990D01*
G01X9612028Y-1969262D01*
G01X9600598Y-1992122D01*
G01X9594756Y-2020570D01*
G01X9594756Y-2043430D01*
G01X9600598Y-2072132D01*
G01X9612028Y-2094992D01*
G01X9623458Y-2112010D01*
G01X9634888Y-2123440D01*
G01X9682640Y-1986280D02*
G01X9694070Y-1980692D01*
G01X9711342Y-1963420D01*
G01X9711342Y-2083562D01*
G01X9764936Y-2054860D02*
G01X9759094Y-2060702D01*
G01X9764936Y-2066290D01*
G01X9770524Y-2060702D01*
G01X9764936Y-2054860D01*
G01X9818276Y-1986280D02*
G01X9829706Y-1980692D01*
G01X9846978Y-1963420D01*
G01X9846978Y-2083562D01*
G01X9929020Y-1963420D02*
G01X9912002Y-1969262D01*
G01X9900572Y-1986280D01*
G01X9894730Y-2014982D01*
G01X9894730Y-2032000D01*
G01X9900572Y-2060702D01*
G01X9912002Y-2077720D01*
G01X9929020Y-2083562D01*
G01X9940450Y-2083562D01*
G01X9957722Y-2077720D01*
G01X9969152Y-2060702D01*
G01X9974740Y-2032000D01*
G01X9974740Y-2014982D01*
G01X9969152Y-1986280D01*
G01X9957722Y-1969262D01*
G01X9940450Y-1963420D01*
G01X9929020Y-1963420D01*
G01X10056782Y-1963420D02*
G01X10039764Y-1969262D01*
G01X10028334Y-1986280D01*
G01X10022492Y-2014982D01*
G01X10022492Y-2032000D01*
G01X10028334Y-2060702D01*
G01X10039764Y-2077720D01*
G01X10056782Y-2083562D01*
G01X10068212Y-2083562D01*
G01X10085484Y-2077720D01*
G01X10096914Y-2060702D01*
G01X10102502Y-2032000D01*
G01X10102502Y-2014982D01*
G01X10096914Y-1986280D01*
G01X10085484Y-1969262D01*
G01X10068212Y-1963420D01*
G01X10056782Y-1963420D01*
G01X10150254Y-2003552D02*
G01X10150254Y-2083562D01*
G01X10150254Y-2026412D02*
G01X10167526Y-2009140D01*
G01X10178956Y-2003552D01*
G01X10195974Y-2003552D01*
G01X10207404Y-2009140D01*
G01X10213246Y-2026412D01*
G01X10213246Y-2083562D01*
G01X10213246Y-2026412D02*
G01X10230264Y-2009140D01*
G01X10241694Y-2003552D01*
G01X10258966Y-2003552D01*
G01X10270396Y-2009140D01*
G01X10275984Y-2026412D01*
G01X10275984Y-2083562D01*
G01X10323736Y-2003552D02*
G01X10323736Y-2083562D01*
G01X10323736Y-2026412D02*
G01X10341008Y-2009140D01*
G01X10352438Y-2003552D01*
G01X10369456Y-2003552D01*
G01X10380886Y-2009140D01*
G01X10386728Y-2026412D01*
G01X10386728Y-2083562D01*
G01X10386728Y-2026412D02*
G01X10403746Y-2009140D01*
G01X10415176Y-2003552D01*
G01X10432448Y-2003552D01*
G01X10443878Y-2009140D01*
G01X10449466Y-2026412D01*
G01X10449466Y-2083562D01*
G01X10497218Y-1940560D02*
G01X10508648Y-1951990D01*
G01X10520078Y-1969262D01*
G01X10531508Y-1992122D01*
G01X10537350Y-2020570D01*
G01X10537350Y-2043430D01*
G01X10531508Y-2072132D01*
G01X10520078Y-2094992D01*
G01X10508648Y-2112010D01*
G01X10497218Y-2123440D01*
G01X12754153Y-1963420D02*
G01X12754153Y-2083562D01*
G01X12754153Y-1963420D02*
G01X12834163Y-2083562D01*
G01X12834163Y-1963420D02*
G01X12834163Y-2083562D01*
G01X12881915Y-1963420D02*
G01X12881915Y-2083562D01*
G01X12881915Y-1963420D02*
G01X12933477Y-1963420D01*
G01X12950495Y-1969262D01*
G01X12956337Y-1974850D01*
G01X12961925Y-1986280D01*
G01X12961925Y-2003552D01*
G01X12956337Y-2014982D01*
G01X12950495Y-2020570D01*
G01X12933477Y-2026412D01*
G01X12881915Y-2026412D01*
G01X13049809Y-1963420D02*
G01X13049809Y-2083562D01*
G01X13009677Y-1963420D02*
G01X13089687Y-1963420D01*
G01X13137439Y-1963420D02*
G01X13137439Y-2083562D01*
G01X13217449Y-1963420D02*
G01X13217449Y-2083562D01*
G01X13137439Y-2020570D02*
G01X13217449Y-2020570D01*
G01X14215560Y-1963420D02*
G01X14215560Y-2083562D01*
G01X14215560Y-1963420D02*
G01X14267122Y-1963420D01*
G01X14284140Y-1969262D01*
G01X14289982Y-1974850D01*
G01X14295570Y-1986280D01*
G01X14295570Y-1997710D01*
G01X14289982Y-2009140D01*
G01X14284140Y-2014982D01*
G01X14267122Y-2020570D01*
G01X14215560Y-2020570D01*
G01X14255692Y-2020570D02*
G01X14295570Y-2083562D01*
G01X14372024Y-2003552D02*
G01X14360594Y-2009140D01*
G01X14349164Y-2020570D01*
G01X14343322Y-2037842D01*
G01X14343322Y-2049272D01*
G01X14349164Y-2066290D01*
G01X14360594Y-2077720D01*
G01X14372024Y-2083562D01*
G01X14389042Y-2083562D01*
G01X14400472Y-2077720D01*
G01X14411902Y-2066290D01*
G01X14417744Y-2049272D01*
G01X14417744Y-2037842D01*
G01X14411902Y-2020570D01*
G01X14400472Y-2009140D01*
G01X14389042Y-2003552D01*
G01X14372024Y-2003552D01*
G01X14465496Y-2003552D02*
G01X14465496Y-2060702D01*
G01X14471338Y-2077720D01*
G01X14482768Y-2083562D01*
G01X14499786Y-2083562D01*
G01X14511216Y-2077720D01*
G01X14528488Y-2060702D01*
G01X14528488Y-2003552D02*
G01X14528488Y-2083562D01*
G01X14576240Y-2003552D02*
G01X14576240Y-2083562D01*
G01X14576240Y-2026412D02*
G01X14593512Y-2009140D01*
G01X14604942Y-2003552D01*
G01X14621960Y-2003552D01*
G01X14633390Y-2009140D01*
G01X14639232Y-2026412D01*
G01X14639232Y-2083562D01*
G01X14755564Y-1963420D02*
G01X14755564Y-2083562D01*
G01X14755564Y-2020570D02*
G01X14744134Y-2009140D01*
G01X14732704Y-2003552D01*
G01X14715686Y-2003552D01*
G01X14704256Y-2009140D01*
G01X14692826Y-2020570D01*
G01X14686984Y-2037842D01*
G01X14686984Y-2049272D01*
G01X14692826Y-2066290D01*
G01X14704256Y-2077720D01*
G01X14715686Y-2083562D01*
G01X14732704Y-2083562D01*
G01X14744134Y-2077720D01*
G01X14755564Y-2066290D01*
G01X15646741Y-1963420D02*
G01X15692461Y-2083562D01*
G01X15738181Y-1963420D02*
G01X15692461Y-2083562D01*
G01X15785933Y-1963420D02*
G01X15791775Y-1969262D01*
G01X15797363Y-1963420D01*
G01X15791775Y-1957832D01*
G01X15785933Y-1963420D01*
G01X15791775Y-2003552D02*
G01X15791775Y-2083562D01*
G01X15913695Y-2003552D02*
G01X15913695Y-2083562D01*
G01X15913695Y-2020570D02*
G01X15902265Y-2009140D01*
G01X15890835Y-2003552D01*
G01X15873817Y-2003552D01*
G01X15862387Y-2009140D01*
G01X15850957Y-2020570D01*
G01X15845115Y-2037842D01*
G01X15845115Y-2049272D01*
G01X15850957Y-2066290D01*
G01X15862387Y-2077720D01*
G01X15873817Y-2083562D01*
G01X15890835Y-2083562D01*
G01X15902265Y-2077720D01*
G01X15913695Y-2066290D01*
G01X19275422Y-1963420D02*
G01X19275422Y-2083562D01*
G01X19235290Y-1963420D02*
G01X19315300Y-1963420D01*
G01X19391754Y-2003552D02*
G01X19380324Y-2009140D01*
G01X19368894Y-2020570D01*
G01X19363052Y-2037842D01*
G01X19363052Y-2049272D01*
G01X19368894Y-2066290D01*
G01X19380324Y-2077720D01*
G01X19391754Y-2083562D01*
G01X19408772Y-2083562D01*
G01X19420202Y-2077720D01*
G01X19431632Y-2066290D01*
G01X19437474Y-2049272D01*
G01X19437474Y-2037842D01*
G01X19431632Y-2020570D01*
G01X19420202Y-2009140D01*
G01X19408772Y-2003552D01*
G01X19391754Y-2003552D01*
G01X19485226Y-2003552D02*
G01X19485226Y-2123440D01*
G01X19485226Y-2020570D02*
G01X19496656Y-2009140D01*
G01X19508086Y-2003552D01*
G01X19525358Y-2003552D01*
G01X19536788Y-2009140D01*
G01X19548218Y-2020570D01*
G01X19553806Y-2037842D01*
G01X19553806Y-2049272D01*
G01X19548218Y-2066290D01*
G01X19536788Y-2077720D01*
G01X19525358Y-2083562D01*
G01X19508086Y-2083562D01*
G01X19496656Y-2077720D01*
G01X19485226Y-2066290D01*
G01X19729574Y-1963420D02*
G01X19729574Y-2083562D01*
G01X19729574Y-2083562D02*
G01X19798154Y-2083562D01*
G01X19914486Y-2003552D02*
G01X19914486Y-2083562D01*
G01X19914486Y-2020570D02*
G01X19903056Y-2009140D01*
G01X19891626Y-2003552D01*
G01X19874608Y-2003552D01*
G01X19863178Y-2009140D01*
G01X19851748Y-2020570D01*
G01X19845906Y-2037842D01*
G01X19845906Y-2049272D01*
G01X19851748Y-2066290D01*
G01X19863178Y-2077720D01*
G01X19874608Y-2083562D01*
G01X19891626Y-2083562D01*
G01X19903056Y-2077720D01*
G01X19914486Y-2066290D01*
G01X19968080Y-2003552D02*
G01X20002370Y-2083562D01*
G01X20036660Y-2003552D02*
G01X20002370Y-2083562D01*
G01X19990940Y-2106422D01*
G01X19979510Y-2117852D01*
G01X19968080Y-2123440D01*
G01X19962238Y-2123440D01*
G01X20084412Y-2037842D02*
G01X20152992Y-2037842D01*
G01X20152992Y-2026412D01*
G01X20147404Y-2014982D01*
G01X20141562Y-2009140D01*
G01X20130132Y-2003552D01*
G01X20113114Y-2003552D01*
G01X20101684Y-2009140D01*
G01X20090254Y-2020570D01*
G01X20084412Y-2037842D01*
G01X20084412Y-2049272D01*
G01X20090254Y-2066290D01*
G01X20101684Y-2077720D01*
G01X20113114Y-2083562D01*
G01X20130132Y-2083562D01*
G01X20141562Y-2077720D01*
G01X20152992Y-2066290D01*
G01X20200744Y-2003552D02*
G01X20200744Y-2083562D01*
G01X20200744Y-2037842D02*
G01X20206586Y-2020570D01*
G01X20218016Y-2009140D01*
G01X20229446Y-2003552D01*
G01X20246464Y-2003552D01*
G01X20294216Y-2032000D02*
G01X20397086Y-2032000D01*
G01X20444838Y-1963420D02*
G01X20444838Y-2083562D01*
G01X20444838Y-1963420D02*
G01X20496400Y-1963420D01*
G01X20513418Y-1969262D01*
G01X20519260Y-1974850D01*
G01X20524848Y-1986280D01*
G01X20524848Y-1997710D01*
G01X20519260Y-2009140D01*
G01X20513418Y-2014982D01*
G01X20496400Y-2020570D01*
G01X20444838Y-2020570D02*
G01X20496400Y-2020570D01*
G01X20513418Y-2026412D01*
G01X20519260Y-2032000D01*
G01X20524848Y-2043430D01*
G01X20524848Y-2060702D01*
G01X20519260Y-2072132D01*
G01X20513418Y-2077720D01*
G01X20496400Y-2083562D01*
G01X20444838Y-2083562D01*
G01X20601302Y-2003552D02*
G01X20589872Y-2009140D01*
G01X20578442Y-2020570D01*
G01X20572600Y-2037842D01*
G01X20572600Y-2049272D01*
G01X20578442Y-2066290D01*
G01X20589872Y-2077720D01*
G01X20601302Y-2083562D01*
G01X20618320Y-2083562D01*
G01X20629750Y-2077720D01*
G01X20641180Y-2066290D01*
G01X20647022Y-2049272D01*
G01X20647022Y-2037842D01*
G01X20641180Y-2020570D01*
G01X20629750Y-2009140D01*
G01X20618320Y-2003552D01*
G01X20601302Y-2003552D01*
G01X20712046Y-1963420D02*
G01X20712046Y-2060702D01*
G01X20717634Y-2077720D01*
G01X20729064Y-2083562D01*
G01X20740494Y-2083562D01*
G01X20694774Y-2003552D02*
G01X20734906Y-2003552D01*
G01X20805518Y-1963420D02*
G01X20805518Y-2060702D01*
G01X20811106Y-2077720D01*
G01X20822536Y-2083562D01*
G01X20833966Y-2083562D01*
G01X20788246Y-2003552D02*
G01X20828378Y-2003552D01*
G01X20910420Y-2003552D02*
G01X20898990Y-2009140D01*
G01X20887560Y-2020570D01*
G01X20881718Y-2037842D01*
G01X20881718Y-2049272D01*
G01X20887560Y-2066290D01*
G01X20898990Y-2077720D01*
G01X20910420Y-2083562D01*
G01X20927438Y-2083562D01*
G01X20938868Y-2077720D01*
G01X20950298Y-2066290D01*
G01X20956140Y-2049272D01*
G01X20956140Y-2037842D01*
G01X20950298Y-2020570D01*
G01X20938868Y-2009140D01*
G01X20927438Y-2003552D01*
G01X20910420Y-2003552D01*
G01X21003892Y-2003552D02*
G01X21003892Y-2083562D01*
G01X21003892Y-2026412D02*
G01X21021164Y-2009140D01*
G01X21032594Y-2003552D01*
G01X21049612Y-2003552D01*
G01X21061042Y-2009140D01*
G01X21066884Y-2026412D01*
G01X21066884Y-2083562D01*
G01X21066884Y-2026412D02*
G01X21083902Y-2009140D01*
G01X21095332Y-2003552D01*
G01X21112604Y-2003552D01*
G01X21124034Y-2009140D01*
G01X21129622Y-2026412D01*
G01X21129622Y-2083562D01*
G01X21305390Y-1963420D02*
G01X21305390Y-2083562D01*
G01X21305390Y-2083562D02*
G01X21373970Y-2083562D01*
G01X21490302Y-2003552D02*
G01X21490302Y-2083562D01*
G01X21490302Y-2020570D02*
G01X21478872Y-2009140D01*
G01X21467442Y-2003552D01*
G01X21450424Y-2003552D01*
G01X21438994Y-2009140D01*
G01X21427564Y-2020570D01*
G01X21421722Y-2037842D01*
G01X21421722Y-2049272D01*
G01X21427564Y-2066290D01*
G01X21438994Y-2077720D01*
G01X21450424Y-2083562D01*
G01X21467442Y-2083562D01*
G01X21478872Y-2077720D01*
G01X21490302Y-2066290D01*
G01X21543896Y-2003552D02*
G01X21578186Y-2083562D01*
G01X21612476Y-2003552D02*
G01X21578186Y-2083562D01*
G01X21566756Y-2106422D01*
G01X21555326Y-2117852D01*
G01X21543896Y-2123440D01*
G01X21538054Y-2123440D01*
G01X21660228Y-2037842D02*
G01X21728808Y-2037842D01*
G01X21728808Y-2026412D01*
G01X21723220Y-2014982D01*
G01X21717378Y-2009140D01*
G01X21705948Y-2003552D01*
G01X21688930Y-2003552D01*
G01X21677500Y-2009140D01*
G01X21666070Y-2020570D01*
G01X21660228Y-2037842D01*
G01X21660228Y-2049272D01*
G01X21666070Y-2066290D01*
G01X21677500Y-2077720D01*
G01X21688930Y-2083562D01*
G01X21705948Y-2083562D01*
G01X21717378Y-2077720D01*
G01X21728808Y-2066290D01*
G01X21776560Y-2003552D02*
G01X21776560Y-2083562D01*
G01X21776560Y-2037842D02*
G01X21782402Y-2020570D01*
G01X21793832Y-2009140D01*
G01X21805262Y-2003552D01*
G01X21822280Y-2003552D01*
G01X7509017Y-2543991D02*
G01X7451867Y-2624001D01*
G01X7537719Y-2624001D01*
G01X7509017Y-2543991D02*
G01X7509017Y-2664133D01*
G01X8871872Y-2572693D02*
G01X8871872Y-2566851D01*
G01X8877460Y-2555421D01*
G01X8883302Y-2549833D01*
G01X8894732Y-2543991D01*
G01X8917592Y-2543991D01*
G01X8929022Y-2549833D01*
G01X8934610Y-2555421D01*
G01X8940452Y-2566851D01*
G01X8940452Y-2578281D01*
G01X8934610Y-2589711D01*
G01X8923180Y-2606983D01*
G01X8866030Y-2664133D01*
G01X8946040Y-2664133D01*
G01X9073802Y-2543991D02*
G01X9016652Y-2664133D01*
G01X8993792Y-2543991D02*
G01X9073802Y-2543991D01*
G01X9127396Y-2635431D02*
G01X9121554Y-2641273D01*
G01X9127396Y-2646861D01*
G01X9132984Y-2641273D01*
G01X9127396Y-2635431D01*
G01X9249316Y-2561263D02*
G01X9243728Y-2549833D01*
G01X9226456Y-2543991D01*
G01X9215026Y-2543991D01*
G01X9198008Y-2549833D01*
G01X9186578Y-2566851D01*
G01X9180736Y-2595553D01*
G01X9180736Y-2624001D01*
G01X9186578Y-2646861D01*
G01X9198008Y-2658291D01*
G01X9215026Y-2664133D01*
G01X9220868Y-2664133D01*
G01X9237886Y-2658291D01*
G01X9249316Y-2646861D01*
G01X9255158Y-2629843D01*
G01X9255158Y-2624001D01*
G01X9249316Y-2606983D01*
G01X9237886Y-2595553D01*
G01X9220868Y-2589711D01*
G01X9215026Y-2589711D01*
G01X9198008Y-2595553D01*
G01X9186578Y-2606983D01*
G01X9180736Y-2624001D01*
G01X9302910Y-2584123D02*
G01X9365902Y-2664133D01*
G01X9365902Y-2584123D02*
G01X9302910Y-2664133D01*
G01X9488076Y-2584123D02*
G01X9482234Y-2601141D01*
G01X9470804Y-2612571D01*
G01X9453786Y-2618413D01*
G01X9447944Y-2618413D01*
G01X9430926Y-2612571D01*
G01X9419496Y-2601141D01*
G01X9413654Y-2584123D01*
G01X9413654Y-2578281D01*
G01X9419496Y-2561263D01*
G01X9430926Y-2549833D01*
G01X9447944Y-2543991D01*
G01X9453786Y-2543991D01*
G01X9470804Y-2549833D01*
G01X9482234Y-2561263D01*
G01X9488076Y-2584123D01*
G01X9488076Y-2612571D01*
G01X9482234Y-2641273D01*
G01X9470804Y-2658291D01*
G01X9453786Y-2664133D01*
G01X9442356Y-2664133D01*
G01X9425084Y-2658291D01*
G01X9419496Y-2646861D01*
G01X9564530Y-2543991D02*
G01X9547258Y-2549833D01*
G01X9541670Y-2561263D01*
G01X9541670Y-2572693D01*
G01X9547258Y-2584123D01*
G01X9558688Y-2589711D01*
G01X9581548Y-2595553D01*
G01X9598820Y-2601141D01*
G01X9610250Y-2612571D01*
G01X9615838Y-2624001D01*
G01X9615838Y-2641273D01*
G01X9610250Y-2652703D01*
G01X9604408Y-2658291D01*
G01X9587390Y-2664133D01*
G01X9564530Y-2664133D01*
G01X9547258Y-2658291D01*
G01X9541670Y-2652703D01*
G01X9535828Y-2641273D01*
G01X9535828Y-2624001D01*
G01X9541670Y-2612571D01*
G01X9553100Y-2601141D01*
G01X9570118Y-2595553D01*
G01X9592978Y-2589711D01*
G01X9604408Y-2584123D01*
G01X9610250Y-2572693D01*
G01X9610250Y-2561263D01*
G01X9604408Y-2549833D01*
G01X9587390Y-2543991D01*
G01X9564530Y-2543991D01*
G01X9669432Y-2635431D02*
G01X9663590Y-2641273D01*
G01X9669432Y-2646861D01*
G01X9675020Y-2641273D01*
G01X9669432Y-2635431D01*
G01X9779922Y-2543991D02*
G01X9722772Y-2624001D01*
G01X9808624Y-2624001D01*
G01X9779922Y-2543991D02*
G01X9779922Y-2664133D01*
G01X9856376Y-2584123D02*
G01X9856376Y-2664133D01*
G01X9856376Y-2606983D02*
G01X9873648Y-2589711D01*
G01X9885078Y-2584123D01*
G01X9902096Y-2584123D01*
G01X9913526Y-2589711D01*
G01X9919368Y-2606983D01*
G01X9919368Y-2664133D01*
G01X9919368Y-2606983D02*
G01X9936386Y-2589711D01*
G01X9947816Y-2584123D01*
G01X9965088Y-2584123D01*
G01X9976518Y-2589711D01*
G01X9982106Y-2606983D01*
G01X9982106Y-2664133D01*
G01X10029858Y-2543991D02*
G01X10035700Y-2549833D01*
G01X10041288Y-2543991D01*
G01X10035700Y-2538403D01*
G01X10029858Y-2543991D01*
G01X10035700Y-2584123D02*
G01X10035700Y-2664133D01*
G01X10089040Y-2543991D02*
G01X10089040Y-2664133D01*
G01X10176924Y-2521131D02*
G01X10165494Y-2532561D01*
G01X10154064Y-2549833D01*
G01X10142634Y-2572693D01*
G01X10136792Y-2601141D01*
G01X10136792Y-2624001D01*
G01X10142634Y-2652703D01*
G01X10154064Y-2675563D01*
G01X10165494Y-2692581D01*
G01X10176924Y-2704011D01*
G01X10258966Y-2543991D02*
G01X10241948Y-2549833D01*
G01X10230518Y-2566851D01*
G01X10224676Y-2595553D01*
G01X10224676Y-2612571D01*
G01X10230518Y-2641273D01*
G01X10241948Y-2658291D01*
G01X10258966Y-2664133D01*
G01X10270396Y-2664133D01*
G01X10287668Y-2658291D01*
G01X10299098Y-2641273D01*
G01X10304686Y-2612571D01*
G01X10304686Y-2595553D01*
G01X10299098Y-2566851D01*
G01X10287668Y-2549833D01*
G01X10270396Y-2543991D01*
G01X10258966Y-2543991D01*
G01X10358280Y-2635431D02*
G01X10352438Y-2641273D01*
G01X10358280Y-2646861D01*
G01X10363868Y-2641273D01*
G01X10358280Y-2635431D01*
G01X10491630Y-2543991D02*
G01X10434480Y-2664133D01*
G01X10411620Y-2543991D02*
G01X10491630Y-2543991D01*
G01X10573672Y-2543991D02*
G01X10556654Y-2549833D01*
G01X10545224Y-2566851D01*
G01X10539382Y-2595553D01*
G01X10539382Y-2612571D01*
G01X10545224Y-2641273D01*
G01X10556654Y-2658291D01*
G01X10573672Y-2664133D01*
G01X10585102Y-2664133D01*
G01X10602374Y-2658291D01*
G01X10613804Y-2641273D01*
G01X10619392Y-2612571D01*
G01X10619392Y-2595553D01*
G01X10613804Y-2566851D01*
G01X10602374Y-2549833D01*
G01X10585102Y-2543991D01*
G01X10573672Y-2543991D01*
G01X10701434Y-2543991D02*
G01X10684416Y-2549833D01*
G01X10672986Y-2566851D01*
G01X10667144Y-2595553D01*
G01X10667144Y-2612571D01*
G01X10672986Y-2641273D01*
G01X10684416Y-2658291D01*
G01X10701434Y-2664133D01*
G01X10712864Y-2664133D01*
G01X10730136Y-2658291D01*
G01X10741566Y-2641273D01*
G01X10747154Y-2612571D01*
G01X10747154Y-2595553D01*
G01X10741566Y-2566851D01*
G01X10730136Y-2549833D01*
G01X10712864Y-2543991D01*
G01X10701434Y-2543991D01*
G01X10794906Y-2584123D02*
G01X10857898Y-2664133D01*
G01X10857898Y-2584123D02*
G01X10794906Y-2664133D01*
G01X10911492Y-2572693D02*
G01X10911492Y-2566851D01*
G01X10917080Y-2555421D01*
G01X10922922Y-2549833D01*
G01X10934352Y-2543991D01*
G01X10957212Y-2543991D01*
G01X10968642Y-2549833D01*
G01X10974230Y-2555421D01*
G01X10980072Y-2566851D01*
G01X10980072Y-2578281D01*
G01X10974230Y-2589711D01*
G01X10962800Y-2606983D01*
G01X10905650Y-2664133D01*
G01X10985660Y-2664133D01*
G01X11039254Y-2635431D02*
G01X11033412Y-2641273D01*
G01X11039254Y-2646861D01*
G01X11044842Y-2641273D01*
G01X11039254Y-2635431D01*
G01X11161174Y-2543991D02*
G01X11104024Y-2543991D01*
G01X11098436Y-2595553D01*
G01X11104024Y-2589711D01*
G01X11121296Y-2584123D01*
G01X11138314Y-2584123D01*
G01X11155586Y-2589711D01*
G01X11167016Y-2601141D01*
G01X11172604Y-2618413D01*
G01X11172604Y-2629843D01*
G01X11167016Y-2646861D01*
G01X11155586Y-2658291D01*
G01X11138314Y-2664133D01*
G01X11121296Y-2664133D01*
G01X11104024Y-2658291D01*
G01X11098436Y-2652703D01*
G01X11092594Y-2641273D01*
G01X11254646Y-2543991D02*
G01X11237628Y-2549833D01*
G01X11226198Y-2566851D01*
G01X11220356Y-2595553D01*
G01X11220356Y-2612571D01*
G01X11226198Y-2641273D01*
G01X11237628Y-2658291D01*
G01X11254646Y-2664133D01*
G01X11266076Y-2664133D01*
G01X11283348Y-2658291D01*
G01X11294778Y-2641273D01*
G01X11300366Y-2612571D01*
G01X11300366Y-2595553D01*
G01X11294778Y-2566851D01*
G01X11283348Y-2549833D01*
G01X11266076Y-2543991D01*
G01X11254646Y-2543991D01*
G01X11382408Y-2543991D02*
G01X11365390Y-2549833D01*
G01X11353960Y-2566851D01*
G01X11348118Y-2595553D01*
G01X11348118Y-2612571D01*
G01X11353960Y-2641273D01*
G01X11365390Y-2658291D01*
G01X11382408Y-2664133D01*
G01X11393838Y-2664133D01*
G01X11411110Y-2658291D01*
G01X11422540Y-2641273D01*
G01X11428128Y-2612571D01*
G01X11428128Y-2595553D01*
G01X11422540Y-2566851D01*
G01X11411110Y-2549833D01*
G01X11393838Y-2543991D01*
G01X11382408Y-2543991D01*
G01X11475880Y-2584123D02*
G01X11475880Y-2664133D01*
G01X11475880Y-2606983D02*
G01X11493152Y-2589711D01*
G01X11504582Y-2584123D01*
G01X11521600Y-2584123D01*
G01X11533030Y-2589711D01*
G01X11538872Y-2606983D01*
G01X11538872Y-2664133D01*
G01X11538872Y-2606983D02*
G01X11555890Y-2589711D01*
G01X11567320Y-2584123D01*
G01X11584592Y-2584123D01*
G01X11596022Y-2589711D01*
G01X11601610Y-2606983D01*
G01X11601610Y-2664133D01*
G01X11649362Y-2584123D02*
G01X11649362Y-2664133D01*
G01X11649362Y-2606983D02*
G01X11666634Y-2589711D01*
G01X11678064Y-2584123D01*
G01X11695082Y-2584123D01*
G01X11706512Y-2589711D01*
G01X11712354Y-2606983D01*
G01X11712354Y-2664133D01*
G01X11712354Y-2606983D02*
G01X11729372Y-2589711D01*
G01X11740802Y-2584123D01*
G01X11758074Y-2584123D01*
G01X11769504Y-2589711D01*
G01X11775092Y-2606983D01*
G01X11775092Y-2664133D01*
G01X11822844Y-2521131D02*
G01X11834274Y-2532561D01*
G01X11845704Y-2549833D01*
G01X11857134Y-2572693D01*
G01X11862976Y-2601141D01*
G01X11862976Y-2624001D01*
G01X11857134Y-2652703D01*
G01X11845704Y-2675563D01*
G01X11834274Y-2692581D01*
G01X11822844Y-2704011D01*
G01X12754153Y-2543991D02*
G01X12754153Y-2664133D01*
G01X12754153Y-2543991D02*
G01X12805715Y-2543991D01*
G01X12822733Y-2549833D01*
G01X12828575Y-2555421D01*
G01X12834163Y-2566851D01*
G01X12834163Y-2584123D01*
G01X12828575Y-2595553D01*
G01X12822733Y-2601141D01*
G01X12805715Y-2606983D01*
G01X12754153Y-2606983D01*
G01X12922047Y-2543991D02*
G01X12922047Y-2664133D01*
G01X12881915Y-2543991D02*
G01X12961925Y-2543991D01*
G01X13009677Y-2543991D02*
G01X13009677Y-2664133D01*
G01X13089687Y-2543991D02*
G01X13089687Y-2664133D01*
G01X13009677Y-2601141D02*
G01X13089687Y-2601141D01*
G01X14295570Y-2561263D02*
G01X14284140Y-2549833D01*
G01X14267122Y-2543991D01*
G01X14244262Y-2543991D01*
G01X14226990Y-2549833D01*
G01X14215560Y-2561263D01*
G01X14215560Y-2572693D01*
G01X14221402Y-2584123D01*
G01X14226990Y-2589711D01*
G01X14238420Y-2595553D01*
G01X14272710Y-2606983D01*
G01X14284140Y-2612571D01*
G01X14289982Y-2618413D01*
G01X14295570Y-2629843D01*
G01X14295570Y-2646861D01*
G01X14284140Y-2658291D01*
G01X14267122Y-2664133D01*
G01X14244262Y-2664133D01*
G01X14226990Y-2658291D01*
G01X14215560Y-2646861D01*
G01X14343322Y-2543991D02*
G01X14343322Y-2664133D01*
G01X14419776Y-2584123D02*
G01X14408346Y-2589711D01*
G01X14396916Y-2601141D01*
G01X14391074Y-2618413D01*
G01X14391074Y-2629843D01*
G01X14396916Y-2646861D01*
G01X14408346Y-2658291D01*
G01X14419776Y-2664133D01*
G01X14436794Y-2664133D01*
G01X14448224Y-2658291D01*
G01X14459654Y-2646861D01*
G01X14465496Y-2629843D01*
G01X14465496Y-2618413D01*
G01X14459654Y-2601141D01*
G01X14448224Y-2589711D01*
G01X14436794Y-2584123D01*
G01X14419776Y-2584123D01*
G01X14530520Y-2543991D02*
G01X14530520Y-2641273D01*
G01X14536108Y-2658291D01*
G01X14547538Y-2664133D01*
G01X14558968Y-2664133D01*
G01X14513248Y-2584123D02*
G01X14553380Y-2584123D01*
G01X15646741Y-2543991D02*
G01X15646741Y-2664133D01*
G01X15646741Y-2543991D02*
G01X15698303Y-2543991D01*
G01X15715321Y-2549833D01*
G01X15721163Y-2555421D01*
G01X15726751Y-2566851D01*
G01X15726751Y-2584123D01*
G01X15721163Y-2595553D01*
G01X15715321Y-2601141D01*
G01X15698303Y-2606983D01*
G01X15646741Y-2606983D01*
G01X15843083Y-2584123D02*
G01X15843083Y-2664133D01*
G01X15843083Y-2601141D02*
G01X15831653Y-2589711D01*
G01X15820223Y-2584123D01*
G01X15803205Y-2584123D01*
G01X15791775Y-2589711D01*
G01X15780345Y-2601141D01*
G01X15774503Y-2618413D01*
G01X15774503Y-2629843D01*
G01X15780345Y-2646861D01*
G01X15791775Y-2658291D01*
G01X15803205Y-2664133D01*
G01X15820223Y-2664133D01*
G01X15831653Y-2658291D01*
G01X15843083Y-2646861D01*
G01X15959415Y-2543991D02*
G01X15959415Y-2664133D01*
G01X15959415Y-2601141D02*
G01X15947985Y-2589711D01*
G01X15936555Y-2584123D01*
G01X15919537Y-2584123D01*
G01X15908107Y-2589711D01*
G01X15896677Y-2601141D01*
G01X15890835Y-2618413D01*
G01X15890835Y-2629843D01*
G01X15896677Y-2646861D01*
G01X15908107Y-2658291D01*
G01X15919537Y-2664133D01*
G01X15936555Y-2664133D01*
G01X15947985Y-2658291D01*
G01X15959415Y-2646861D01*
G01X17350211Y-2543991D02*
G01X17338781Y-2549833D01*
G01X17327351Y-2561263D01*
G01X17321763Y-2572693D01*
G01X17315921Y-2589711D01*
G01X17315921Y-2618413D01*
G01X17321763Y-2635431D01*
G01X17327351Y-2646861D01*
G01X17338781Y-2658291D01*
G01X17350211Y-2664133D01*
G01X17373071Y-2664133D01*
G01X17384501Y-2658291D01*
G01X17395931Y-2646861D01*
G01X17401773Y-2635431D01*
G01X17407361Y-2618413D01*
G01X17407361Y-2589711D01*
G01X17401773Y-2572693D01*
G01X17395931Y-2561263D01*
G01X17384501Y-2549833D01*
G01X17373071Y-2543991D01*
G01X17350211Y-2543991D01*
G01X17455113Y-2584123D02*
G01X17489403Y-2664133D01*
G01X17523693Y-2584123D02*
G01X17489403Y-2664133D01*
G01X17640025Y-2584123D02*
G01X17640025Y-2664133D01*
G01X17640025Y-2601141D02*
G01X17628595Y-2589711D01*
G01X17617165Y-2584123D01*
G01X17600147Y-2584123D01*
G01X17588717Y-2589711D01*
G01X17577287Y-2601141D01*
G01X17571445Y-2618413D01*
G01X17571445Y-2629843D01*
G01X17577287Y-2646861D01*
G01X17588717Y-2658291D01*
G01X17600147Y-2664133D01*
G01X17617165Y-2664133D01*
G01X17628595Y-2658291D01*
G01X17640025Y-2646861D01*
G01X17687777Y-2543991D02*
G01X17687777Y-2664133D01*
G01X19275422Y-2543991D02*
G01X19275422Y-2664133D01*
G01X19235290Y-2543991D02*
G01X19315300Y-2543991D01*
G01X19391754Y-2584123D02*
G01X19380324Y-2589711D01*
G01X19368894Y-2601141D01*
G01X19363052Y-2618413D01*
G01X19363052Y-2629843D01*
G01X19368894Y-2646861D01*
G01X19380324Y-2658291D01*
G01X19391754Y-2664133D01*
G01X19408772Y-2664133D01*
G01X19420202Y-2658291D01*
G01X19431632Y-2646861D01*
G01X19437474Y-2629843D01*
G01X19437474Y-2618413D01*
G01X19431632Y-2601141D01*
G01X19420202Y-2589711D01*
G01X19408772Y-2584123D01*
G01X19391754Y-2584123D01*
G01X19485226Y-2584123D02*
G01X19485226Y-2704011D01*
G01X19485226Y-2601141D02*
G01X19496656Y-2589711D01*
G01X19508086Y-2584123D01*
G01X19525358Y-2584123D01*
G01X19536788Y-2589711D01*
G01X19548218Y-2601141D01*
G01X19553806Y-2618413D01*
G01X19553806Y-2629843D01*
G01X19548218Y-2646861D01*
G01X19536788Y-2658291D01*
G01X19525358Y-2664133D01*
G01X19508086Y-2664133D01*
G01X19496656Y-2658291D01*
G01X19485226Y-2646861D01*
G01X19729574Y-2543991D02*
G01X19729574Y-2664133D01*
G01X19729574Y-2664133D02*
G01X19798154Y-2664133D01*
G01X19914486Y-2584123D02*
G01X19914486Y-2664133D01*
G01X19914486Y-2601141D02*
G01X19903056Y-2589711D01*
G01X19891626Y-2584123D01*
G01X19874608Y-2584123D01*
G01X19863178Y-2589711D01*
G01X19851748Y-2601141D01*
G01X19845906Y-2618413D01*
G01X19845906Y-2629843D01*
G01X19851748Y-2646861D01*
G01X19863178Y-2658291D01*
G01X19874608Y-2664133D01*
G01X19891626Y-2664133D01*
G01X19903056Y-2658291D01*
G01X19914486Y-2646861D01*
G01X19968080Y-2584123D02*
G01X20002370Y-2664133D01*
G01X20036660Y-2584123D02*
G01X20002370Y-2664133D01*
G01X19990940Y-2686993D01*
G01X19979510Y-2698423D01*
G01X19968080Y-2704011D01*
G01X19962238Y-2704011D01*
G01X20084412Y-2618413D02*
G01X20152992Y-2618413D01*
G01X20152992Y-2606983D01*
G01X20147404Y-2595553D01*
G01X20141562Y-2589711D01*
G01X20130132Y-2584123D01*
G01X20113114Y-2584123D01*
G01X20101684Y-2589711D01*
G01X20090254Y-2601141D01*
G01X20084412Y-2618413D01*
G01X20084412Y-2629843D01*
G01X20090254Y-2646861D01*
G01X20101684Y-2658291D01*
G01X20113114Y-2664133D01*
G01X20130132Y-2664133D01*
G01X20141562Y-2658291D01*
G01X20152992Y-2646861D01*
G01X20200744Y-2584123D02*
G01X20200744Y-2664133D01*
G01X20200744Y-2618413D02*
G01X20206586Y-2601141D01*
G01X20218016Y-2589711D01*
G01X20229446Y-2584123D01*
G01X20246464Y-2584123D01*
G01X20294216Y-2612571D02*
G01X20397086Y-2612571D01*
G01X20444838Y-2543991D02*
G01X20444838Y-2664133D01*
G01X20444838Y-2543991D02*
G01X20496400Y-2543991D01*
G01X20513418Y-2549833D01*
G01X20519260Y-2555421D01*
G01X20524848Y-2566851D01*
G01X20524848Y-2578281D01*
G01X20519260Y-2589711D01*
G01X20513418Y-2595553D01*
G01X20496400Y-2601141D01*
G01X20444838Y-2601141D02*
G01X20496400Y-2601141D01*
G01X20513418Y-2606983D01*
G01X20519260Y-2612571D01*
G01X20524848Y-2624001D01*
G01X20524848Y-2641273D01*
G01X20519260Y-2652703D01*
G01X20513418Y-2658291D01*
G01X20496400Y-2664133D01*
G01X20444838Y-2664133D01*
G01X20601302Y-2584123D02*
G01X20589872Y-2589711D01*
G01X20578442Y-2601141D01*
G01X20572600Y-2618413D01*
G01X20572600Y-2629843D01*
G01X20578442Y-2646861D01*
G01X20589872Y-2658291D01*
G01X20601302Y-2664133D01*
G01X20618320Y-2664133D01*
G01X20629750Y-2658291D01*
G01X20641180Y-2646861D01*
G01X20647022Y-2629843D01*
G01X20647022Y-2618413D01*
G01X20641180Y-2601141D01*
G01X20629750Y-2589711D01*
G01X20618320Y-2584123D01*
G01X20601302Y-2584123D01*
G01X20712046Y-2543991D02*
G01X20712046Y-2641273D01*
G01X20717634Y-2658291D01*
G01X20729064Y-2664133D01*
G01X20740494Y-2664133D01*
G01X20694774Y-2584123D02*
G01X20734906Y-2584123D01*
G01X20805518Y-2543991D02*
G01X20805518Y-2641273D01*
G01X20811106Y-2658291D01*
G01X20822536Y-2664133D01*
G01X20833966Y-2664133D01*
G01X20788246Y-2584123D02*
G01X20828378Y-2584123D01*
G01X20910420Y-2584123D02*
G01X20898990Y-2589711D01*
G01X20887560Y-2601141D01*
G01X20881718Y-2618413D01*
G01X20881718Y-2629843D01*
G01X20887560Y-2646861D01*
G01X20898990Y-2658291D01*
G01X20910420Y-2664133D01*
G01X20927438Y-2664133D01*
G01X20938868Y-2658291D01*
G01X20950298Y-2646861D01*
G01X20956140Y-2629843D01*
G01X20956140Y-2618413D01*
G01X20950298Y-2601141D01*
G01X20938868Y-2589711D01*
G01X20927438Y-2584123D01*
G01X20910420Y-2584123D01*
G01X21003892Y-2584123D02*
G01X21003892Y-2664133D01*
G01X21003892Y-2606983D02*
G01X21021164Y-2589711D01*
G01X21032594Y-2584123D01*
G01X21049612Y-2584123D01*
G01X21061042Y-2589711D01*
G01X21066884Y-2606983D01*
G01X21066884Y-2664133D01*
G01X21066884Y-2606983D02*
G01X21083902Y-2589711D01*
G01X21095332Y-2584123D01*
G01X21112604Y-2584123D01*
G01X21124034Y-2589711D01*
G01X21129622Y-2606983D01*
G01X21129622Y-2664133D01*
G01X21305390Y-2543991D02*
G01X21305390Y-2664133D01*
G01X21305390Y-2664133D02*
G01X21373970Y-2664133D01*
G01X21490302Y-2584123D02*
G01X21490302Y-2664133D01*
G01X21490302Y-2601141D02*
G01X21478872Y-2589711D01*
G01X21467442Y-2584123D01*
G01X21450424Y-2584123D01*
G01X21438994Y-2589711D01*
G01X21427564Y-2601141D01*
G01X21421722Y-2618413D01*
G01X21421722Y-2629843D01*
G01X21427564Y-2646861D01*
G01X21438994Y-2658291D01*
G01X21450424Y-2664133D01*
G01X21467442Y-2664133D01*
G01X21478872Y-2658291D01*
G01X21490302Y-2646861D01*
G01X21543896Y-2584123D02*
G01X21578186Y-2664133D01*
G01X21612476Y-2584123D02*
G01X21578186Y-2664133D01*
G01X21566756Y-2686993D01*
G01X21555326Y-2698423D01*
G01X21543896Y-2704011D01*
G01X21538054Y-2704011D01*
G01X21660228Y-2618413D02*
G01X21728808Y-2618413D01*
G01X21728808Y-2606983D01*
G01X21723220Y-2595553D01*
G01X21717378Y-2589711D01*
G01X21705948Y-2584123D01*
G01X21688930Y-2584123D01*
G01X21677500Y-2589711D01*
G01X21666070Y-2601141D01*
G01X21660228Y-2618413D01*
G01X21660228Y-2629843D01*
G01X21666070Y-2646861D01*
G01X21677500Y-2658291D01*
G01X21688930Y-2664133D01*
G01X21705948Y-2664133D01*
G01X21717378Y-2658291D01*
G01X21728808Y-2646861D01*
G01X21776560Y-2584123D02*
G01X21776560Y-2664133D01*
G01X21776560Y-2618413D02*
G01X21782402Y-2601141D01*
G01X21793832Y-2589711D01*
G01X21805262Y-2584123D01*
G01X21822280Y-2584123D01*
G01X7520447Y-3141835D02*
G01X7514859Y-3130405D01*
G01X7497587Y-3124563D01*
G01X7486157Y-3124563D01*
G01X7469139Y-3130405D01*
G01X7457709Y-3147423D01*
G01X7451867Y-3176125D01*
G01X7451867Y-3204573D01*
G01X7457709Y-3227433D01*
G01X7469139Y-3238863D01*
G01X7486157Y-3244705D01*
G01X7491999Y-3244705D01*
G01X7509017Y-3238863D01*
G01X7520447Y-3227433D01*
G01X7526289Y-3210415D01*
G01X7526289Y-3204573D01*
G01X7520447Y-3187555D01*
G01X7509017Y-3176125D01*
G01X7491999Y-3170283D01*
G01X7486157Y-3170283D01*
G01X7469139Y-3176125D01*
G01X7457709Y-3187555D01*
G01X7451867Y-3204573D01*
G01X8871872Y-3153265D02*
G01X8871872Y-3147423D01*
G01X8877460Y-3135993D01*
G01X8883302Y-3130405D01*
G01X8894732Y-3124563D01*
G01X8917592Y-3124563D01*
G01X8929022Y-3130405D01*
G01X8934610Y-3135993D01*
G01X8940452Y-3147423D01*
G01X8940452Y-3158853D01*
G01X8934610Y-3170283D01*
G01X8923180Y-3187555D01*
G01X8866030Y-3244705D01*
G01X8946040Y-3244705D01*
G01X9005222Y-3124563D02*
G01X9068214Y-3124563D01*
G01X9033924Y-3170283D01*
G01X9050942Y-3170283D01*
G01X9062372Y-3176125D01*
G01X9068214Y-3181713D01*
G01X9073802Y-3198985D01*
G01X9073802Y-3210415D01*
G01X9068214Y-3227433D01*
G01X9056784Y-3238863D01*
G01X9039512Y-3244705D01*
G01X9022494Y-3244705D01*
G01X9005222Y-3238863D01*
G01X8999634Y-3233275D01*
G01X8993792Y-3221845D01*
G01X9127396Y-3216003D02*
G01X9121554Y-3221845D01*
G01X9127396Y-3227433D01*
G01X9132984Y-3221845D01*
G01X9127396Y-3216003D01*
G01X9249316Y-3141835D02*
G01X9243728Y-3130405D01*
G01X9226456Y-3124563D01*
G01X9215026Y-3124563D01*
G01X9198008Y-3130405D01*
G01X9186578Y-3147423D01*
G01X9180736Y-3176125D01*
G01X9180736Y-3204573D01*
G01X9186578Y-3227433D01*
G01X9198008Y-3238863D01*
G01X9215026Y-3244705D01*
G01X9220868Y-3244705D01*
G01X9237886Y-3238863D01*
G01X9249316Y-3227433D01*
G01X9255158Y-3210415D01*
G01X9255158Y-3204573D01*
G01X9249316Y-3187555D01*
G01X9237886Y-3176125D01*
G01X9220868Y-3170283D01*
G01X9215026Y-3170283D01*
G01X9198008Y-3176125D01*
G01X9186578Y-3187555D01*
G01X9180736Y-3204573D01*
G01X9302910Y-3164695D02*
G01X9365902Y-3244705D01*
G01X9365902Y-3164695D02*
G01X9302910Y-3244705D01*
G01X9482234Y-3124563D02*
G01X9425084Y-3124563D01*
G01X9419496Y-3176125D01*
G01X9425084Y-3170283D01*
G01X9442356Y-3164695D01*
G01X9459374Y-3164695D01*
G01X9476646Y-3170283D01*
G01X9488076Y-3181713D01*
G01X9493664Y-3198985D01*
G01X9493664Y-3210415D01*
G01X9488076Y-3227433D01*
G01X9476646Y-3238863D01*
G01X9459374Y-3244705D01*
G01X9442356Y-3244705D01*
G01X9425084Y-3238863D01*
G01X9419496Y-3233275D01*
G01X9413654Y-3221845D01*
G01X9615838Y-3164695D02*
G01X9609996Y-3181713D01*
G01X9598566Y-3193143D01*
G01X9581548Y-3198985D01*
G01X9575706Y-3198985D01*
G01X9558688Y-3193143D01*
G01X9547258Y-3181713D01*
G01X9541416Y-3164695D01*
G01X9541416Y-3158853D01*
G01X9547258Y-3141835D01*
G01X9558688Y-3130405D01*
G01X9575706Y-3124563D01*
G01X9581548Y-3124563D01*
G01X9598566Y-3130405D01*
G01X9609996Y-3141835D01*
G01X9615838Y-3164695D01*
G01X9615838Y-3193143D01*
G01X9609996Y-3221845D01*
G01X9598566Y-3238863D01*
G01X9581548Y-3244705D01*
G01X9570118Y-3244705D01*
G01X9552846Y-3238863D01*
G01X9547258Y-3227433D01*
G01X9669432Y-3216003D02*
G01X9663590Y-3221845D01*
G01X9669432Y-3227433D01*
G01X9675020Y-3221845D01*
G01X9669432Y-3216003D01*
G01X9722772Y-3147423D02*
G01X9734202Y-3141835D01*
G01X9751474Y-3124563D01*
G01X9751474Y-3244705D01*
G01X9799226Y-3164695D02*
G01X9799226Y-3244705D01*
G01X9799226Y-3187555D02*
G01X9816498Y-3170283D01*
G01X9827928Y-3164695D01*
G01X9844946Y-3164695D01*
G01X9856376Y-3170283D01*
G01X9862218Y-3187555D01*
G01X9862218Y-3244705D01*
G01X9862218Y-3187555D02*
G01X9879236Y-3170283D01*
G01X9890666Y-3164695D01*
G01X9907938Y-3164695D01*
G01X9919368Y-3170283D01*
G01X9924956Y-3187555D01*
G01X9924956Y-3244705D01*
G01X9972708Y-3124563D02*
G01X9978550Y-3130405D01*
G01X9984138Y-3124563D01*
G01X9978550Y-3118975D01*
G01X9972708Y-3124563D01*
G01X9978550Y-3164695D02*
G01X9978550Y-3244705D01*
G01X10031890Y-3124563D02*
G01X10031890Y-3244705D01*
G01X10119774Y-3101703D02*
G01X10108344Y-3113133D01*
G01X10096914Y-3130405D01*
G01X10085484Y-3153265D01*
G01X10079642Y-3181713D01*
G01X10079642Y-3204573D01*
G01X10085484Y-3233275D01*
G01X10096914Y-3256135D01*
G01X10108344Y-3273153D01*
G01X10119774Y-3284583D01*
G01X10201816Y-3124563D02*
G01X10184798Y-3130405D01*
G01X10173368Y-3147423D01*
G01X10167526Y-3176125D01*
G01X10167526Y-3193143D01*
G01X10173368Y-3221845D01*
G01X10184798Y-3238863D01*
G01X10201816Y-3244705D01*
G01X10213246Y-3244705D01*
G01X10230518Y-3238863D01*
G01X10241948Y-3221845D01*
G01X10247536Y-3193143D01*
G01X10247536Y-3176125D01*
G01X10241948Y-3147423D01*
G01X10230518Y-3130405D01*
G01X10213246Y-3124563D01*
G01X10201816Y-3124563D01*
G01X10301130Y-3216003D02*
G01X10295288Y-3221845D01*
G01X10301130Y-3227433D01*
G01X10306718Y-3221845D01*
G01X10301130Y-3216003D01*
G01X10423050Y-3141835D02*
G01X10417462Y-3130405D01*
G01X10400190Y-3124563D01*
G01X10388760Y-3124563D01*
G01X10371742Y-3130405D01*
G01X10360312Y-3147423D01*
G01X10354470Y-3176125D01*
G01X10354470Y-3204573D01*
G01X10360312Y-3227433D01*
G01X10371742Y-3238863D01*
G01X10388760Y-3244705D01*
G01X10394602Y-3244705D01*
G01X10411620Y-3238863D01*
G01X10423050Y-3227433D01*
G01X10428892Y-3210415D01*
G01X10428892Y-3204573D01*
G01X10423050Y-3187555D01*
G01X10411620Y-3176125D01*
G01X10394602Y-3170283D01*
G01X10388760Y-3170283D01*
G01X10371742Y-3176125D01*
G01X10360312Y-3187555D01*
G01X10354470Y-3204573D01*
G01X10510934Y-3124563D02*
G01X10493916Y-3130405D01*
G01X10482486Y-3147423D01*
G01X10476644Y-3176125D01*
G01X10476644Y-3193143D01*
G01X10482486Y-3221845D01*
G01X10493916Y-3238863D01*
G01X10510934Y-3244705D01*
G01X10522364Y-3244705D01*
G01X10539636Y-3238863D01*
G01X10551066Y-3221845D01*
G01X10556654Y-3193143D01*
G01X10556654Y-3176125D01*
G01X10551066Y-3147423D01*
G01X10539636Y-3130405D01*
G01X10522364Y-3124563D01*
G01X10510934Y-3124563D01*
G01X10638696Y-3124563D02*
G01X10621678Y-3130405D01*
G01X10610248Y-3147423D01*
G01X10604406Y-3176125D01*
G01X10604406Y-3193143D01*
G01X10610248Y-3221845D01*
G01X10621678Y-3238863D01*
G01X10638696Y-3244705D01*
G01X10650126Y-3244705D01*
G01X10667398Y-3238863D01*
G01X10678828Y-3221845D01*
G01X10684416Y-3193143D01*
G01X10684416Y-3176125D01*
G01X10678828Y-3147423D01*
G01X10667398Y-3130405D01*
G01X10650126Y-3124563D01*
G01X10638696Y-3124563D01*
G01X10732168Y-3164695D02*
G01X10795160Y-3244705D01*
G01X10795160Y-3164695D02*
G01X10732168Y-3244705D01*
G01X10842912Y-3147423D02*
G01X10854342Y-3141835D01*
G01X10871614Y-3124563D01*
G01X10871614Y-3244705D01*
G01X10925208Y-3216003D02*
G01X10919366Y-3221845D01*
G01X10925208Y-3227433D01*
G01X10930796Y-3221845D01*
G01X10925208Y-3216003D01*
G01X11047128Y-3124563D02*
G01X10989978Y-3124563D01*
G01X10984390Y-3176125D01*
G01X10989978Y-3170283D01*
G01X11007250Y-3164695D01*
G01X11024268Y-3164695D01*
G01X11041540Y-3170283D01*
G01X11052970Y-3181713D01*
G01X11058558Y-3198985D01*
G01X11058558Y-3210415D01*
G01X11052970Y-3227433D01*
G01X11041540Y-3238863D01*
G01X11024268Y-3244705D01*
G01X11007250Y-3244705D01*
G01X10989978Y-3238863D01*
G01X10984390Y-3233275D01*
G01X10978548Y-3221845D01*
G01X11140600Y-3124563D02*
G01X11123582Y-3130405D01*
G01X11112152Y-3147423D01*
G01X11106310Y-3176125D01*
G01X11106310Y-3193143D01*
G01X11112152Y-3221845D01*
G01X11123582Y-3238863D01*
G01X11140600Y-3244705D01*
G01X11152030Y-3244705D01*
G01X11169302Y-3238863D01*
G01X11180732Y-3221845D01*
G01X11186320Y-3193143D01*
G01X11186320Y-3176125D01*
G01X11180732Y-3147423D01*
G01X11169302Y-3130405D01*
G01X11152030Y-3124563D01*
G01X11140600Y-3124563D01*
G01X11268362Y-3124563D02*
G01X11251344Y-3130405D01*
G01X11239914Y-3147423D01*
G01X11234072Y-3176125D01*
G01X11234072Y-3193143D01*
G01X11239914Y-3221845D01*
G01X11251344Y-3238863D01*
G01X11268362Y-3244705D01*
G01X11279792Y-3244705D01*
G01X11297064Y-3238863D01*
G01X11308494Y-3221845D01*
G01X11314082Y-3193143D01*
G01X11314082Y-3176125D01*
G01X11308494Y-3147423D01*
G01X11297064Y-3130405D01*
G01X11279792Y-3124563D01*
G01X11268362Y-3124563D01*
G01X11361834Y-3164695D02*
G01X11361834Y-3244705D01*
G01X11361834Y-3187555D02*
G01X11379106Y-3170283D01*
G01X11390536Y-3164695D01*
G01X11407554Y-3164695D01*
G01X11418984Y-3170283D01*
G01X11424826Y-3187555D01*
G01X11424826Y-3244705D01*
G01X11424826Y-3187555D02*
G01X11441844Y-3170283D01*
G01X11453274Y-3164695D01*
G01X11470546Y-3164695D01*
G01X11481976Y-3170283D01*
G01X11487564Y-3187555D01*
G01X11487564Y-3244705D01*
G01X11535316Y-3164695D02*
G01X11535316Y-3244705D01*
G01X11535316Y-3187555D02*
G01X11552588Y-3170283D01*
G01X11564018Y-3164695D01*
G01X11581036Y-3164695D01*
G01X11592466Y-3170283D01*
G01X11598308Y-3187555D01*
G01X11598308Y-3244705D01*
G01X11598308Y-3187555D02*
G01X11615326Y-3170283D01*
G01X11626756Y-3164695D01*
G01X11644028Y-3164695D01*
G01X11655458Y-3170283D01*
G01X11661046Y-3187555D01*
G01X11661046Y-3244705D01*
G01X11708798Y-3101703D02*
G01X11720228Y-3113133D01*
G01X11731658Y-3130405D01*
G01X11743088Y-3153265D01*
G01X11748930Y-3181713D01*
G01X11748930Y-3204573D01*
G01X11743088Y-3233275D01*
G01X11731658Y-3256135D01*
G01X11720228Y-3273153D01*
G01X11708798Y-3284583D01*
G01X12754153Y-3124563D02*
G01X12754153Y-3244705D01*
G01X12754153Y-3124563D02*
G01X12805715Y-3124563D01*
G01X12822733Y-3130405D01*
G01X12828575Y-3135993D01*
G01X12834163Y-3147423D01*
G01X12834163Y-3164695D01*
G01X12828575Y-3176125D01*
G01X12822733Y-3181713D01*
G01X12805715Y-3187555D01*
G01X12754153Y-3187555D01*
G01X12922047Y-3124563D02*
G01X12922047Y-3244705D01*
G01X12881915Y-3124563D02*
G01X12961925Y-3124563D01*
G01X13009677Y-3124563D02*
G01X13009677Y-3244705D01*
G01X13089687Y-3124563D02*
G01X13089687Y-3244705D01*
G01X13009677Y-3181713D02*
G01X13089687Y-3181713D01*
G01X14295570Y-3141835D02*
G01X14284140Y-3130405D01*
G01X14267122Y-3124563D01*
G01X14244262Y-3124563D01*
G01X14226990Y-3130405D01*
G01X14215560Y-3141835D01*
G01X14215560Y-3153265D01*
G01X14221402Y-3164695D01*
G01X14226990Y-3170283D01*
G01X14238420Y-3176125D01*
G01X14272710Y-3187555D01*
G01X14284140Y-3193143D01*
G01X14289982Y-3198985D01*
G01X14295570Y-3210415D01*
G01X14295570Y-3227433D01*
G01X14284140Y-3238863D01*
G01X14267122Y-3244705D01*
G01X14244262Y-3244705D01*
G01X14226990Y-3238863D01*
G01X14215560Y-3227433D01*
G01X14343322Y-3124563D02*
G01X14343322Y-3244705D01*
G01X14419776Y-3164695D02*
G01X14408346Y-3170283D01*
G01X14396916Y-3181713D01*
G01X14391074Y-3198985D01*
G01X14391074Y-3210415D01*
G01X14396916Y-3227433D01*
G01X14408346Y-3238863D01*
G01X14419776Y-3244705D01*
G01X14436794Y-3244705D01*
G01X14448224Y-3238863D01*
G01X14459654Y-3227433D01*
G01X14465496Y-3210415D01*
G01X14465496Y-3198985D01*
G01X14459654Y-3181713D01*
G01X14448224Y-3170283D01*
G01X14436794Y-3164695D01*
G01X14419776Y-3164695D01*
G01X14530520Y-3124563D02*
G01X14530520Y-3221845D01*
G01X14536108Y-3238863D01*
G01X14547538Y-3244705D01*
G01X14558968Y-3244705D01*
G01X14513248Y-3164695D02*
G01X14553380Y-3164695D01*
G01X15646741Y-3124563D02*
G01X15646741Y-3244705D01*
G01X15646741Y-3124563D02*
G01X15698303Y-3124563D01*
G01X15715321Y-3130405D01*
G01X15721163Y-3135993D01*
G01X15726751Y-3147423D01*
G01X15726751Y-3164695D01*
G01X15721163Y-3176125D01*
G01X15715321Y-3181713D01*
G01X15698303Y-3187555D01*
G01X15646741Y-3187555D01*
G01X15843083Y-3164695D02*
G01X15843083Y-3244705D01*
G01X15843083Y-3181713D02*
G01X15831653Y-3170283D01*
G01X15820223Y-3164695D01*
G01X15803205Y-3164695D01*
G01X15791775Y-3170283D01*
G01X15780345Y-3181713D01*
G01X15774503Y-3198985D01*
G01X15774503Y-3210415D01*
G01X15780345Y-3227433D01*
G01X15791775Y-3238863D01*
G01X15803205Y-3244705D01*
G01X15820223Y-3244705D01*
G01X15831653Y-3238863D01*
G01X15843083Y-3227433D01*
G01X15959415Y-3124563D02*
G01X15959415Y-3244705D01*
G01X15959415Y-3181713D02*
G01X15947985Y-3170283D01*
G01X15936555Y-3164695D01*
G01X15919537Y-3164695D01*
G01X15908107Y-3170283D01*
G01X15896677Y-3181713D01*
G01X15890835Y-3198985D01*
G01X15890835Y-3210415D01*
G01X15896677Y-3227433D01*
G01X15908107Y-3238863D01*
G01X15919537Y-3244705D01*
G01X15936555Y-3244705D01*
G01X15947985Y-3238863D01*
G01X15959415Y-3227433D01*
G01X17350211Y-3124563D02*
G01X17338781Y-3130405D01*
G01X17327351Y-3141835D01*
G01X17321763Y-3153265D01*
G01X17315921Y-3170283D01*
G01X17315921Y-3198985D01*
G01X17321763Y-3216003D01*
G01X17327351Y-3227433D01*
G01X17338781Y-3238863D01*
G01X17350211Y-3244705D01*
G01X17373071Y-3244705D01*
G01X17384501Y-3238863D01*
G01X17395931Y-3227433D01*
G01X17401773Y-3216003D01*
G01X17407361Y-3198985D01*
G01X17407361Y-3170283D01*
G01X17401773Y-3153265D01*
G01X17395931Y-3141835D01*
G01X17384501Y-3130405D01*
G01X17373071Y-3124563D01*
G01X17350211Y-3124563D01*
G01X17455113Y-3164695D02*
G01X17489403Y-3244705D01*
G01X17523693Y-3164695D02*
G01X17489403Y-3244705D01*
G01X17640025Y-3164695D02*
G01X17640025Y-3244705D01*
G01X17640025Y-3181713D02*
G01X17628595Y-3170283D01*
G01X17617165Y-3164695D01*
G01X17600147Y-3164695D01*
G01X17588717Y-3170283D01*
G01X17577287Y-3181713D01*
G01X17571445Y-3198985D01*
G01X17571445Y-3210415D01*
G01X17577287Y-3227433D01*
G01X17588717Y-3238863D01*
G01X17600147Y-3244705D01*
G01X17617165Y-3244705D01*
G01X17628595Y-3238863D01*
G01X17640025Y-3227433D01*
G01X17687777Y-3124563D02*
G01X17687777Y-3244705D01*
G01X19275422Y-3124563D02*
G01X19275422Y-3244705D01*
G01X19235290Y-3124563D02*
G01X19315300Y-3124563D01*
G01X19391754Y-3164695D02*
G01X19380324Y-3170283D01*
G01X19368894Y-3181713D01*
G01X19363052Y-3198985D01*
G01X19363052Y-3210415D01*
G01X19368894Y-3227433D01*
G01X19380324Y-3238863D01*
G01X19391754Y-3244705D01*
G01X19408772Y-3244705D01*
G01X19420202Y-3238863D01*
G01X19431632Y-3227433D01*
G01X19437474Y-3210415D01*
G01X19437474Y-3198985D01*
G01X19431632Y-3181713D01*
G01X19420202Y-3170283D01*
G01X19408772Y-3164695D01*
G01X19391754Y-3164695D01*
G01X19485226Y-3164695D02*
G01X19485226Y-3284583D01*
G01X19485226Y-3181713D02*
G01X19496656Y-3170283D01*
G01X19508086Y-3164695D01*
G01X19525358Y-3164695D01*
G01X19536788Y-3170283D01*
G01X19548218Y-3181713D01*
G01X19553806Y-3198985D01*
G01X19553806Y-3210415D01*
G01X19548218Y-3227433D01*
G01X19536788Y-3238863D01*
G01X19525358Y-3244705D01*
G01X19508086Y-3244705D01*
G01X19496656Y-3238863D01*
G01X19485226Y-3227433D01*
G01X19729574Y-3124563D02*
G01X19729574Y-3244705D01*
G01X19729574Y-3244705D02*
G01X19798154Y-3244705D01*
G01X19914486Y-3164695D02*
G01X19914486Y-3244705D01*
G01X19914486Y-3181713D02*
G01X19903056Y-3170283D01*
G01X19891626Y-3164695D01*
G01X19874608Y-3164695D01*
G01X19863178Y-3170283D01*
G01X19851748Y-3181713D01*
G01X19845906Y-3198985D01*
G01X19845906Y-3210415D01*
G01X19851748Y-3227433D01*
G01X19863178Y-3238863D01*
G01X19874608Y-3244705D01*
G01X19891626Y-3244705D01*
G01X19903056Y-3238863D01*
G01X19914486Y-3227433D01*
G01X19968080Y-3164695D02*
G01X20002370Y-3244705D01*
G01X20036660Y-3164695D02*
G01X20002370Y-3244705D01*
G01X19990940Y-3267565D01*
G01X19979510Y-3278995D01*
G01X19968080Y-3284583D01*
G01X19962238Y-3284583D01*
G01X20084412Y-3198985D02*
G01X20152992Y-3198985D01*
G01X20152992Y-3187555D01*
G01X20147404Y-3176125D01*
G01X20141562Y-3170283D01*
G01X20130132Y-3164695D01*
G01X20113114Y-3164695D01*
G01X20101684Y-3170283D01*
G01X20090254Y-3181713D01*
G01X20084412Y-3198985D01*
G01X20084412Y-3210415D01*
G01X20090254Y-3227433D01*
G01X20101684Y-3238863D01*
G01X20113114Y-3244705D01*
G01X20130132Y-3244705D01*
G01X20141562Y-3238863D01*
G01X20152992Y-3227433D01*
G01X20200744Y-3164695D02*
G01X20200744Y-3244705D01*
G01X20200744Y-3198985D02*
G01X20206586Y-3181713D01*
G01X20218016Y-3170283D01*
G01X20229446Y-3164695D01*
G01X20246464Y-3164695D01*
G01X20294216Y-3193143D02*
G01X20397086Y-3193143D01*
G01X20444838Y-3124563D02*
G01X20444838Y-3244705D01*
G01X20444838Y-3124563D02*
G01X20496400Y-3124563D01*
G01X20513418Y-3130405D01*
G01X20519260Y-3135993D01*
G01X20524848Y-3147423D01*
G01X20524848Y-3158853D01*
G01X20519260Y-3170283D01*
G01X20513418Y-3176125D01*
G01X20496400Y-3181713D01*
G01X20444838Y-3181713D02*
G01X20496400Y-3181713D01*
G01X20513418Y-3187555D01*
G01X20519260Y-3193143D01*
G01X20524848Y-3204573D01*
G01X20524848Y-3221845D01*
G01X20519260Y-3233275D01*
G01X20513418Y-3238863D01*
G01X20496400Y-3244705D01*
G01X20444838Y-3244705D01*
G01X20601302Y-3164695D02*
G01X20589872Y-3170283D01*
G01X20578442Y-3181713D01*
G01X20572600Y-3198985D01*
G01X20572600Y-3210415D01*
G01X20578442Y-3227433D01*
G01X20589872Y-3238863D01*
G01X20601302Y-3244705D01*
G01X20618320Y-3244705D01*
G01X20629750Y-3238863D01*
G01X20641180Y-3227433D01*
G01X20647022Y-3210415D01*
G01X20647022Y-3198985D01*
G01X20641180Y-3181713D01*
G01X20629750Y-3170283D01*
G01X20618320Y-3164695D01*
G01X20601302Y-3164695D01*
G01X20712046Y-3124563D02*
G01X20712046Y-3221845D01*
G01X20717634Y-3238863D01*
G01X20729064Y-3244705D01*
G01X20740494Y-3244705D01*
G01X20694774Y-3164695D02*
G01X20734906Y-3164695D01*
G01X20805518Y-3124563D02*
G01X20805518Y-3221845D01*
G01X20811106Y-3238863D01*
G01X20822536Y-3244705D01*
G01X20833966Y-3244705D01*
G01X20788246Y-3164695D02*
G01X20828378Y-3164695D01*
G01X20910420Y-3164695D02*
G01X20898990Y-3170283D01*
G01X20887560Y-3181713D01*
G01X20881718Y-3198985D01*
G01X20881718Y-3210415D01*
G01X20887560Y-3227433D01*
G01X20898990Y-3238863D01*
G01X20910420Y-3244705D01*
G01X20927438Y-3244705D01*
G01X20938868Y-3238863D01*
G01X20950298Y-3227433D01*
G01X20956140Y-3210415D01*
G01X20956140Y-3198985D01*
G01X20950298Y-3181713D01*
G01X20938868Y-3170283D01*
G01X20927438Y-3164695D01*
G01X20910420Y-3164695D01*
G01X21003892Y-3164695D02*
G01X21003892Y-3244705D01*
G01X21003892Y-3187555D02*
G01X21021164Y-3170283D01*
G01X21032594Y-3164695D01*
G01X21049612Y-3164695D01*
G01X21061042Y-3170283D01*
G01X21066884Y-3187555D01*
G01X21066884Y-3244705D01*
G01X21066884Y-3187555D02*
G01X21083902Y-3170283D01*
G01X21095332Y-3164695D01*
G01X21112604Y-3164695D01*
G01X21124034Y-3170283D01*
G01X21129622Y-3187555D01*
G01X21129622Y-3244705D01*
G01X21305390Y-3124563D02*
G01X21305390Y-3244705D01*
G01X21305390Y-3244705D02*
G01X21373970Y-3244705D01*
G01X21490302Y-3164695D02*
G01X21490302Y-3244705D01*
G01X21490302Y-3181713D02*
G01X21478872Y-3170283D01*
G01X21467442Y-3164695D01*
G01X21450424Y-3164695D01*
G01X21438994Y-3170283D01*
G01X21427564Y-3181713D01*
G01X21421722Y-3198985D01*
G01X21421722Y-3210415D01*
G01X21427564Y-3227433D01*
G01X21438994Y-3238863D01*
G01X21450424Y-3244705D01*
G01X21467442Y-3244705D01*
G01X21478872Y-3238863D01*
G01X21490302Y-3227433D01*
G01X21543896Y-3164695D02*
G01X21578186Y-3244705D01*
G01X21612476Y-3164695D02*
G01X21578186Y-3244705D01*
G01X21566756Y-3267565D01*
G01X21555326Y-3278995D01*
G01X21543896Y-3284583D01*
G01X21538054Y-3284583D01*
G01X21660228Y-3198985D02*
G01X21728808Y-3198985D01*
G01X21728808Y-3187555D01*
G01X21723220Y-3176125D01*
G01X21717378Y-3170283D01*
G01X21705948Y-3164695D01*
G01X21688930Y-3164695D01*
G01X21677500Y-3170283D01*
G01X21666070Y-3181713D01*
G01X21660228Y-3198985D01*
G01X21660228Y-3210415D01*
G01X21666070Y-3227433D01*
G01X21677500Y-3238863D01*
G01X21688930Y-3244705D01*
G01X21705948Y-3244705D01*
G01X21717378Y-3238863D01*
G01X21728808Y-3227433D01*
G01X21776560Y-3164695D02*
G01X21776560Y-3244705D01*
G01X21776560Y-3198985D02*
G01X21782402Y-3181713D01*
G01X21793832Y-3170283D01*
G01X21805262Y-3164695D01*
G01X21822280Y-3164695D01*
G01X7520447Y-3722406D02*
G01X7514859Y-3710976D01*
G01X7497587Y-3705134D01*
G01X7486157Y-3705134D01*
G01X7469139Y-3710976D01*
G01X7457709Y-3727994D01*
G01X7451867Y-3756696D01*
G01X7451867Y-3785144D01*
G01X7457709Y-3808004D01*
G01X7469139Y-3819434D01*
G01X7486157Y-3825276D01*
G01X7491999Y-3825276D01*
G01X7509017Y-3819434D01*
G01X7520447Y-3808004D01*
G01X7526289Y-3790986D01*
G01X7526289Y-3785144D01*
G01X7520447Y-3768126D01*
G01X7509017Y-3756696D01*
G01X7491999Y-3750854D01*
G01X7486157Y-3750854D01*
G01X7469139Y-3756696D01*
G01X7457709Y-3768126D01*
G01X7451867Y-3785144D01*
G01X8871872Y-3733836D02*
G01X8871872Y-3727994D01*
G01X8877460Y-3716564D01*
G01X8883302Y-3710976D01*
G01X8894732Y-3705134D01*
G01X8917592Y-3705134D01*
G01X8929022Y-3710976D01*
G01X8934610Y-3716564D01*
G01X8940452Y-3727994D01*
G01X8940452Y-3739424D01*
G01X8934610Y-3750854D01*
G01X8923180Y-3768126D01*
G01X8866030Y-3825276D01*
G01X8946040Y-3825276D01*
G01X9005222Y-3705134D02*
G01X9068214Y-3705134D01*
G01X9033924Y-3750854D01*
G01X9050942Y-3750854D01*
G01X9062372Y-3756696D01*
G01X9068214Y-3762284D01*
G01X9073802Y-3779556D01*
G01X9073802Y-3790986D01*
G01X9068214Y-3808004D01*
G01X9056784Y-3819434D01*
G01X9039512Y-3825276D01*
G01X9022494Y-3825276D01*
G01X9005222Y-3819434D01*
G01X8999634Y-3813846D01*
G01X8993792Y-3802416D01*
G01X9127396Y-3796574D02*
G01X9121554Y-3802416D01*
G01X9127396Y-3808004D01*
G01X9132984Y-3802416D01*
G01X9127396Y-3796574D01*
G01X9249316Y-3722406D02*
G01X9243728Y-3710976D01*
G01X9226456Y-3705134D01*
G01X9215026Y-3705134D01*
G01X9198008Y-3710976D01*
G01X9186578Y-3727994D01*
G01X9180736Y-3756696D01*
G01X9180736Y-3785144D01*
G01X9186578Y-3808004D01*
G01X9198008Y-3819434D01*
G01X9215026Y-3825276D01*
G01X9220868Y-3825276D01*
G01X9237886Y-3819434D01*
G01X9249316Y-3808004D01*
G01X9255158Y-3790986D01*
G01X9255158Y-3785144D01*
G01X9249316Y-3768126D01*
G01X9237886Y-3756696D01*
G01X9220868Y-3750854D01*
G01X9215026Y-3750854D01*
G01X9198008Y-3756696D01*
G01X9186578Y-3768126D01*
G01X9180736Y-3785144D01*
G01X9302910Y-3745266D02*
G01X9365902Y-3825276D01*
G01X9365902Y-3745266D02*
G01X9302910Y-3825276D01*
G01X9470804Y-3705134D02*
G01X9413654Y-3785144D01*
G01X9499506Y-3785144D01*
G01X9470804Y-3705134D02*
G01X9470804Y-3825276D01*
G01X9627268Y-3705134D02*
G01X9570118Y-3825276D01*
G01X9547258Y-3705134D02*
G01X9627268Y-3705134D01*
G01X9680862Y-3796574D02*
G01X9675020Y-3802416D01*
G01X9680862Y-3808004D01*
G01X9686450Y-3802416D01*
G01X9680862Y-3796574D01*
G01X9740044Y-3733836D02*
G01X9740044Y-3727994D01*
G01X9745632Y-3716564D01*
G01X9751474Y-3710976D01*
G01X9762904Y-3705134D01*
G01X9785764Y-3705134D01*
G01X9797194Y-3710976D01*
G01X9802782Y-3716564D01*
G01X9808624Y-3727994D01*
G01X9808624Y-3739424D01*
G01X9802782Y-3750854D01*
G01X9791352Y-3768126D01*
G01X9734202Y-3825276D01*
G01X9814212Y-3825276D01*
G01X9861964Y-3745266D02*
G01X9861964Y-3825276D01*
G01X9861964Y-3768126D02*
G01X9879236Y-3750854D01*
G01X9890666Y-3745266D01*
G01X9907684Y-3745266D01*
G01X9919114Y-3750854D01*
G01X9924956Y-3768126D01*
G01X9924956Y-3825276D01*
G01X9924956Y-3768126D02*
G01X9941974Y-3750854D01*
G01X9953404Y-3745266D01*
G01X9970676Y-3745266D01*
G01X9982106Y-3750854D01*
G01X9987694Y-3768126D01*
G01X9987694Y-3825276D01*
G01X10035446Y-3705134D02*
G01X10041288Y-3710976D01*
G01X10046876Y-3705134D01*
G01X10041288Y-3699546D01*
G01X10035446Y-3705134D01*
G01X10041288Y-3745266D02*
G01X10041288Y-3825276D01*
G01X10094628Y-3705134D02*
G01X10094628Y-3825276D01*
G01X10182512Y-3682274D02*
G01X10171082Y-3693704D01*
G01X10159652Y-3710976D01*
G01X10148222Y-3733836D01*
G01X10142380Y-3762284D01*
G01X10142380Y-3785144D01*
G01X10148222Y-3813846D01*
G01X10159652Y-3836706D01*
G01X10171082Y-3853724D01*
G01X10182512Y-3865154D01*
G01X10264554Y-3705134D02*
G01X10247536Y-3710976D01*
G01X10236106Y-3727994D01*
G01X10230264Y-3756696D01*
G01X10230264Y-3773714D01*
G01X10236106Y-3802416D01*
G01X10247536Y-3819434D01*
G01X10264554Y-3825276D01*
G01X10275984Y-3825276D01*
G01X10293256Y-3819434D01*
G01X10304686Y-3802416D01*
G01X10310274Y-3773714D01*
G01X10310274Y-3756696D01*
G01X10304686Y-3727994D01*
G01X10293256Y-3710976D01*
G01X10275984Y-3705134D01*
G01X10264554Y-3705134D01*
G01X10363868Y-3796574D02*
G01X10358026Y-3802416D01*
G01X10363868Y-3808004D01*
G01X10369456Y-3802416D01*
G01X10363868Y-3796574D01*
G01X10485788Y-3722406D02*
G01X10480200Y-3710976D01*
G01X10462928Y-3705134D01*
G01X10451498Y-3705134D01*
G01X10434480Y-3710976D01*
G01X10423050Y-3727994D01*
G01X10417208Y-3756696D01*
G01X10417208Y-3785144D01*
G01X10423050Y-3808004D01*
G01X10434480Y-3819434D01*
G01X10451498Y-3825276D01*
G01X10457340Y-3825276D01*
G01X10474358Y-3819434D01*
G01X10485788Y-3808004D01*
G01X10491630Y-3790986D01*
G01X10491630Y-3785144D01*
G01X10485788Y-3768126D01*
G01X10474358Y-3756696D01*
G01X10457340Y-3750854D01*
G01X10451498Y-3750854D01*
G01X10434480Y-3756696D01*
G01X10423050Y-3768126D01*
G01X10417208Y-3785144D01*
G01X10573672Y-3705134D02*
G01X10556654Y-3710976D01*
G01X10545224Y-3727994D01*
G01X10539382Y-3756696D01*
G01X10539382Y-3773714D01*
G01X10545224Y-3802416D01*
G01X10556654Y-3819434D01*
G01X10573672Y-3825276D01*
G01X10585102Y-3825276D01*
G01X10602374Y-3819434D01*
G01X10613804Y-3802416D01*
G01X10619392Y-3773714D01*
G01X10619392Y-3756696D01*
G01X10613804Y-3727994D01*
G01X10602374Y-3710976D01*
G01X10585102Y-3705134D01*
G01X10573672Y-3705134D01*
G01X10701434Y-3705134D02*
G01X10684416Y-3710976D01*
G01X10672986Y-3727994D01*
G01X10667144Y-3756696D01*
G01X10667144Y-3773714D01*
G01X10672986Y-3802416D01*
G01X10684416Y-3819434D01*
G01X10701434Y-3825276D01*
G01X10712864Y-3825276D01*
G01X10730136Y-3819434D01*
G01X10741566Y-3802416D01*
G01X10747154Y-3773714D01*
G01X10747154Y-3756696D01*
G01X10741566Y-3727994D01*
G01X10730136Y-3710976D01*
G01X10712864Y-3705134D01*
G01X10701434Y-3705134D01*
G01X10794906Y-3745266D02*
G01X10857898Y-3825276D01*
G01X10857898Y-3745266D02*
G01X10794906Y-3825276D01*
G01X10905650Y-3727994D02*
G01X10917080Y-3722406D01*
G01X10934352Y-3705134D01*
G01X10934352Y-3825276D01*
G01X10987946Y-3796574D02*
G01X10982104Y-3802416D01*
G01X10987946Y-3808004D01*
G01X10993534Y-3802416D01*
G01X10987946Y-3796574D01*
G01X11047128Y-3733836D02*
G01X11047128Y-3727994D01*
G01X11052716Y-3716564D01*
G01X11058558Y-3710976D01*
G01X11069988Y-3705134D01*
G01X11092848Y-3705134D01*
G01X11104278Y-3710976D01*
G01X11109866Y-3716564D01*
G01X11115708Y-3727994D01*
G01X11115708Y-3739424D01*
G01X11109866Y-3750854D01*
G01X11098436Y-3768126D01*
G01X11041286Y-3825276D01*
G01X11121296Y-3825276D01*
G01X11203338Y-3705134D02*
G01X11186320Y-3710976D01*
G01X11174890Y-3727994D01*
G01X11169048Y-3756696D01*
G01X11169048Y-3773714D01*
G01X11174890Y-3802416D01*
G01X11186320Y-3819434D01*
G01X11203338Y-3825276D01*
G01X11214768Y-3825276D01*
G01X11232040Y-3819434D01*
G01X11243470Y-3802416D01*
G01X11249058Y-3773714D01*
G01X11249058Y-3756696D01*
G01X11243470Y-3727994D01*
G01X11232040Y-3710976D01*
G01X11214768Y-3705134D01*
G01X11203338Y-3705134D01*
G01X11331100Y-3705134D02*
G01X11314082Y-3710976D01*
G01X11302652Y-3727994D01*
G01X11296810Y-3756696D01*
G01X11296810Y-3773714D01*
G01X11302652Y-3802416D01*
G01X11314082Y-3819434D01*
G01X11331100Y-3825276D01*
G01X11342530Y-3825276D01*
G01X11359802Y-3819434D01*
G01X11371232Y-3802416D01*
G01X11376820Y-3773714D01*
G01X11376820Y-3756696D01*
G01X11371232Y-3727994D01*
G01X11359802Y-3710976D01*
G01X11342530Y-3705134D01*
G01X11331100Y-3705134D01*
G01X11424572Y-3745266D02*
G01X11424572Y-3825276D01*
G01X11424572Y-3768126D02*
G01X11441844Y-3750854D01*
G01X11453274Y-3745266D01*
G01X11470292Y-3745266D01*
G01X11481722Y-3750854D01*
G01X11487564Y-3768126D01*
G01X11487564Y-3825276D01*
G01X11487564Y-3768126D02*
G01X11504582Y-3750854D01*
G01X11516012Y-3745266D01*
G01X11533284Y-3745266D01*
G01X11544714Y-3750854D01*
G01X11550302Y-3768126D01*
G01X11550302Y-3825276D01*
G01X11598054Y-3745266D02*
G01X11598054Y-3825276D01*
G01X11598054Y-3768126D02*
G01X11615326Y-3750854D01*
G01X11626756Y-3745266D01*
G01X11643774Y-3745266D01*
G01X11655204Y-3750854D01*
G01X11661046Y-3768126D01*
G01X11661046Y-3825276D01*
G01X11661046Y-3768126D02*
G01X11678064Y-3750854D01*
G01X11689494Y-3745266D01*
G01X11706766Y-3745266D01*
G01X11718196Y-3750854D01*
G01X11723784Y-3768126D01*
G01X11723784Y-3825276D01*
G01X11771536Y-3682274D02*
G01X11782966Y-3693704D01*
G01X11794396Y-3710976D01*
G01X11805826Y-3733836D01*
G01X11811668Y-3762284D01*
G01X11811668Y-3785144D01*
G01X11805826Y-3813846D01*
G01X11794396Y-3836706D01*
G01X11782966Y-3853724D01*
G01X11771536Y-3865154D01*
G01X12754153Y-3705134D02*
G01X12754153Y-3825276D01*
G01X12754153Y-3705134D02*
G01X12805715Y-3705134D01*
G01X12822733Y-3710976D01*
G01X12828575Y-3716564D01*
G01X12834163Y-3727994D01*
G01X12834163Y-3745266D01*
G01X12828575Y-3756696D01*
G01X12822733Y-3762284D01*
G01X12805715Y-3768126D01*
G01X12754153Y-3768126D01*
G01X12922047Y-3705134D02*
G01X12922047Y-3825276D01*
G01X12881915Y-3705134D02*
G01X12961925Y-3705134D01*
G01X13009677Y-3705134D02*
G01X13009677Y-3825276D01*
G01X13089687Y-3705134D02*
G01X13089687Y-3825276D01*
G01X13009677Y-3762284D02*
G01X13089687Y-3762284D01*
G01X14295570Y-3722406D02*
G01X14284140Y-3710976D01*
G01X14267122Y-3705134D01*
G01X14244262Y-3705134D01*
G01X14226990Y-3710976D01*
G01X14215560Y-3722406D01*
G01X14215560Y-3733836D01*
G01X14221402Y-3745266D01*
G01X14226990Y-3750854D01*
G01X14238420Y-3756696D01*
G01X14272710Y-3768126D01*
G01X14284140Y-3773714D01*
G01X14289982Y-3779556D01*
G01X14295570Y-3790986D01*
G01X14295570Y-3808004D01*
G01X14284140Y-3819434D01*
G01X14267122Y-3825276D01*
G01X14244262Y-3825276D01*
G01X14226990Y-3819434D01*
G01X14215560Y-3808004D01*
G01X14343322Y-3705134D02*
G01X14343322Y-3825276D01*
G01X14419776Y-3745266D02*
G01X14408346Y-3750854D01*
G01X14396916Y-3762284D01*
G01X14391074Y-3779556D01*
G01X14391074Y-3790986D01*
G01X14396916Y-3808004D01*
G01X14408346Y-3819434D01*
G01X14419776Y-3825276D01*
G01X14436794Y-3825276D01*
G01X14448224Y-3819434D01*
G01X14459654Y-3808004D01*
G01X14465496Y-3790986D01*
G01X14465496Y-3779556D01*
G01X14459654Y-3762284D01*
G01X14448224Y-3750854D01*
G01X14436794Y-3745266D01*
G01X14419776Y-3745266D01*
G01X14530520Y-3705134D02*
G01X14530520Y-3802416D01*
G01X14536108Y-3819434D01*
G01X14547538Y-3825276D01*
G01X14558968Y-3825276D01*
G01X14513248Y-3745266D02*
G01X14553380Y-3745266D01*
G01X15646741Y-3705134D02*
G01X15646741Y-3825276D01*
G01X15646741Y-3705134D02*
G01X15698303Y-3705134D01*
G01X15715321Y-3710976D01*
G01X15721163Y-3716564D01*
G01X15726751Y-3727994D01*
G01X15726751Y-3745266D01*
G01X15721163Y-3756696D01*
G01X15715321Y-3762284D01*
G01X15698303Y-3768126D01*
G01X15646741Y-3768126D01*
G01X15843083Y-3745266D02*
G01X15843083Y-3825276D01*
G01X15843083Y-3762284D02*
G01X15831653Y-3750854D01*
G01X15820223Y-3745266D01*
G01X15803205Y-3745266D01*
G01X15791775Y-3750854D01*
G01X15780345Y-3762284D01*
G01X15774503Y-3779556D01*
G01X15774503Y-3790986D01*
G01X15780345Y-3808004D01*
G01X15791775Y-3819434D01*
G01X15803205Y-3825276D01*
G01X15820223Y-3825276D01*
G01X15831653Y-3819434D01*
G01X15843083Y-3808004D01*
G01X15959415Y-3705134D02*
G01X15959415Y-3825276D01*
G01X15959415Y-3762284D02*
G01X15947985Y-3750854D01*
G01X15936555Y-3745266D01*
G01X15919537Y-3745266D01*
G01X15908107Y-3750854D01*
G01X15896677Y-3762284D01*
G01X15890835Y-3779556D01*
G01X15890835Y-3790986D01*
G01X15896677Y-3808004D01*
G01X15908107Y-3819434D01*
G01X15919537Y-3825276D01*
G01X15936555Y-3825276D01*
G01X15947985Y-3819434D01*
G01X15959415Y-3808004D01*
G01X17350211Y-3705134D02*
G01X17338781Y-3710976D01*
G01X17327351Y-3722406D01*
G01X17321763Y-3733836D01*
G01X17315921Y-3750854D01*
G01X17315921Y-3779556D01*
G01X17321763Y-3796574D01*
G01X17327351Y-3808004D01*
G01X17338781Y-3819434D01*
G01X17350211Y-3825276D01*
G01X17373071Y-3825276D01*
G01X17384501Y-3819434D01*
G01X17395931Y-3808004D01*
G01X17401773Y-3796574D01*
G01X17407361Y-3779556D01*
G01X17407361Y-3750854D01*
G01X17401773Y-3733836D01*
G01X17395931Y-3722406D01*
G01X17384501Y-3710976D01*
G01X17373071Y-3705134D01*
G01X17350211Y-3705134D01*
G01X17455113Y-3745266D02*
G01X17489403Y-3825276D01*
G01X17523693Y-3745266D02*
G01X17489403Y-3825276D01*
G01X17640025Y-3745266D02*
G01X17640025Y-3825276D01*
G01X17640025Y-3762284D02*
G01X17628595Y-3750854D01*
G01X17617165Y-3745266D01*
G01X17600147Y-3745266D01*
G01X17588717Y-3750854D01*
G01X17577287Y-3762284D01*
G01X17571445Y-3779556D01*
G01X17571445Y-3790986D01*
G01X17577287Y-3808004D01*
G01X17588717Y-3819434D01*
G01X17600147Y-3825276D01*
G01X17617165Y-3825276D01*
G01X17628595Y-3819434D01*
G01X17640025Y-3808004D01*
G01X17687777Y-3705134D02*
G01X17687777Y-3825276D01*
G01X19275422Y-3705134D02*
G01X19275422Y-3825276D01*
G01X19235290Y-3705134D02*
G01X19315300Y-3705134D01*
G01X19391754Y-3745266D02*
G01X19380324Y-3750854D01*
G01X19368894Y-3762284D01*
G01X19363052Y-3779556D01*
G01X19363052Y-3790986D01*
G01X19368894Y-3808004D01*
G01X19380324Y-3819434D01*
G01X19391754Y-3825276D01*
G01X19408772Y-3825276D01*
G01X19420202Y-3819434D01*
G01X19431632Y-3808004D01*
G01X19437474Y-3790986D01*
G01X19437474Y-3779556D01*
G01X19431632Y-3762284D01*
G01X19420202Y-3750854D01*
G01X19408772Y-3745266D01*
G01X19391754Y-3745266D01*
G01X19485226Y-3745266D02*
G01X19485226Y-3865154D01*
G01X19485226Y-3762284D02*
G01X19496656Y-3750854D01*
G01X19508086Y-3745266D01*
G01X19525358Y-3745266D01*
G01X19536788Y-3750854D01*
G01X19548218Y-3762284D01*
G01X19553806Y-3779556D01*
G01X19553806Y-3790986D01*
G01X19548218Y-3808004D01*
G01X19536788Y-3819434D01*
G01X19525358Y-3825276D01*
G01X19508086Y-3825276D01*
G01X19496656Y-3819434D01*
G01X19485226Y-3808004D01*
G01X19729574Y-3705134D02*
G01X19729574Y-3825276D01*
G01X19729574Y-3825276D02*
G01X19798154Y-3825276D01*
G01X19914486Y-3745266D02*
G01X19914486Y-3825276D01*
G01X19914486Y-3762284D02*
G01X19903056Y-3750854D01*
G01X19891626Y-3745266D01*
G01X19874608Y-3745266D01*
G01X19863178Y-3750854D01*
G01X19851748Y-3762284D01*
G01X19845906Y-3779556D01*
G01X19845906Y-3790986D01*
G01X19851748Y-3808004D01*
G01X19863178Y-3819434D01*
G01X19874608Y-3825276D01*
G01X19891626Y-3825276D01*
G01X19903056Y-3819434D01*
G01X19914486Y-3808004D01*
G01X19968080Y-3745266D02*
G01X20002370Y-3825276D01*
G01X20036660Y-3745266D02*
G01X20002370Y-3825276D01*
G01X19990940Y-3848136D01*
G01X19979510Y-3859566D01*
G01X19968080Y-3865154D01*
G01X19962238Y-3865154D01*
G01X20084412Y-3779556D02*
G01X20152992Y-3779556D01*
G01X20152992Y-3768126D01*
G01X20147404Y-3756696D01*
G01X20141562Y-3750854D01*
G01X20130132Y-3745266D01*
G01X20113114Y-3745266D01*
G01X20101684Y-3750854D01*
G01X20090254Y-3762284D01*
G01X20084412Y-3779556D01*
G01X20084412Y-3790986D01*
G01X20090254Y-3808004D01*
G01X20101684Y-3819434D01*
G01X20113114Y-3825276D01*
G01X20130132Y-3825276D01*
G01X20141562Y-3819434D01*
G01X20152992Y-3808004D01*
G01X20200744Y-3745266D02*
G01X20200744Y-3825276D01*
G01X20200744Y-3779556D02*
G01X20206586Y-3762284D01*
G01X20218016Y-3750854D01*
G01X20229446Y-3745266D01*
G01X20246464Y-3745266D01*
G01X20294216Y-3773714D02*
G01X20397086Y-3773714D01*
G01X20444838Y-3705134D02*
G01X20444838Y-3825276D01*
G01X20444838Y-3705134D02*
G01X20496400Y-3705134D01*
G01X20513418Y-3710976D01*
G01X20519260Y-3716564D01*
G01X20524848Y-3727994D01*
G01X20524848Y-3739424D01*
G01X20519260Y-3750854D01*
G01X20513418Y-3756696D01*
G01X20496400Y-3762284D01*
G01X20444838Y-3762284D02*
G01X20496400Y-3762284D01*
G01X20513418Y-3768126D01*
G01X20519260Y-3773714D01*
G01X20524848Y-3785144D01*
G01X20524848Y-3802416D01*
G01X20519260Y-3813846D01*
G01X20513418Y-3819434D01*
G01X20496400Y-3825276D01*
G01X20444838Y-3825276D01*
G01X20601302Y-3745266D02*
G01X20589872Y-3750854D01*
G01X20578442Y-3762284D01*
G01X20572600Y-3779556D01*
G01X20572600Y-3790986D01*
G01X20578442Y-3808004D01*
G01X20589872Y-3819434D01*
G01X20601302Y-3825276D01*
G01X20618320Y-3825276D01*
G01X20629750Y-3819434D01*
G01X20641180Y-3808004D01*
G01X20647022Y-3790986D01*
G01X20647022Y-3779556D01*
G01X20641180Y-3762284D01*
G01X20629750Y-3750854D01*
G01X20618320Y-3745266D01*
G01X20601302Y-3745266D01*
G01X20712046Y-3705134D02*
G01X20712046Y-3802416D01*
G01X20717634Y-3819434D01*
G01X20729064Y-3825276D01*
G01X20740494Y-3825276D01*
G01X20694774Y-3745266D02*
G01X20734906Y-3745266D01*
G01X20805518Y-3705134D02*
G01X20805518Y-3802416D01*
G01X20811106Y-3819434D01*
G01X20822536Y-3825276D01*
G01X20833966Y-3825276D01*
G01X20788246Y-3745266D02*
G01X20828378Y-3745266D01*
G01X20910420Y-3745266D02*
G01X20898990Y-3750854D01*
G01X20887560Y-3762284D01*
G01X20881718Y-3779556D01*
G01X20881718Y-3790986D01*
G01X20887560Y-3808004D01*
G01X20898990Y-3819434D01*
G01X20910420Y-3825276D01*
G01X20927438Y-3825276D01*
G01X20938868Y-3819434D01*
G01X20950298Y-3808004D01*
G01X20956140Y-3790986D01*
G01X20956140Y-3779556D01*
G01X20950298Y-3762284D01*
G01X20938868Y-3750854D01*
G01X20927438Y-3745266D01*
G01X20910420Y-3745266D01*
G01X21003892Y-3745266D02*
G01X21003892Y-3825276D01*
G01X21003892Y-3768126D02*
G01X21021164Y-3750854D01*
G01X21032594Y-3745266D01*
G01X21049612Y-3745266D01*
G01X21061042Y-3750854D01*
G01X21066884Y-3768126D01*
G01X21066884Y-3825276D01*
G01X21066884Y-3768126D02*
G01X21083902Y-3750854D01*
G01X21095332Y-3745266D01*
G01X21112604Y-3745266D01*
G01X21124034Y-3750854D01*
G01X21129622Y-3768126D01*
G01X21129622Y-3825276D01*
G01X21305390Y-3705134D02*
G01X21305390Y-3825276D01*
G01X21305390Y-3825276D02*
G01X21373970Y-3825276D01*
G01X21490302Y-3745266D02*
G01X21490302Y-3825276D01*
G01X21490302Y-3762284D02*
G01X21478872Y-3750854D01*
G01X21467442Y-3745266D01*
G01X21450424Y-3745266D01*
G01X21438994Y-3750854D01*
G01X21427564Y-3762284D01*
G01X21421722Y-3779556D01*
G01X21421722Y-3790986D01*
G01X21427564Y-3808004D01*
G01X21438994Y-3819434D01*
G01X21450424Y-3825276D01*
G01X21467442Y-3825276D01*
G01X21478872Y-3819434D01*
G01X21490302Y-3808004D01*
G01X21543896Y-3745266D02*
G01X21578186Y-3825276D01*
G01X21612476Y-3745266D02*
G01X21578186Y-3825276D01*
G01X21566756Y-3848136D01*
G01X21555326Y-3859566D01*
G01X21543896Y-3865154D01*
G01X21538054Y-3865154D01*
G01X21660228Y-3779556D02*
G01X21728808Y-3779556D01*
G01X21728808Y-3768126D01*
G01X21723220Y-3756696D01*
G01X21717378Y-3750854D01*
G01X21705948Y-3745266D01*
G01X21688930Y-3745266D01*
G01X21677500Y-3750854D01*
G01X21666070Y-3762284D01*
G01X21660228Y-3779556D01*
G01X21660228Y-3790986D01*
G01X21666070Y-3808004D01*
G01X21677500Y-3819434D01*
G01X21688930Y-3825276D01*
G01X21705948Y-3825276D01*
G01X21717378Y-3819434D01*
G01X21728808Y-3808004D01*
G01X21776560Y-3745266D02*
G01X21776560Y-3825276D01*
G01X21776560Y-3779556D02*
G01X21782402Y-3762284D01*
G01X21793832Y-3750854D01*
G01X21805262Y-3745266D01*
G01X21822280Y-3745266D01*
G01X7520447Y-4302978D02*
G01X7514859Y-4291548D01*
G01X7497587Y-4285706D01*
G01X7486157Y-4285706D01*
G01X7469139Y-4291548D01*
G01X7457709Y-4308566D01*
G01X7451867Y-4337268D01*
G01X7451867Y-4365716D01*
G01X7457709Y-4388576D01*
G01X7469139Y-4400006D01*
G01X7486157Y-4405848D01*
G01X7491999Y-4405848D01*
G01X7509017Y-4400006D01*
G01X7520447Y-4388576D01*
G01X7526289Y-4371558D01*
G01X7526289Y-4365716D01*
G01X7520447Y-4348698D01*
G01X7509017Y-4337268D01*
G01X7491999Y-4331426D01*
G01X7486157Y-4331426D01*
G01X7469139Y-4337268D01*
G01X7457709Y-4348698D01*
G01X7451867Y-4365716D01*
G01X8871872Y-4314408D02*
G01X8871872Y-4308566D01*
G01X8877460Y-4297136D01*
G01X8883302Y-4291548D01*
G01X8894732Y-4285706D01*
G01X8917592Y-4285706D01*
G01X8929022Y-4291548D01*
G01X8934610Y-4297136D01*
G01X8940452Y-4308566D01*
G01X8940452Y-4319996D01*
G01X8934610Y-4331426D01*
G01X8923180Y-4348698D01*
G01X8866030Y-4405848D01*
G01X8946040Y-4405848D01*
G01X9073802Y-4285706D02*
G01X9016652Y-4405848D01*
G01X8993792Y-4285706D02*
G01X9073802Y-4285706D01*
G01X9127396Y-4377146D02*
G01X9121554Y-4382988D01*
G01X9127396Y-4388576D01*
G01X9132984Y-4382988D01*
G01X9127396Y-4377146D01*
G01X9249316Y-4302978D02*
G01X9243728Y-4291548D01*
G01X9226456Y-4285706D01*
G01X9215026Y-4285706D01*
G01X9198008Y-4291548D01*
G01X9186578Y-4308566D01*
G01X9180736Y-4337268D01*
G01X9180736Y-4365716D01*
G01X9186578Y-4388576D01*
G01X9198008Y-4400006D01*
G01X9215026Y-4405848D01*
G01X9220868Y-4405848D01*
G01X9237886Y-4400006D01*
G01X9249316Y-4388576D01*
G01X9255158Y-4371558D01*
G01X9255158Y-4365716D01*
G01X9249316Y-4348698D01*
G01X9237886Y-4337268D01*
G01X9220868Y-4331426D01*
G01X9215026Y-4331426D01*
G01X9198008Y-4337268D01*
G01X9186578Y-4348698D01*
G01X9180736Y-4365716D01*
G01X9302910Y-4325838D02*
G01X9302910Y-4405848D01*
G01X9302910Y-4348698D02*
G01X9320182Y-4331426D01*
G01X9331612Y-4325838D01*
G01X9348630Y-4325838D01*
G01X9360060Y-4331426D01*
G01X9365902Y-4348698D01*
G01X9365902Y-4405848D01*
G01X9365902Y-4348698D02*
G01X9382920Y-4331426D01*
G01X9394350Y-4325838D01*
G01X9411622Y-4325838D01*
G01X9423052Y-4331426D01*
G01X9428640Y-4348698D01*
G01X9428640Y-4405848D01*
G01X9476392Y-4285706D02*
G01X9482234Y-4291548D01*
G01X9487822Y-4285706D01*
G01X9482234Y-4280118D01*
G01X9476392Y-4285706D01*
G01X9482234Y-4325838D02*
G01X9482234Y-4405848D01*
G01X9535574Y-4285706D02*
G01X9535574Y-4405848D01*
G01X9623458Y-4262846D02*
G01X9612028Y-4274276D01*
G01X9600598Y-4291548D01*
G01X9589168Y-4314408D01*
G01X9583326Y-4342856D01*
G01X9583326Y-4365716D01*
G01X9589168Y-4394418D01*
G01X9600598Y-4417278D01*
G01X9612028Y-4434296D01*
G01X9623458Y-4445726D01*
G01X9705500Y-4285706D02*
G01X9688482Y-4291548D01*
G01X9677052Y-4308566D01*
G01X9671210Y-4337268D01*
G01X9671210Y-4354286D01*
G01X9677052Y-4382988D01*
G01X9688482Y-4400006D01*
G01X9705500Y-4405848D01*
G01X9716930Y-4405848D01*
G01X9734202Y-4400006D01*
G01X9745632Y-4382988D01*
G01X9751220Y-4354286D01*
G01X9751220Y-4337268D01*
G01X9745632Y-4308566D01*
G01X9734202Y-4291548D01*
G01X9716930Y-4285706D01*
G01X9705500Y-4285706D01*
G01X9804814Y-4377146D02*
G01X9798972Y-4382988D01*
G01X9804814Y-4388576D01*
G01X9810402Y-4382988D01*
G01X9804814Y-4377146D01*
G01X9938164Y-4285706D02*
G01X9881014Y-4405848D01*
G01X9858154Y-4285706D02*
G01X9938164Y-4285706D01*
G01X10020206Y-4285706D02*
G01X10003188Y-4291548D01*
G01X9991758Y-4308566D01*
G01X9985916Y-4337268D01*
G01X9985916Y-4354286D01*
G01X9991758Y-4382988D01*
G01X10003188Y-4400006D01*
G01X10020206Y-4405848D01*
G01X10031636Y-4405848D01*
G01X10048908Y-4400006D01*
G01X10060338Y-4382988D01*
G01X10065926Y-4354286D01*
G01X10065926Y-4337268D01*
G01X10060338Y-4308566D01*
G01X10048908Y-4291548D01*
G01X10031636Y-4285706D01*
G01X10020206Y-4285706D01*
G01X10147968Y-4285706D02*
G01X10130950Y-4291548D01*
G01X10119520Y-4308566D01*
G01X10113678Y-4337268D01*
G01X10113678Y-4354286D01*
G01X10119520Y-4382988D01*
G01X10130950Y-4400006D01*
G01X10147968Y-4405848D01*
G01X10159398Y-4405848D01*
G01X10176670Y-4400006D01*
G01X10188100Y-4382988D01*
G01X10193688Y-4354286D01*
G01X10193688Y-4337268D01*
G01X10188100Y-4308566D01*
G01X10176670Y-4291548D01*
G01X10159398Y-4285706D01*
G01X10147968Y-4285706D01*
G01X10241440Y-4325838D02*
G01X10241440Y-4405848D01*
G01X10241440Y-4348698D02*
G01X10258712Y-4331426D01*
G01X10270142Y-4325838D01*
G01X10287160Y-4325838D01*
G01X10298590Y-4331426D01*
G01X10304432Y-4348698D01*
G01X10304432Y-4405848D01*
G01X10304432Y-4348698D02*
G01X10321450Y-4331426D01*
G01X10332880Y-4325838D01*
G01X10350152Y-4325838D01*
G01X10361582Y-4331426D01*
G01X10367170Y-4348698D01*
G01X10367170Y-4405848D01*
G01X10414922Y-4325838D02*
G01X10414922Y-4405848D01*
G01X10414922Y-4348698D02*
G01X10432194Y-4331426D01*
G01X10443624Y-4325838D01*
G01X10460642Y-4325838D01*
G01X10472072Y-4331426D01*
G01X10477914Y-4348698D01*
G01X10477914Y-4405848D01*
G01X10477914Y-4348698D02*
G01X10494932Y-4331426D01*
G01X10506362Y-4325838D01*
G01X10523634Y-4325838D01*
G01X10535064Y-4331426D01*
G01X10540652Y-4348698D01*
G01X10540652Y-4405848D01*
G01X10588404Y-4262846D02*
G01X10599834Y-4274276D01*
G01X10611264Y-4291548D01*
G01X10622694Y-4314408D01*
G01X10628536Y-4342856D01*
G01X10628536Y-4365716D01*
G01X10622694Y-4394418D01*
G01X10611264Y-4417278D01*
G01X10599834Y-4434296D01*
G01X10588404Y-4445726D01*
G01X12754153Y-4285706D02*
G01X12754153Y-4405848D01*
G01X12754153Y-4285706D02*
G01X12834163Y-4405848D01*
G01X12834163Y-4285706D02*
G01X12834163Y-4405848D01*
G01X12881915Y-4285706D02*
G01X12881915Y-4405848D01*
G01X12881915Y-4285706D02*
G01X12933477Y-4285706D01*
G01X12950495Y-4291548D01*
G01X12956337Y-4297136D01*
G01X12961925Y-4308566D01*
G01X12961925Y-4325838D01*
G01X12956337Y-4337268D01*
G01X12950495Y-4342856D01*
G01X12933477Y-4348698D01*
G01X12881915Y-4348698D01*
G01X13049809Y-4285706D02*
G01X13049809Y-4405848D01*
G01X13009677Y-4285706D02*
G01X13089687Y-4285706D01*
G01X13137439Y-4285706D02*
G01X13137439Y-4405848D01*
G01X13217449Y-4285706D02*
G01X13217449Y-4405848D01*
G01X13137439Y-4342856D02*
G01X13217449Y-4342856D01*
G01X14215560Y-4285706D02*
G01X14215560Y-4405848D01*
G01X14215560Y-4285706D02*
G01X14267122Y-4285706D01*
G01X14284140Y-4291548D01*
G01X14289982Y-4297136D01*
G01X14295570Y-4308566D01*
G01X14295570Y-4319996D01*
G01X14289982Y-4331426D01*
G01X14284140Y-4337268D01*
G01X14267122Y-4342856D01*
G01X14215560Y-4342856D01*
G01X14255692Y-4342856D02*
G01X14295570Y-4405848D01*
G01X14372024Y-4325838D02*
G01X14360594Y-4331426D01*
G01X14349164Y-4342856D01*
G01X14343322Y-4360128D01*
G01X14343322Y-4371558D01*
G01X14349164Y-4388576D01*
G01X14360594Y-4400006D01*
G01X14372024Y-4405848D01*
G01X14389042Y-4405848D01*
G01X14400472Y-4400006D01*
G01X14411902Y-4388576D01*
G01X14417744Y-4371558D01*
G01X14417744Y-4360128D01*
G01X14411902Y-4342856D01*
G01X14400472Y-4331426D01*
G01X14389042Y-4325838D01*
G01X14372024Y-4325838D01*
G01X14465496Y-4325838D02*
G01X14465496Y-4382988D01*
G01X14471338Y-4400006D01*
G01X14482768Y-4405848D01*
G01X14499786Y-4405848D01*
G01X14511216Y-4400006D01*
G01X14528488Y-4382988D01*
G01X14528488Y-4325838D02*
G01X14528488Y-4405848D01*
G01X14576240Y-4325838D02*
G01X14576240Y-4405848D01*
G01X14576240Y-4348698D02*
G01X14593512Y-4331426D01*
G01X14604942Y-4325838D01*
G01X14621960Y-4325838D01*
G01X14633390Y-4331426D01*
G01X14639232Y-4348698D01*
G01X14639232Y-4405848D01*
G01X14755564Y-4285706D02*
G01X14755564Y-4405848D01*
G01X14755564Y-4342856D02*
G01X14744134Y-4331426D01*
G01X14732704Y-4325838D01*
G01X14715686Y-4325838D01*
G01X14704256Y-4331426D01*
G01X14692826Y-4342856D01*
G01X14686984Y-4360128D01*
G01X14686984Y-4371558D01*
G01X14692826Y-4388576D01*
G01X14704256Y-4400006D01*
G01X14715686Y-4405848D01*
G01X14732704Y-4405848D01*
G01X14744134Y-4400006D01*
G01X14755564Y-4388576D01*
G01X15646741Y-4285706D02*
G01X15692461Y-4405848D01*
G01X15738181Y-4285706D02*
G01X15692461Y-4405848D01*
G01X15785933Y-4285706D02*
G01X15791775Y-4291548D01*
G01X15797363Y-4285706D01*
G01X15791775Y-4280118D01*
G01X15785933Y-4285706D01*
G01X15791775Y-4325838D02*
G01X15791775Y-4405848D01*
G01X15913695Y-4325838D02*
G01X15913695Y-4405848D01*
G01X15913695Y-4342856D02*
G01X15902265Y-4331426D01*
G01X15890835Y-4325838D01*
G01X15873817Y-4325838D01*
G01X15862387Y-4331426D01*
G01X15850957Y-4342856D01*
G01X15845115Y-4360128D01*
G01X15845115Y-4371558D01*
G01X15850957Y-4388576D01*
G01X15862387Y-4400006D01*
G01X15873817Y-4405848D01*
G01X15890835Y-4405848D01*
G01X15902265Y-4400006D01*
G01X15913695Y-4388576D01*
G01X19275422Y-4285706D02*
G01X19275422Y-4405848D01*
G01X19235290Y-4285706D02*
G01X19315300Y-4285706D01*
G01X19391754Y-4325838D02*
G01X19380324Y-4331426D01*
G01X19368894Y-4342856D01*
G01X19363052Y-4360128D01*
G01X19363052Y-4371558D01*
G01X19368894Y-4388576D01*
G01X19380324Y-4400006D01*
G01X19391754Y-4405848D01*
G01X19408772Y-4405848D01*
G01X19420202Y-4400006D01*
G01X19431632Y-4388576D01*
G01X19437474Y-4371558D01*
G01X19437474Y-4360128D01*
G01X19431632Y-4342856D01*
G01X19420202Y-4331426D01*
G01X19408772Y-4325838D01*
G01X19391754Y-4325838D01*
G01X19485226Y-4325838D02*
G01X19485226Y-4445726D01*
G01X19485226Y-4342856D02*
G01X19496656Y-4331426D01*
G01X19508086Y-4325838D01*
G01X19525358Y-4325838D01*
G01X19536788Y-4331426D01*
G01X19548218Y-4342856D01*
G01X19553806Y-4360128D01*
G01X19553806Y-4371558D01*
G01X19548218Y-4388576D01*
G01X19536788Y-4400006D01*
G01X19525358Y-4405848D01*
G01X19508086Y-4405848D01*
G01X19496656Y-4400006D01*
G01X19485226Y-4388576D01*
G01X19729574Y-4285706D02*
G01X19729574Y-4405848D01*
G01X19729574Y-4405848D02*
G01X19798154Y-4405848D01*
G01X19914486Y-4325838D02*
G01X19914486Y-4405848D01*
G01X19914486Y-4342856D02*
G01X19903056Y-4331426D01*
G01X19891626Y-4325838D01*
G01X19874608Y-4325838D01*
G01X19863178Y-4331426D01*
G01X19851748Y-4342856D01*
G01X19845906Y-4360128D01*
G01X19845906Y-4371558D01*
G01X19851748Y-4388576D01*
G01X19863178Y-4400006D01*
G01X19874608Y-4405848D01*
G01X19891626Y-4405848D01*
G01X19903056Y-4400006D01*
G01X19914486Y-4388576D01*
G01X19968080Y-4325838D02*
G01X20002370Y-4405848D01*
G01X20036660Y-4325838D02*
G01X20002370Y-4405848D01*
G01X19990940Y-4428708D01*
G01X19979510Y-4440138D01*
G01X19968080Y-4445726D01*
G01X19962238Y-4445726D01*
G01X20084412Y-4360128D02*
G01X20152992Y-4360128D01*
G01X20152992Y-4348698D01*
G01X20147404Y-4337268D01*
G01X20141562Y-4331426D01*
G01X20130132Y-4325838D01*
G01X20113114Y-4325838D01*
G01X20101684Y-4331426D01*
G01X20090254Y-4342856D01*
G01X20084412Y-4360128D01*
G01X20084412Y-4371558D01*
G01X20090254Y-4388576D01*
G01X20101684Y-4400006D01*
G01X20113114Y-4405848D01*
G01X20130132Y-4405848D01*
G01X20141562Y-4400006D01*
G01X20152992Y-4388576D01*
G01X20200744Y-4325838D02*
G01X20200744Y-4405848D01*
G01X20200744Y-4360128D02*
G01X20206586Y-4342856D01*
G01X20218016Y-4331426D01*
G01X20229446Y-4325838D01*
G01X20246464Y-4325838D01*
G01X20294216Y-4354286D02*
G01X20397086Y-4354286D01*
G01X20444838Y-4285706D02*
G01X20444838Y-4405848D01*
G01X20444838Y-4285706D02*
G01X20496400Y-4285706D01*
G01X20513418Y-4291548D01*
G01X20519260Y-4297136D01*
G01X20524848Y-4308566D01*
G01X20524848Y-4319996D01*
G01X20519260Y-4331426D01*
G01X20513418Y-4337268D01*
G01X20496400Y-4342856D01*
G01X20444838Y-4342856D02*
G01X20496400Y-4342856D01*
G01X20513418Y-4348698D01*
G01X20519260Y-4354286D01*
G01X20524848Y-4365716D01*
G01X20524848Y-4382988D01*
G01X20519260Y-4394418D01*
G01X20513418Y-4400006D01*
G01X20496400Y-4405848D01*
G01X20444838Y-4405848D01*
G01X20601302Y-4325838D02*
G01X20589872Y-4331426D01*
G01X20578442Y-4342856D01*
G01X20572600Y-4360128D01*
G01X20572600Y-4371558D01*
G01X20578442Y-4388576D01*
G01X20589872Y-4400006D01*
G01X20601302Y-4405848D01*
G01X20618320Y-4405848D01*
G01X20629750Y-4400006D01*
G01X20641180Y-4388576D01*
G01X20647022Y-4371558D01*
G01X20647022Y-4360128D01*
G01X20641180Y-4342856D01*
G01X20629750Y-4331426D01*
G01X20618320Y-4325838D01*
G01X20601302Y-4325838D01*
G01X20712046Y-4285706D02*
G01X20712046Y-4382988D01*
G01X20717634Y-4400006D01*
G01X20729064Y-4405848D01*
G01X20740494Y-4405848D01*
G01X20694774Y-4325838D02*
G01X20734906Y-4325838D01*
G01X20805518Y-4285706D02*
G01X20805518Y-4382988D01*
G01X20811106Y-4400006D01*
G01X20822536Y-4405848D01*
G01X20833966Y-4405848D01*
G01X20788246Y-4325838D02*
G01X20828378Y-4325838D01*
G01X20910420Y-4325838D02*
G01X20898990Y-4331426D01*
G01X20887560Y-4342856D01*
G01X20881718Y-4360128D01*
G01X20881718Y-4371558D01*
G01X20887560Y-4388576D01*
G01X20898990Y-4400006D01*
G01X20910420Y-4405848D01*
G01X20927438Y-4405848D01*
G01X20938868Y-4400006D01*
G01X20950298Y-4388576D01*
G01X20956140Y-4371558D01*
G01X20956140Y-4360128D01*
G01X20950298Y-4342856D01*
G01X20938868Y-4331426D01*
G01X20927438Y-4325838D01*
G01X20910420Y-4325838D01*
G01X21003892Y-4325838D02*
G01X21003892Y-4405848D01*
G01X21003892Y-4348698D02*
G01X21021164Y-4331426D01*
G01X21032594Y-4325838D01*
G01X21049612Y-4325838D01*
G01X21061042Y-4331426D01*
G01X21066884Y-4348698D01*
G01X21066884Y-4405848D01*
G01X21066884Y-4348698D02*
G01X21083902Y-4331426D01*
G01X21095332Y-4325838D01*
G01X21112604Y-4325838D01*
G01X21124034Y-4331426D01*
G01X21129622Y-4348698D01*
G01X21129622Y-4405848D01*
G01X21305390Y-4285706D02*
G01X21305390Y-4405848D01*
G01X21305390Y-4405848D02*
G01X21373970Y-4405848D01*
G01X21490302Y-4325838D02*
G01X21490302Y-4405848D01*
G01X21490302Y-4342856D02*
G01X21478872Y-4331426D01*
G01X21467442Y-4325838D01*
G01X21450424Y-4325838D01*
G01X21438994Y-4331426D01*
G01X21427564Y-4342856D01*
G01X21421722Y-4360128D01*
G01X21421722Y-4371558D01*
G01X21427564Y-4388576D01*
G01X21438994Y-4400006D01*
G01X21450424Y-4405848D01*
G01X21467442Y-4405848D01*
G01X21478872Y-4400006D01*
G01X21490302Y-4388576D01*
G01X21543896Y-4325838D02*
G01X21578186Y-4405848D01*
G01X21612476Y-4325838D02*
G01X21578186Y-4405848D01*
G01X21566756Y-4428708D01*
G01X21555326Y-4440138D01*
G01X21543896Y-4445726D01*
G01X21538054Y-4445726D01*
G01X21660228Y-4360128D02*
G01X21728808Y-4360128D01*
G01X21728808Y-4348698D01*
G01X21723220Y-4337268D01*
G01X21717378Y-4331426D01*
G01X21705948Y-4325838D01*
G01X21688930Y-4325838D01*
G01X21677500Y-4331426D01*
G01X21666070Y-4342856D01*
G01X21660228Y-4360128D01*
G01X21660228Y-4371558D01*
G01X21666070Y-4388576D01*
G01X21677500Y-4400006D01*
G01X21688930Y-4405848D01*
G01X21705948Y-4405848D01*
G01X21717378Y-4400006D01*
G01X21728808Y-4388576D01*
G01X21776560Y-4325838D02*
G01X21776560Y-4405848D01*
G01X21776560Y-4360128D02*
G01X21782402Y-4342856D01*
G01X21793832Y-4331426D01*
G01X21805262Y-4325838D01*
G01X21822280Y-4325838D01*
G01X7457709Y-4894979D02*
G01X7457709Y-4889137D01*
G01X7463297Y-4877707D01*
G01X7469139Y-4872119D01*
G01X7480569Y-4866277D01*
G01X7503429Y-4866277D01*
G01X7514859Y-4872119D01*
G01X7520447Y-4877707D01*
G01X7526289Y-4889137D01*
G01X7526289Y-4900567D01*
G01X7520447Y-4911997D01*
G01X7509017Y-4929269D01*
G01X7451867Y-4986419D01*
G01X7531877Y-4986419D01*
G01X7591059Y-4866277D02*
G01X7654051Y-4866277D01*
G01X7619761Y-4911997D01*
G01X7636779Y-4911997D01*
G01X7648209Y-4917839D01*
G01X7654051Y-4923427D01*
G01X7659639Y-4940699D01*
G01X7659639Y-4952129D01*
G01X7654051Y-4969147D01*
G01X7642621Y-4980577D01*
G01X7625349Y-4986419D01*
G01X7608331Y-4986419D01*
G01X7591059Y-4980577D01*
G01X7585471Y-4974989D01*
G01X7579629Y-4963559D01*
G01X8866030Y-4889137D02*
G01X8877460Y-4883549D01*
G01X8894732Y-4866277D01*
G01X8894732Y-4986419D01*
G01X8948326Y-4894979D02*
G01X8948326Y-4889137D01*
G01X8953914Y-4877707D01*
G01X8959756Y-4872119D01*
G01X8971186Y-4866277D01*
G01X8994046Y-4866277D01*
G01X9005476Y-4872119D01*
G01X9011064Y-4877707D01*
G01X9016906Y-4889137D01*
G01X9016906Y-4900567D01*
G01X9011064Y-4911997D01*
G01X8999634Y-4929269D01*
G01X8942484Y-4986419D01*
G01X9022494Y-4986419D01*
G01X9076088Y-4957717D02*
G01X9070246Y-4963559D01*
G01X9076088Y-4969147D01*
G01X9081676Y-4963559D01*
G01X9076088Y-4957717D01*
G01X9135270Y-4894979D02*
G01X9135270Y-4889137D01*
G01X9140858Y-4877707D01*
G01X9146700Y-4872119D01*
G01X9158130Y-4866277D01*
G01X9180990Y-4866277D01*
G01X9192420Y-4872119D01*
G01X9198008Y-4877707D01*
G01X9203850Y-4889137D01*
G01X9203850Y-4900567D01*
G01X9198008Y-4911997D01*
G01X9186578Y-4929269D01*
G01X9129428Y-4986419D01*
G01X9209438Y-4986419D01*
G01X9257190Y-4906409D02*
G01X9257190Y-4986419D01*
G01X9257190Y-4929269D02*
G01X9274462Y-4911997D01*
G01X9285892Y-4906409D01*
G01X9302910Y-4906409D01*
G01X9314340Y-4911997D01*
G01X9320182Y-4929269D01*
G01X9320182Y-4986419D01*
G01X9320182Y-4929269D02*
G01X9337200Y-4911997D01*
G01X9348630Y-4906409D01*
G01X9365902Y-4906409D01*
G01X9377332Y-4911997D01*
G01X9382920Y-4929269D01*
G01X9382920Y-4986419D01*
G01X9430672Y-4866277D02*
G01X9436514Y-4872119D01*
G01X9442102Y-4866277D01*
G01X9436514Y-4860689D01*
G01X9430672Y-4866277D01*
G01X9436514Y-4906409D02*
G01X9436514Y-4986419D01*
G01X9489854Y-4866277D02*
G01X9489854Y-4986419D01*
G01X9577738Y-4843417D02*
G01X9566308Y-4854847D01*
G01X9554878Y-4872119D01*
G01X9543448Y-4894979D01*
G01X9537606Y-4923427D01*
G01X9537606Y-4946287D01*
G01X9543448Y-4974989D01*
G01X9554878Y-4997849D01*
G01X9566308Y-5014867D01*
G01X9577738Y-5026297D01*
G01X9659780Y-4866277D02*
G01X9642762Y-4872119D01*
G01X9631332Y-4889137D01*
G01X9625490Y-4917839D01*
G01X9625490Y-4934857D01*
G01X9631332Y-4963559D01*
G01X9642762Y-4980577D01*
G01X9659780Y-4986419D01*
G01X9671210Y-4986419D01*
G01X9688482Y-4980577D01*
G01X9699912Y-4963559D01*
G01X9705500Y-4934857D01*
G01X9705500Y-4917839D01*
G01X9699912Y-4889137D01*
G01X9688482Y-4872119D01*
G01X9671210Y-4866277D01*
G01X9659780Y-4866277D01*
G01X9759094Y-4957717D02*
G01X9753252Y-4963559D01*
G01X9759094Y-4969147D01*
G01X9764682Y-4963559D01*
G01X9759094Y-4957717D01*
G01X9823864Y-4866277D02*
G01X9886856Y-4866277D01*
G01X9852566Y-4911997D01*
G01X9869584Y-4911997D01*
G01X9881014Y-4917839D01*
G01X9886856Y-4923427D01*
G01X9892444Y-4940699D01*
G01X9892444Y-4952129D01*
G01X9886856Y-4969147D01*
G01X9875426Y-4980577D01*
G01X9858154Y-4986419D01*
G01X9841136Y-4986419D01*
G01X9823864Y-4980577D01*
G01X9818276Y-4974989D01*
G01X9812434Y-4963559D01*
G01X9940196Y-4889137D02*
G01X9951626Y-4883549D01*
G01X9968898Y-4866277D01*
G01X9968898Y-4986419D01*
G01X10050940Y-4866277D02*
G01X10033922Y-4872119D01*
G01X10022492Y-4889137D01*
G01X10016650Y-4917839D01*
G01X10016650Y-4934857D01*
G01X10022492Y-4963559D01*
G01X10033922Y-4980577D01*
G01X10050940Y-4986419D01*
G01X10062370Y-4986419D01*
G01X10079642Y-4980577D01*
G01X10091072Y-4963559D01*
G01X10096660Y-4934857D01*
G01X10096660Y-4917839D01*
G01X10091072Y-4889137D01*
G01X10079642Y-4872119D01*
G01X10062370Y-4866277D01*
G01X10050940Y-4866277D01*
G01X10144412Y-4906409D02*
G01X10144412Y-4986419D01*
G01X10144412Y-4929269D02*
G01X10161684Y-4911997D01*
G01X10173114Y-4906409D01*
G01X10190132Y-4906409D01*
G01X10201562Y-4911997D01*
G01X10207404Y-4929269D01*
G01X10207404Y-4986419D01*
G01X10207404Y-4929269D02*
G01X10224422Y-4911997D01*
G01X10235852Y-4906409D01*
G01X10253124Y-4906409D01*
G01X10264554Y-4911997D01*
G01X10270142Y-4929269D01*
G01X10270142Y-4986419D01*
G01X10317894Y-4906409D02*
G01X10317894Y-4986419D01*
G01X10317894Y-4929269D02*
G01X10335166Y-4911997D01*
G01X10346596Y-4906409D01*
G01X10363614Y-4906409D01*
G01X10375044Y-4911997D01*
G01X10380886Y-4929269D01*
G01X10380886Y-4986419D01*
G01X10380886Y-4929269D02*
G01X10397904Y-4911997D01*
G01X10409334Y-4906409D01*
G01X10426606Y-4906409D01*
G01X10438036Y-4911997D01*
G01X10443624Y-4929269D01*
G01X10443624Y-4986419D01*
G01X10491376Y-4843417D02*
G01X10502806Y-4854847D01*
G01X10514236Y-4872119D01*
G01X10525666Y-4894979D01*
G01X10531508Y-4923427D01*
G01X10531508Y-4946287D01*
G01X10525666Y-4974989D01*
G01X10514236Y-4997849D01*
G01X10502806Y-5014867D01*
G01X10491376Y-5026297D01*
G01X12754153Y-4866277D02*
G01X12754153Y-4986419D01*
G01X12754153Y-4866277D02*
G01X12805715Y-4866277D01*
G01X12822733Y-4872119D01*
G01X12828575Y-4877707D01*
G01X12834163Y-4889137D01*
G01X12834163Y-4906409D01*
G01X12828575Y-4917839D01*
G01X12822733Y-4923427D01*
G01X12805715Y-4929269D01*
G01X12754153Y-4929269D01*
G01X12922047Y-4866277D02*
G01X12922047Y-4986419D01*
G01X12881915Y-4866277D02*
G01X12961925Y-4866277D01*
G01X13009677Y-4866277D02*
G01X13009677Y-4986419D01*
G01X13089687Y-4866277D02*
G01X13089687Y-4986419D01*
G01X13009677Y-4923427D02*
G01X13089687Y-4923427D01*
G01X14215560Y-4866277D02*
G01X14215560Y-4986419D01*
G01X14215560Y-4866277D02*
G01X14267122Y-4866277D01*
G01X14284140Y-4872119D01*
G01X14289982Y-4877707D01*
G01X14295570Y-4889137D01*
G01X14295570Y-4900567D01*
G01X14289982Y-4911997D01*
G01X14284140Y-4917839D01*
G01X14267122Y-4923427D01*
G01X14215560Y-4923427D01*
G01X14255692Y-4923427D02*
G01X14295570Y-4986419D01*
G01X14372024Y-4906409D02*
G01X14360594Y-4911997D01*
G01X14349164Y-4923427D01*
G01X14343322Y-4940699D01*
G01X14343322Y-4952129D01*
G01X14349164Y-4969147D01*
G01X14360594Y-4980577D01*
G01X14372024Y-4986419D01*
G01X14389042Y-4986419D01*
G01X14400472Y-4980577D01*
G01X14411902Y-4969147D01*
G01X14417744Y-4952129D01*
G01X14417744Y-4940699D01*
G01X14411902Y-4923427D01*
G01X14400472Y-4911997D01*
G01X14389042Y-4906409D01*
G01X14372024Y-4906409D01*
G01X14465496Y-4906409D02*
G01X14465496Y-4963559D01*
G01X14471338Y-4980577D01*
G01X14482768Y-4986419D01*
G01X14499786Y-4986419D01*
G01X14511216Y-4980577D01*
G01X14528488Y-4963559D01*
G01X14528488Y-4906409D02*
G01X14528488Y-4986419D01*
G01X14576240Y-4906409D02*
G01X14576240Y-4986419D01*
G01X14576240Y-4929269D02*
G01X14593512Y-4911997D01*
G01X14604942Y-4906409D01*
G01X14621960Y-4906409D01*
G01X14633390Y-4911997D01*
G01X14639232Y-4929269D01*
G01X14639232Y-4986419D01*
G01X14755564Y-4866277D02*
G01X14755564Y-4986419D01*
G01X14755564Y-4923427D02*
G01X14744134Y-4911997D01*
G01X14732704Y-4906409D01*
G01X14715686Y-4906409D01*
G01X14704256Y-4911997D01*
G01X14692826Y-4923427D01*
G01X14686984Y-4940699D01*
G01X14686984Y-4952129D01*
G01X14692826Y-4969147D01*
G01X14704256Y-4980577D01*
G01X14715686Y-4986419D01*
G01X14732704Y-4986419D01*
G01X14744134Y-4980577D01*
G01X14755564Y-4969147D01*
G01X15646741Y-4866277D02*
G01X15692461Y-4986419D01*
G01X15738181Y-4866277D02*
G01X15692461Y-4986419D01*
G01X15785933Y-4866277D02*
G01X15791775Y-4872119D01*
G01X15797363Y-4866277D01*
G01X15791775Y-4860689D01*
G01X15785933Y-4866277D01*
G01X15791775Y-4906409D02*
G01X15791775Y-4986419D01*
G01X15913695Y-4906409D02*
G01X15913695Y-4986419D01*
G01X15913695Y-4923427D02*
G01X15902265Y-4911997D01*
G01X15890835Y-4906409D01*
G01X15873817Y-4906409D01*
G01X15862387Y-4911997D01*
G01X15850957Y-4923427D01*
G01X15845115Y-4940699D01*
G01X15845115Y-4952129D01*
G01X15850957Y-4969147D01*
G01X15862387Y-4980577D01*
G01X15873817Y-4986419D01*
G01X15890835Y-4986419D01*
G01X15902265Y-4980577D01*
G01X15913695Y-4969147D01*
G01X19275422Y-4866277D02*
G01X19275422Y-4986419D01*
G01X19235290Y-4866277D02*
G01X19315300Y-4866277D01*
G01X19391754Y-4906409D02*
G01X19380324Y-4911997D01*
G01X19368894Y-4923427D01*
G01X19363052Y-4940699D01*
G01X19363052Y-4952129D01*
G01X19368894Y-4969147D01*
G01X19380324Y-4980577D01*
G01X19391754Y-4986419D01*
G01X19408772Y-4986419D01*
G01X19420202Y-4980577D01*
G01X19431632Y-4969147D01*
G01X19437474Y-4952129D01*
G01X19437474Y-4940699D01*
G01X19431632Y-4923427D01*
G01X19420202Y-4911997D01*
G01X19408772Y-4906409D01*
G01X19391754Y-4906409D01*
G01X19485226Y-4906409D02*
G01X19485226Y-5026297D01*
G01X19485226Y-4923427D02*
G01X19496656Y-4911997D01*
G01X19508086Y-4906409D01*
G01X19525358Y-4906409D01*
G01X19536788Y-4911997D01*
G01X19548218Y-4923427D01*
G01X19553806Y-4940699D01*
G01X19553806Y-4952129D01*
G01X19548218Y-4969147D01*
G01X19536788Y-4980577D01*
G01X19525358Y-4986419D01*
G01X19508086Y-4986419D01*
G01X19496656Y-4980577D01*
G01X19485226Y-4969147D01*
G01X19729574Y-4866277D02*
G01X19729574Y-4986419D01*
G01X19729574Y-4986419D02*
G01X19798154Y-4986419D01*
G01X19914486Y-4906409D02*
G01X19914486Y-4986419D01*
G01X19914486Y-4923427D02*
G01X19903056Y-4911997D01*
G01X19891626Y-4906409D01*
G01X19874608Y-4906409D01*
G01X19863178Y-4911997D01*
G01X19851748Y-4923427D01*
G01X19845906Y-4940699D01*
G01X19845906Y-4952129D01*
G01X19851748Y-4969147D01*
G01X19863178Y-4980577D01*
G01X19874608Y-4986419D01*
G01X19891626Y-4986419D01*
G01X19903056Y-4980577D01*
G01X19914486Y-4969147D01*
G01X19968080Y-4906409D02*
G01X20002370Y-4986419D01*
G01X20036660Y-4906409D02*
G01X20002370Y-4986419D01*
G01X19990940Y-5009279D01*
G01X19979510Y-5020709D01*
G01X19968080Y-5026297D01*
G01X19962238Y-5026297D01*
G01X20084412Y-4940699D02*
G01X20152992Y-4940699D01*
G01X20152992Y-4929269D01*
G01X20147404Y-4917839D01*
G01X20141562Y-4911997D01*
G01X20130132Y-4906409D01*
G01X20113114Y-4906409D01*
G01X20101684Y-4911997D01*
G01X20090254Y-4923427D01*
G01X20084412Y-4940699D01*
G01X20084412Y-4952129D01*
G01X20090254Y-4969147D01*
G01X20101684Y-4980577D01*
G01X20113114Y-4986419D01*
G01X20130132Y-4986419D01*
G01X20141562Y-4980577D01*
G01X20152992Y-4969147D01*
G01X20200744Y-4906409D02*
G01X20200744Y-4986419D01*
G01X20200744Y-4940699D02*
G01X20206586Y-4923427D01*
G01X20218016Y-4911997D01*
G01X20229446Y-4906409D01*
G01X20246464Y-4906409D01*
G01X20294216Y-4934857D02*
G01X20397086Y-4934857D01*
G01X20444838Y-4866277D02*
G01X20444838Y-4986419D01*
G01X20444838Y-4866277D02*
G01X20496400Y-4866277D01*
G01X20513418Y-4872119D01*
G01X20519260Y-4877707D01*
G01X20524848Y-4889137D01*
G01X20524848Y-4900567D01*
G01X20519260Y-4911997D01*
G01X20513418Y-4917839D01*
G01X20496400Y-4923427D01*
G01X20444838Y-4923427D02*
G01X20496400Y-4923427D01*
G01X20513418Y-4929269D01*
G01X20519260Y-4934857D01*
G01X20524848Y-4946287D01*
G01X20524848Y-4963559D01*
G01X20519260Y-4974989D01*
G01X20513418Y-4980577D01*
G01X20496400Y-4986419D01*
G01X20444838Y-4986419D01*
G01X20601302Y-4906409D02*
G01X20589872Y-4911997D01*
G01X20578442Y-4923427D01*
G01X20572600Y-4940699D01*
G01X20572600Y-4952129D01*
G01X20578442Y-4969147D01*
G01X20589872Y-4980577D01*
G01X20601302Y-4986419D01*
G01X20618320Y-4986419D01*
G01X20629750Y-4980577D01*
G01X20641180Y-4969147D01*
G01X20647022Y-4952129D01*
G01X20647022Y-4940699D01*
G01X20641180Y-4923427D01*
G01X20629750Y-4911997D01*
G01X20618320Y-4906409D01*
G01X20601302Y-4906409D01*
G01X20712046Y-4866277D02*
G01X20712046Y-4963559D01*
G01X20717634Y-4980577D01*
G01X20729064Y-4986419D01*
G01X20740494Y-4986419D01*
G01X20694774Y-4906409D02*
G01X20734906Y-4906409D01*
G01X20805518Y-4866277D02*
G01X20805518Y-4963559D01*
G01X20811106Y-4980577D01*
G01X20822536Y-4986419D01*
G01X20833966Y-4986419D01*
G01X20788246Y-4906409D02*
G01X20828378Y-4906409D01*
G01X20910420Y-4906409D02*
G01X20898990Y-4911997D01*
G01X20887560Y-4923427D01*
G01X20881718Y-4940699D01*
G01X20881718Y-4952129D01*
G01X20887560Y-4969147D01*
G01X20898990Y-4980577D01*
G01X20910420Y-4986419D01*
G01X20927438Y-4986419D01*
G01X20938868Y-4980577D01*
G01X20950298Y-4969147D01*
G01X20956140Y-4952129D01*
G01X20956140Y-4940699D01*
G01X20950298Y-4923427D01*
G01X20938868Y-4911997D01*
G01X20927438Y-4906409D01*
G01X20910420Y-4906409D01*
G01X21003892Y-4906409D02*
G01X21003892Y-4986419D01*
G01X21003892Y-4929269D02*
G01X21021164Y-4911997D01*
G01X21032594Y-4906409D01*
G01X21049612Y-4906409D01*
G01X21061042Y-4911997D01*
G01X21066884Y-4929269D01*
G01X21066884Y-4986419D01*
G01X21066884Y-4929269D02*
G01X21083902Y-4911997D01*
G01X21095332Y-4906409D01*
G01X21112604Y-4906409D01*
G01X21124034Y-4911997D01*
G01X21129622Y-4929269D01*
G01X21129622Y-4986419D01*
G01X21305390Y-4866277D02*
G01X21305390Y-4986419D01*
G01X21305390Y-4986419D02*
G01X21373970Y-4986419D01*
G01X21490302Y-4906409D02*
G01X21490302Y-4986419D01*
G01X21490302Y-4923427D02*
G01X21478872Y-4911997D01*
G01X21467442Y-4906409D01*
G01X21450424Y-4906409D01*
G01X21438994Y-4911997D01*
G01X21427564Y-4923427D01*
G01X21421722Y-4940699D01*
G01X21421722Y-4952129D01*
G01X21427564Y-4969147D01*
G01X21438994Y-4980577D01*
G01X21450424Y-4986419D01*
G01X21467442Y-4986419D01*
G01X21478872Y-4980577D01*
G01X21490302Y-4969147D01*
G01X21543896Y-4906409D02*
G01X21578186Y-4986419D01*
G01X21612476Y-4906409D02*
G01X21578186Y-4986419D01*
G01X21566756Y-5009279D01*
G01X21555326Y-5020709D01*
G01X21543896Y-5026297D01*
G01X21538054Y-5026297D01*
G01X21660228Y-4940699D02*
G01X21728808Y-4940699D01*
G01X21728808Y-4929269D01*
G01X21723220Y-4917839D01*
G01X21717378Y-4911997D01*
G01X21705948Y-4906409D01*
G01X21688930Y-4906409D01*
G01X21677500Y-4911997D01*
G01X21666070Y-4923427D01*
G01X21660228Y-4940699D01*
G01X21660228Y-4952129D01*
G01X21666070Y-4969147D01*
G01X21677500Y-4980577D01*
G01X21688930Y-4986419D01*
G01X21705948Y-4986419D01*
G01X21717378Y-4980577D01*
G01X21728808Y-4969147D01*
G01X21776560Y-4906409D02*
G01X21776560Y-4986419D01*
G01X21776560Y-4940699D02*
G01X21782402Y-4923427D01*
G01X21793832Y-4911997D01*
G01X21805262Y-4906409D01*
G01X21822280Y-4906409D01*

G04 Image Start*
G36*
G01X6155378Y-4789714D02*
G01X6320478Y-4954814D01*
G01X6155378Y-5119914D01*
G01X5990278Y-4954814D01*
G01X6026194Y-4954814D01*
G01X6155378Y-5083999D01*
G01X6284563Y-4954814D01*
G01X6155378Y-4825630D01*
G01X6155378Y-4825630D01*
G01X6026194Y-4954814D01*
G01X5990278Y-4954814D01*
G01X6155378Y-4789714D01*
G37*
G36*
G01X6287255Y-2724604D02*
G01X6181642Y-2713123D01*
G01X6138767Y-2810329D01*
G01X6095892Y-2713123D01*
G01X5990278Y-2724604D01*
G01X6053042Y-2638879D01*
G01X6013319Y-2584624D01*
G01X6044812Y-2584624D01*
G01X6084512Y-2638879D01*
G01X6044812Y-2693133D01*
G01X6111640Y-2685869D01*
G01X6111640Y-2685869D01*
G01X6138767Y-2747362D01*
G01X6165894Y-2685869D01*
G01X6232721Y-2693133D01*
G01X6193021Y-2638879D01*
G01X6232696Y-2584650D01*
G01X6165869Y-2591914D01*
G01X6138767Y-2530395D01*
G01X6111640Y-2591889D01*
G01X6044812Y-2584624D01*
G01X6013319Y-2584624D01*
G01X5990278Y-2553154D01*
G01X6095917Y-2564634D01*
G01X6138767Y-2467429D01*
G01X6181642Y-2564634D01*
G01X6287255Y-2553154D01*
G01X6224492Y-2638879D01*
G01X6287255Y-2724604D01*
G37*
G36*
G01X6158262Y-1610299D02*
G01X6150521Y-1610887D01*
G01X6142678Y-1611086D01*
G01X6134835Y-1610887D01*
G01X6127095Y-1610299D01*
G01X6119468Y-1609330D01*
G01X6111962Y-1607990D01*
G01X6097356Y-1604235D01*
G01X6083354Y-1599110D01*
G01X6070032Y-1592693D01*
G01X6057467Y-1585060D01*
G01X6045735Y-1576287D01*
G01X6034912Y-1566452D01*
G01X6025077Y-1555629D01*
G01X6016304Y-1543897D01*
G01X6008671Y-1531332D01*
G01X6002254Y-1518010D01*
G01X5997129Y-1504008D01*
G01X5993374Y-1489402D01*
G01X5992034Y-1481896D01*
G01X5991065Y-1474269D01*
G01X5990477Y-1466529D01*
G01X5990278Y-1458686D01*
G01X6015678Y-1458686D01*
G01X6016335Y-1471652D01*
G01X6018263Y-1484248D01*
G01X6021398Y-1496410D01*
G01X6025674Y-1508072D01*
G01X6031029Y-1519172D01*
G01X6037398Y-1529643D01*
G01X6044715Y-1539423D01*
G01X6052918Y-1548446D01*
G01X6061941Y-1556649D01*
G01X6071721Y-1563966D01*
G01X6082192Y-1570335D01*
G01X6093292Y-1575690D01*
G01X6104954Y-1579966D01*
G01X6117116Y-1583101D01*
G01X6117116Y-1583101D01*
G01X6129712Y-1585029D01*
G01X6142678Y-1585686D01*
G01X6155645Y-1585029D01*
G01X6168241Y-1583101D01*
G01X6180402Y-1579966D01*
G01X6192065Y-1575690D01*
G01X6203164Y-1570335D01*
G01X6213636Y-1563966D01*
G01X6223415Y-1556649D01*
G01X6232439Y-1548446D01*
G01X6240641Y-1539423D01*
G01X6247959Y-1529643D01*
G01X6254327Y-1519172D01*
G01X6259682Y-1508072D01*
G01X6263959Y-1496410D01*
G01X6267094Y-1484248D01*
G01X6269021Y-1471652D01*
G01X6269678Y-1458686D01*
G01X6269021Y-1445719D01*
G01X6267094Y-1433123D01*
G01X6263959Y-1420962D01*
G01X6259682Y-1409299D01*
G01X6254327Y-1398200D01*
G01X6247959Y-1387728D01*
G01X6240641Y-1377949D01*
G01X6232439Y-1368925D01*
G01X6223415Y-1360723D01*
G01X6213636Y-1353405D01*
G01X6203164Y-1347037D01*
G01X6192065Y-1341682D01*
G01X6180402Y-1337405D01*
G01X6168241Y-1334271D01*
G01X6155645Y-1332343D01*
G01X6142678Y-1331686D01*
G01X6129712Y-1332343D01*
G01X6117116Y-1334271D01*
G01X6104954Y-1337405D01*
G01X6093292Y-1341682D01*
G01X6082192Y-1347037D01*
G01X6071721Y-1353405D01*
G01X6061941Y-1360723D01*
G01X6052918Y-1368925D01*
G01X6044715Y-1377949D01*
G01X6037398Y-1387728D01*
G01X6031029Y-1398200D01*
G01X6025674Y-1409299D01*
G01X6021398Y-1420962D01*
G01X6018263Y-1433123D01*
G01X6016335Y-1445719D01*
G01X6015678Y-1458686D01*
G01X5990278Y-1458686D01*
G01X5990477Y-1450843D01*
G01X5991065Y-1443102D01*
G01X5992034Y-1435475D01*
G01X5993374Y-1427970D01*
G01X5997129Y-1413364D01*
G01X6002254Y-1399362D01*
G01X6008671Y-1386040D01*
G01X6016304Y-1373474D01*
G01X6025077Y-1361742D01*
G01X6034912Y-1350920D01*
G01X6045735Y-1341084D01*
G01X6057467Y-1332311D01*
G01X6070032Y-1324678D01*
G01X6083354Y-1318261D01*
G01X6097356Y-1313137D01*
G01X6111962Y-1309382D01*
G01X6119468Y-1308042D01*
G01X6127095Y-1307072D01*
G01X6134835Y-1306484D01*
G01X6142678Y-1306286D01*
G01X6150521Y-1306484D01*
G01X6158262Y-1307072D01*
G01X6165889Y-1308042D01*
G01X6173394Y-1309382D01*
G01X6188000Y-1313137D01*
G01X6202002Y-1318261D01*
G01X6215324Y-1324678D01*
G01X6227890Y-1332311D01*
G01X6239622Y-1341084D01*
G01X6250444Y-1350920D01*
G01X6260280Y-1361742D01*
G01X6269053Y-1373474D01*
G01X6276686Y-1386040D01*
G01X6283103Y-1399362D01*
G01X6288227Y-1413364D01*
G01X6291982Y-1427970D01*
G01X6293322Y-1435475D01*
G01X6294292Y-1443102D01*
G01X6294880Y-1450843D01*
G01X6295078Y-1458686D01*
G01X6294880Y-1466529D01*
G01X6294292Y-1474269D01*
G01X6293322Y-1481896D01*
G01X6291982Y-1489402D01*
G01X6288227Y-1504008D01*
G01X6283103Y-1518010D01*
G01X6276686Y-1531332D01*
G01X6269053Y-1543897D01*
G01X6260280Y-1555629D01*
G01X6250444Y-1566452D01*
G01X6239622Y-1576287D01*
G01X6227890Y-1585060D01*
G01X6215324Y-1592693D01*
G01X6202002Y-1599110D01*
G01X6188000Y-1604235D01*
G01X6173394Y-1607990D01*
G01X6165889Y-1609330D01*
G01X6158262Y-1610299D01*
G37*
G36*
G01X6295078Y-3850237D02*
G01X6211970Y-3850237D01*
G01X6211970Y-3933371D01*
G01X6073413Y-3933371D01*
G01X6073413Y-3850263D01*
G01X5990278Y-3850263D01*
G01X5990278Y-3737106D01*
G01X6015678Y-3737106D01*
G01X6015678Y-3824837D01*
G01X6098813Y-3824837D01*
G01X6098813Y-3907971D01*
G01X6098813Y-3907971D01*
G01X6186544Y-3907971D01*
G01X6186544Y-3824863D01*
G01X6269678Y-3824863D01*
G01X6269678Y-3737106D01*
G01X6186544Y-3737106D01*
G01X6186544Y-3653971D01*
G01X6098813Y-3653971D01*
G01X6098813Y-3737106D01*
G01X6015678Y-3737106D01*
G01X5990278Y-3737106D01*
G01X5990278Y-3711706D01*
G01X6073413Y-3711706D01*
G01X6073413Y-3628571D01*
G01X6211944Y-3628571D01*
G01X6211944Y-3711706D01*
G01X6295078Y-3711706D01*
G01X6295078Y-3850237D01*
G37*
G36*
G01X6295078Y-3048000D02*
G01X6225051Y-3200400D01*
G01X6295078Y-3352800D01*
G01X6142678Y-3282772D01*
G01X5990278Y-3352800D01*
G01X6014041Y-3301086D01*
G01X6041993Y-3301086D01*
G01X6132061Y-3259684D01*
G01X6142678Y-3254807D01*
G01X6153296Y-3259684D01*
G01X6243364Y-3301086D01*
G01X6201962Y-3211017D01*
G01X6197085Y-3200400D01*
G01X6201962Y-3189783D01*
G01X6243364Y-3099714D01*
G01X6153296Y-3141116D01*
G01X6142678Y-3145993D01*
G01X6132061Y-3141116D01*
G01X6041993Y-3099714D01*
G01X6083395Y-3189783D01*
G01X6088272Y-3200400D01*
G01X6088272Y-3200400D01*
G01X6083395Y-3211017D01*
G01X6041993Y-3301086D01*
G01X6014041Y-3301086D01*
G01X6060306Y-3200400D01*
G01X5990278Y-3048000D01*
G01X6142678Y-3118028D01*
G01X6295078Y-3048000D01*
G37*
G36*
G01X5990278Y-1886857D02*
G01X6295078Y-1886857D01*
G01X6142678Y-2150814D01*
G01X6004943Y-1912257D01*
G01X6034271Y-1912257D01*
G01X6142678Y-2100014D01*
G01X6251086Y-1912257D01*
G01X6251086Y-1912257D01*
G01X6034271Y-1912257D01*
G01X6004943Y-1912257D01*
G01X5990278Y-1886857D01*
G37*
G36*
G01X6269678Y-4488543D02*
G01X6168078Y-4488543D01*
G01X6129978Y-4412343D01*
G01X6091878Y-4488543D01*
G01X5990278Y-4488543D01*
G01X5990278Y-4463143D01*
G01X6015678Y-4463143D01*
G01X6076181Y-4463143D01*
G01X6107245Y-4400989D01*
G01X6129978Y-4355548D01*
G01X6152711Y-4400989D01*
G01X6183776Y-4463143D01*
G01X6244278Y-4463143D01*
G01X6244278Y-4402640D01*
G01X6182125Y-4371550D01*
G01X6136684Y-4348843D01*
G01X6182125Y-4326135D01*
G01X6244278Y-4295046D01*
G01X6244278Y-4234543D01*
G01X6183776Y-4234543D01*
G01X6152711Y-4296697D01*
G01X6129978Y-4342137D01*
G01X6107245Y-4296697D01*
G01X6076181Y-4234543D01*
G01X6015678Y-4234543D01*
G01X6015678Y-4295046D01*
G01X6077832Y-4326135D01*
G01X6123273Y-4348843D01*
G01X6077832Y-4371550D01*
G01X6015678Y-4402640D01*
G01X6015678Y-4463143D01*
G01X6015678Y-4463143D01*
G01X5990278Y-4463143D01*
G01X5990278Y-4386943D01*
G01X6066478Y-4348843D01*
G01X5990278Y-4310743D01*
G01X5990278Y-4209143D01*
G01X6091878Y-4209143D01*
G01X6129978Y-4285343D01*
G01X6168078Y-4209143D01*
G01X6269678Y-4209143D01*
G01X6269678Y-4310743D01*
G01X6193478Y-4348843D01*
G01X6269678Y-4386943D01*
G01X6269678Y-4488543D01*
G37*
G36*
G01X5990278Y-725714D02*
G01X6269678Y-725714D01*
G01X6269678Y-1005114D01*
G01X5990278Y-1005114D01*
G01X5990278Y-751114D01*
G01X6015678Y-751114D01*
G01X6015678Y-979714D01*
G01X6244278Y-979714D01*
G01X6244278Y-751114D01*
G01X6244278Y-751114D01*
G01X6015678Y-751114D01*
G01X5990278Y-751114D01*
G01X5990278Y-725714D01*
G37*

G04 PolygonModel Start*
G54D19*
G01X5699993Y-5225143D02*
G01X22413011Y-5225143D01*
G01X5699993Y-4644571D02*
G01X22413011Y-4644571D01*
G01X5699993Y-4064000D02*
G01X22413011Y-4064000D01*
G01X5699993Y-3483429D02*
G01X22413011Y-3483429D01*
G01X5699993Y-2902857D02*
G01X22413011Y-2902857D01*
G01X5699993Y-2322286D02*
G01X22413011Y-2322286D01*
G01X5699993Y-1741714D02*
G01X22413011Y-1741714D01*
G01X5699993Y-1161143D02*
G01X22413011Y-1161143D01*
G01X5699993Y-580571D02*
G01X22413011Y-580571D01*
G01X5699993Y0D02*
G01X22413011Y0D01*
G01X5699993Y0D02*
G01X5699993Y-5199743D01*
G01X7151421Y0D02*
G01X7151421Y-5199743D01*
G01X8565584Y0D02*
G01X8565584Y-5199743D01*
G01X12453707Y0D02*
G01X12453707Y-5199743D01*
G01X13915115Y0D02*
G01X13915115Y-5199743D01*
G01X15346296Y0D02*
G01X15346296Y-5199743D01*
G01X17015475Y0D02*
G01X17015475Y-5199743D01*
G01X18934844Y0D02*
G01X18934844Y-5199743D01*
G01X22413011Y0D02*
G01X22413011Y-5199743D01*

M02*

