G04 Layer: TopSolderMaskLayer*
G04 EasyEDA v6.5.54, 2026-06-19 11:45:45*
G04 6a2118062d98413c807dd24a82e81eea,7ea0ab90f84049098100ea965be8407d,10*
G04 Gerber Generator version 0.2*
G04 Scale: 100 percent, Rotated: No, Reflected: No *
G04 Dimensions in millimeters *
G04 leading zeros omitted , absolute positions ,4 integer and 5 decimal *
%FSLAX45Y45*%
%MOMM*%

%AMMACRO1*4,1,8,-0.5811,-1.4908,-0.6108,-1.461,-0.6108,1.4611,-0.5811,1.4908,0.581,1.4908,0.6108,1.4611,0.6108,-1.461,0.581,-1.4908,-0.5811,-1.4908,0*%
%AMMACRO2*4,1,8,0.581,-1.4908,-0.581,-1.4908,-0.6108,-1.461,-0.6108,1.4611,-0.5811,1.4908,0.5811,1.4908,0.6108,1.4611,0.6108,-1.461,0.581,-1.4908,0*%
%AMMACRO3*4,1,8,0.581,-1.4908,-0.581,-1.4908,-0.6108,-1.461,-0.6108,1.4611,-0.581,1.4908,0.581,1.4908,0.6108,1.4611,0.6108,-1.461,0.581,-1.4908,0*%
%AMMACRO4*4,1,8,-0.0564,-0.6518,-0.6518,-0.0564,-0.6518,-0.0143,0.0143,0.6518,0.0564,0.6518,0.6518,0.0564,0.6518,0.0143,-0.0143,-0.6518,-0.0564,-0.6518,0*%
%AMMACRO5*4,1,8,-0.4211,-0.5008,-0.4508,-0.471,-0.4508,0.4711,-0.4211,0.5008,0.421,0.5008,0.4508,0.4711,0.4508,-0.471,0.421,-0.5008,-0.4211,-0.5008,0*%
%AMMACRO6*4,1,8,0.0143,-0.6518,-0.6518,0.0143,-0.6518,0.0564,-0.0564,0.6518,-0.0143,0.6518,0.6518,-0.0143,0.6518,-0.0564,0.0564,-0.6518,0.0143,-0.6518,0*%
%AMMACRO7*4,1,8,-0.4711,-0.4508,-0.5008,-0.421,-0.5008,0.4211,-0.4711,0.4508,0.471,0.4508,0.5008,0.4211,0.5008,-0.421,0.471,-0.4508,-0.4711,-0.4508,0*%
%AMMACRO8*4,1,8,-0.0414,-0.6414,-0.6414,-0.0414,-0.6414,0.0007,-0.0007,0.6414,0.0414,0.6414,0.6414,0.0414,0.6414,-0.0007,0.0007,-0.6414,-0.0414,-0.6414,0*%
%AMMACRO9*4,1,8,-0.4531,-0.454,-0.4828,-0.4243,-0.4828,0.4243,-0.4531,0.454,0.453,0.454,0.4828,0.4243,0.4828,-0.4243,0.453,-0.454,-0.4531,-0.454,0*%
%AMMACRO10*4,1,8,-0.4243,-0.4828,-0.454,-0.453,-0.454,0.4531,-0.4243,0.4828,0.4243,0.4828,0.454,0.4531,0.454,-0.453,0.4243,-0.4828,-0.4243,-0.4828,0*%
%AMMACRO11*4,1,8,0.3152,-0.5626,-0.5626,0.3152,-0.5626,0.3566,-0.3566,0.5626,-0.3152,0.5626,0.5626,-0.3152,0.5626,-0.3566,0.3566,-0.5626,0.3152,-0.5626,0*%
%AMMACRO12*4,1,8,-0.5707,-0.325,-0.6,-0.2957,-0.6,0.2957,-0.5707,0.325,0.5707,0.325,0.6,0.2957,0.6,-0.2957,0.5707,-0.325,-0.5707,-0.325,0*%
%AMMACRO13*4,1,8,0.5707,-0.325,-0.5707,-0.325,-0.6,-0.2957,-0.6,0.2957,-0.5707,0.325,0.5707,0.325,0.6,0.2957,0.6,-0.2957,0.5707,-0.325,0*%
%AMMACRO14*4,1,8,-0.5707,-0.2,-0.6,-0.1707,-0.6,0.1707,-0.5707,0.2,0.5707,0.2,0.6,0.1707,0.6,-0.1707,0.5707,-0.2,-0.5707,-0.2,0*%
%AMMACRO15*4,1,8,-0.2957,-0.6,-0.325,-0.5707,-0.325,0.5707,-0.2957,0.6,0.2957,0.6,0.325,0.5707,0.325,-0.5707,0.2957,-0.6,-0.2957,-0.6,0*%
%AMMACRO16*4,1,8,0.2957,-0.6,-0.2957,-0.6,-0.325,-0.5707,-0.325,0.5707,-0.2957,0.6,0.2957,0.6,0.325,0.5707,0.325,-0.5707,0.2957,-0.6,0*%
%AMMACRO17*4,1,8,-0.1707,-0.6,-0.2,-0.5707,-0.2,0.5707,-0.1707,0.6,0.1707,0.6,0.2,0.5707,0.2,-0.5707,0.1707,-0.6,-0.1707,-0.6,0*%
%AMMACRO18*4,1,8,-0.1707,-0.6,-0.2001,-0.5707,-0.2,0.5707,-0.1707,0.6,0.1707,0.6,0.2001,0.5707,0.2001,-0.5707,0.1707,-0.6,-0.1707,-0.6,0*%
%AMMACRO19*4,1,8,-0.1708,-0.6,-0.2001,-0.5707,-0.2,0.5707,-0.1707,0.6,0.1708,0.6,0.2001,0.5707,0.2,-0.5707,0.1707,-0.6,-0.1708,-0.6,0*%
%AMMACRO20*4,1,8,-0.1707,-0.6,-0.2,-0.5707,-0.2001,0.5707,-0.1707,0.6,0.1707,0.6,0.2001,0.5707,0.2001,-0.5707,0.1707,-0.6,-0.1707,-0.6,0*%
%AMMACRO21*4,1,8,0.2957,-0.6,-0.2957,-0.6,-0.3251,-0.5707,-0.325,0.5707,-0.2957,0.6,0.2957,0.6,0.3251,0.5707,0.325,-0.5707,0.2957,-0.6,0*%
%AMMACRO22*4,1,8,-1.4611,-0.6108,-1.4908,-0.581,-1.4908,0.5811,-1.4611,0.6108,1.461,0.6108,1.4908,0.5811,1.4908,-0.581,1.461,-0.6108,-1.4611,-0.6108,0*%
%AMMACRO23*4,1,8,-1.4611,-0.6108,-1.4908,-0.581,-1.4908,0.5811,-1.461,0.6108,1.4611,0.6108,1.4908,0.5811,1.4908,-0.581,1.4611,-0.6108,-1.4611,-0.6108,0*%
%AMMACRO24*4,1,8,-1.461,-0.6108,-1.4908,-0.5811,-1.4908,0.5811,-1.4611,0.6108,1.4611,0.6108,1.4908,0.581,1.4908,-0.5811,1.4611,-0.6108,-1.461,-0.6108,0*%
%AMMACRO25*4,1,8,-1.4611,-0.6108,-1.4908,-0.581,-1.4908,0.581,-1.4611,0.6108,1.4611,0.6108,1.4908,0.581,1.4908,-0.581,1.461,-0.6108,-1.4611,-0.6108,0*%
%AMMACRO26*4,1,8,0.1737,-0.6334,-0.6334,0.1737,-0.6334,0.2151,-0.2152,0.6334,-0.1738,0.6334,0.6334,-0.1738,0.6334,-0.2152,0.2152,-0.6334,0.1737,-0.6334,0*%
%AMMACRO27*4,1,8,0.1737,-0.6334,-0.6334,0.1737,-0.6334,0.2152,-0.2152,0.6334,-0.1737,0.6334,0.6334,-0.1737,0.6334,-0.2151,0.2152,-0.6334,0.1737,-0.6334,0*%
%AMMACRO28*4,1,8,0.2621,-0.545,-0.545,0.2621,-0.545,0.3035,-0.3035,0.545,-0.2621,0.545,0.545,-0.2621,0.545,-0.3035,0.3036,-0.545,0.2621,-0.545,0*%
%AMMACRO29*4,1,8,0.2621,-0.545,-0.545,0.2621,-0.545,0.3036,-0.3035,0.545,-0.2621,0.545,0.545,-0.2621,0.545,-0.3036,0.3036,-0.545,0.2621,-0.545,0*%
%AMMACRO30*4,1,8,0.2622,-0.545,-0.545,0.2622,-0.545,0.3036,-0.3035,0.545,-0.2621,0.545,0.545,-0.2621,0.545,-0.3036,0.3036,-0.545,0.2622,-0.545,0*%
%AMMACRO31*4,1,8,0.2621,-0.545,-0.545,0.2621,-0.545,0.3035,-0.3036,0.545,-0.2621,0.545,0.545,-0.2621,0.545,-0.3035,0.3036,-0.545,0.2621,-0.545,0*%
%AMMACRO32*4,1,8,0.2621,-0.545,-0.545,0.2621,-0.545,0.3036,-0.3035,0.545,-0.2621,0.545,0.545,-0.2621,0.545,-0.3035,0.3035,-0.545,0.2621,-0.545,0*%
%AMMACRO33*4,1,8,0.2621,-0.545,-0.545,0.2621,-0.545,0.3035,-0.3036,0.545,-0.2622,0.545,0.545,-0.2621,0.545,-0.3035,0.3035,-0.545,0.2621,-0.545,0*%
%AMMACRO34*4,1,8,0.2621,-0.545,-0.545,0.2621,-0.545,0.3036,-0.3036,0.545,-0.2622,0.545,0.545,-0.2621,0.545,-0.3035,0.3036,-0.545,0.2621,-0.545,0*%
%AMMACRO35*4,1,8,0.1737,-0.6334,-0.6334,0.1737,-0.6334,0.2151,-0.2152,0.6334,-0.1737,0.6334,0.6334,-0.1738,0.6334,-0.2152,0.2151,-0.6334,0.1737,-0.6334,0*%
%AMMACRO36*1,1,$1,$2,$3*1,1,$1,$4,$5*20,1,$1,$2,$3,$4,$5,0*%
%ADD10MACRO1*%
%ADD11MACRO2*%
%ADD12MACRO3*%
%ADD13O,1.301598X3.201594*%
%ADD14MACRO4*%
%ADD15MACRO5*%
%ADD16MACRO6*%
%ADD17C,0.0106*%
%ADD18MACRO7*%
%ADD19MACRO8*%
%ADD20MACRO9*%
%ADD21MACRO10*%
%ADD22MACRO11*%
%ADD23MACRO12*%
%ADD24MACRO13*%
%ADD25MACRO14*%
%ADD26O,2.100021X1.200023*%
%ADD27O,1.900022X1.300023*%
%ADD28MACRO15*%
%ADD29MACRO16*%
%ADD30MACRO17*%
%ADD31MACRO18*%
%ADD32MACRO19*%
%ADD33MACRO20*%
%ADD34MACRO21*%
%ADD35O,1.200023X2.100021*%
%ADD36O,1.300023X1.900022*%
%ADD37MACRO22*%
%ADD38MACRO23*%
%ADD39MACRO24*%
%ADD40MACRO25*%
%ADD41O,3.201594X1.301598*%
%ADD42MACRO26*%
%ADD43MACRO27*%
%ADD44MACRO28*%
%ADD45MACRO29*%
%ADD46MACRO30*%
%ADD47MACRO31*%
%ADD48MACRO32*%
%ADD49MACRO33*%
%ADD50MACRO34*%
%ADD51MACRO35*%
%ADD52MACRO36,1.2X-0.3182X0.3182X0.3182X-0.3182*%
%ADD53MACRO36,1.3X-0.2121X0.2121X0.2121X-0.2121*%
%ADD54C,1.6256*%

%LPD*%
D10*
G01*
X2191499Y-2658953D03*
G01*
X1941499Y-2658952D03*
D11*
G01*
X1741500Y-2658953D03*
D12*
G01*
X1491499Y-2658954D03*
D13*
G01*
X2486507Y-3537940D03*
G01*
X1196492Y-3537940D03*
D14*
G01*
X1040095Y-1522694D03*
G01*
X941101Y-1423703D03*
D15*
G01*
X768200Y-1739900D03*
G01*
X908199Y-1739900D03*
G01*
X1809899Y-914400D03*
G01*
X1669900Y-914400D03*
D16*
G01*
X1220501Y-1751295D03*
G01*
X1319495Y-1652301D03*
G01*
X1347501Y-1878295D03*
G01*
X1446495Y-1779301D03*
G01*
X1700495Y-2033301D03*
G01*
X1601501Y-2132295D03*
G01*
X1827495Y-2160301D03*
G01*
X1728501Y-2259295D03*
G01*
X2386295Y-2274601D03*
G01*
X2287301Y-2373595D03*
G01*
X2259295Y-2147601D03*
G01*
X2160301Y-2246595D03*
D18*
G01*
X2421260Y-2546205D03*
G01*
X2421260Y-2686204D03*
G01*
X1292984Y-2686199D03*
G01*
X1292984Y-2546200D03*
D19*
G01*
X1305634Y-1051637D03*
G01*
X1412161Y-1158163D03*
G01*
X1064336Y-1292936D03*
G01*
X1170861Y-1399461D03*
D20*
G01*
X927100Y-2310524D03*
G01*
X927100Y-2159875D03*
G01*
X749300Y-2310524D03*
G01*
X749300Y-2159875D03*
G01*
X2235200Y-737475D03*
G01*
X2235200Y-888124D03*
D21*
G01*
X1664575Y-740351D03*
G01*
X1815224Y-740351D03*
D22*
G01*
X1883490Y-1481451D03*
G01*
X1846009Y-1518928D03*
G01*
X1808534Y-1556404D03*
G01*
X1771056Y-1593881D03*
G01*
X1733581Y-1631356D03*
G01*
X1696104Y-1668834D03*
G01*
X1658628Y-1706309D03*
G01*
X1621152Y-1743787D03*
G01*
X1875709Y-1998344D03*
G01*
X1913187Y-1960868D03*
G01*
X1950662Y-1923393D03*
G01*
X1988140Y-1885915D03*
G01*
X2025615Y-1848440D03*
G01*
X2063093Y-1810962D03*
G01*
X2100568Y-1773487D03*
G01*
X2138044Y-1736009D03*
D23*
G01*
X605803Y-1686598D03*
D24*
G01*
X605803Y-1766608D03*
D25*
G01*
X605803Y-1831606D03*
G01*
X605803Y-1881619D03*
G01*
X605803Y-1931606D03*
G01*
X605803Y-1981593D03*
G01*
X605803Y-2031606D03*
G01*
X605803Y-2081593D03*
G01*
X605803Y-2131606D03*
G01*
X605803Y-2181618D03*
D23*
G01*
X605803Y-2246617D03*
G01*
X605803Y-2326601D03*
D26*
G01*
X550824Y-1574114D03*
G01*
X550824Y-2439111D03*
D27*
G01*
X130810Y-1574114D03*
G01*
X130810Y-2439111D03*
D28*
G01*
X2339301Y-593105D03*
D29*
G01*
X2259288Y-593103D03*
D30*
G01*
X2194293Y-593102D03*
D31*
G01*
X2144278Y-593103D03*
G01*
X2094290Y-593105D03*
G01*
X2044303Y-593102D03*
D30*
G01*
X1994293Y-593105D03*
G01*
X1944305Y-593103D03*
D32*
G01*
X1894292Y-593105D03*
D33*
G01*
X1844278Y-593101D03*
D34*
G01*
X1779281Y-593103D03*
D28*
G01*
X1699298Y-593103D03*
D35*
G01*
X2451811Y-538124D03*
G01*
X1586814Y-538124D03*
D36*
G01*
X2451811Y-118110D03*
G01*
X1586814Y-118110D03*
D37*
G01*
X2659303Y-1504200D03*
D38*
G01*
X2659301Y-1754200D03*
D39*
G01*
X2659301Y-1954197D03*
D40*
G01*
X2659303Y-2204198D03*
D41*
G01*
X3538296Y-1209192D03*
G01*
X3538296Y-2499207D03*
D42*
G01*
X1283216Y-843363D03*
D43*
G01*
X1226638Y-899941D03*
D44*
G01*
X1180675Y-945901D03*
D45*
G01*
X1145311Y-981264D03*
D46*
G01*
X1109967Y-1016610D03*
D47*
G01*
X1074620Y-1051956D03*
D48*
G01*
X1039256Y-1087324D03*
D49*
G01*
X1003914Y-1122667D03*
D50*
G01*
X968547Y-1158031D03*
D48*
G01*
X933183Y-1193396D03*
D51*
G01*
X887224Y-1239356D03*
D42*
G01*
X830665Y-1295913D03*
D52*
G01*
X1323873Y-724941D03*
G01*
X712241Y-1336573D03*
D53*
G01*
X1026896Y-427939D03*
G01*
X415239Y-1039596D03*
D54*
G01*
X2413000Y-914400D03*
G01*
X1892300Y-406400D03*
G01*
X1066800Y-1854200D03*
M02*
