G04 Layer: TopSolderMaskLayer*
G04 EasyEDA Pro v3.2.148, 2026-06-19 23:32:46*
G04 Gerber Generator version 0.3*
G04 Scale: 100 percent, Rotated: No, Reflected: No*
G04 Dimensions in millimeters*
G04 Leading zeros omitted, absolute positions, 4 integers and 5 decimals*
G04 Generated by one-click*
G04 Object Configs: Pad,Via,Track,Text,Image,Dimension,BoardOutline,BoardCutout,CopperFilled,SolidRegion,FPCStiffener,Line,PlaneZone,ComponentProperty,ComponentSilkscreen,TearDrop*
G04 Layer Configs: 1,2,3,4,5,6,7,8,9,10,11,13,14,56*
G04 Copper Areas: 0*
%FSLAX45Y45*%
%MOMM*%
%AMRoundRect*1,1,$1,$2,$3*1,1,$1,$4,$5*1,1,$1,0-$2,0-$3*1,1,$1,0-$4,0-$5*20,1,$1,$2,$3,$4,$5,0*20,1,$1,$4,$5,0-$2,0-$3,0*20,1,$1,0-$2,0-$3,0-$4,0-$5,0*20,1,$1,0-$4,0-$5,$2,$3,0*4,1,4,$2,$3,$4,$5,0-$2,0-$3,0-$4,0-$5,$2,$3,0*%
%AMOval*1,1,$1,$2,$3*1,1,$1,$4,$5*20,1,$1,$2,$3,$4,$5,0*%
%ADD10C,1.6256*%
%ADD11RoundRect,0.1016X-0.55999X1.44X0.55999X1.44*%
%ADD12O,1.3016X3.20159*%
%ADD13RoundRect,0.1016X-0.03536X-0.60104X-0.60104X-0.03536*%
%ADD14RoundRect,0.1016X-0.4X0.45X0.4X0.45*%
%ADD15RoundRect,0.1016X-0.60104X0.03536X-0.03536X0.60104*%
%ADD16RoundRect,0.1016X-0.45X-0.4X-0.45X0.4*%
%ADD17RoundRect,0.1016X-0.02034X-0.5906X-0.5906X-0.02034*%
%ADD18RoundRect,0.1011X-0.432X-0.40324X-0.432X0.40324*%
%ADD19RoundRect,0.1016X-0.432X-0.40324X-0.432X0.40324*%
%ADD20RoundRect,0.1016X-0.40324X0.432X0.40324X0.432*%
%ADD21RoundRect,0.10003X0.33587X-0.51266X-0.51266X0.33587*%
%ADD22RoundRect,0.10003X-0.55X-0.27501X-0.55X0.27501*%
%ADD23RoundRect,0.10003X-0.55X-0.15X-0.55X0.15*%
%ADD24O,2.10002X1.20002*%
%ADD25O,1.90002X1.30002*%
%ADD26RoundRect,0.10003X-0.27501X0.55X0.27501X0.55*%
%ADD27RoundRect,0.10003X-0.15X0.55X0.15X0.55*%
%ADD28O,1.20002X2.10002*%
%ADD29O,1.30002X1.90002*%
%ADD30RoundRect,0.1016X-1.44X-0.55999X-1.44X0.55999*%
%ADD31O,3.20159X1.3016*%
%ADD32RoundRect,0.10003X-0.58337X0.19445X-0.19445X0.58337*%
%ADD33RoundRect,0.10003X-0.49497X0.28284X-0.28284X0.49497*%
%ADD34Oval,1.20002X-0.3182X0.3182X0.3182X-0.3182*%
%ADD35Oval,1.30002X-0.21213X0.21213X0.21213X-0.21213*%
G75*


G04 Pad Start*
G54D10*
G01X2413000Y-914400D03*
G01X1892300Y-406400D03*
G01X1066800Y-1854200D03*
G54D11*
G01X2191512Y-2658948D03*
G01X1941500Y-2658948D03*
G01X1741500Y-2658948D03*
G01X1491513Y-2658948D03*
G54D12*
G01X2486508Y-3537941D03*
G01X1196492Y-3537941D03*
G54D13*
G01X1040105Y-1522705D03*
G01X941095Y-1423695D03*
G54D14*
G01X768198Y-1739900D03*
G01X908202Y-1739900D03*
G01X1809902Y-914400D03*
G01X1669898Y-914400D03*
G54D15*
G01X1220495Y-1751305D03*
G01X1319505Y-1652295D03*
G01X1347495Y-1878305D03*
G01X1446505Y-1779295D03*
G01X1700505Y-2033295D03*
G01X1601495Y-2132305D03*
G01X1827505Y-2160295D03*
G01X1728495Y-2259305D03*
G01X2386305Y-2274595D03*
G01X2287295Y-2373605D03*
G01X2259305Y-2147595D03*
G01X2160295Y-2246605D03*
G54D16*
G01X2421255Y-2546198D03*
G01X2421255Y-2686202D03*
G01X1292987Y-2686202D03*
G01X1292987Y-2546198D03*
G54D17*
G01X1305636Y-1051636D03*
G01X1412164Y-1158164D03*
G01X1064336Y-1292936D03*
G01X1170864Y-1399464D03*
G54D19*
G01X927100Y-2310536D03*
G01X927100Y-2159864D03*
G01X749300Y-2310536D03*
G01X749300Y-2159864D03*
G01X2235200Y-737464D03*
G01X2235200Y-888136D03*
G54D20*
G01X1664564Y-740359D03*
G01X1815236Y-740359D03*
G54D21*
G01X1883486Y-1481455D03*
G01X1846021Y-1518920D03*
G01X1808531Y-1556410D03*
G01X1771066Y-1593875D03*
G01X1733575Y-1631366D03*
G01X1696110Y-1668831D03*
G01X1658620Y-1706321D03*
G01X1621155Y-1743786D03*
G01X1875714Y-1998345D03*
G01X1913179Y-1960880D03*
G01X1950669Y-1923390D03*
G01X1988134Y-1885925D03*
G01X2025625Y-1848434D03*
G01X2063090Y-1810969D03*
G01X2100580Y-1773479D03*
G01X2138045Y-1736014D03*
G54D22*
G01X605815Y-1686611D03*
G01X605815Y-1766621D03*
G54D23*
G01X605815Y-1831619D03*
G01X605815Y-1881632D03*
G01X605815Y-1931619D03*
G01X605815Y-1981606D03*
G01X605815Y-2031619D03*
G01X605815Y-2081606D03*
G01X605815Y-2131619D03*
G01X605815Y-2181631D03*
G54D22*
G01X605815Y-2246630D03*
G01X605815Y-2326615D03*
G54D24*
G01X550824Y-1574114D03*
G01X550824Y-2439111D03*
G54D25*
G01X130810Y-1574114D03*
G01X130810Y-2439111D03*
G54D26*
G01X2339315Y-593115D03*
G01X2259279Y-593115D03*
G54D27*
G01X2194281Y-593115D03*
G01X2144268Y-593115D03*
G01X2094281Y-593115D03*
G01X2044294Y-593115D03*
G01X1994281Y-593115D03*
G01X1944319Y-593115D03*
G01X1894281Y-593115D03*
G01X1844269Y-593115D03*
G54D26*
G01X1779295Y-593115D03*
G01X1699311Y-593115D03*
G54D28*
G01X2451811Y-538124D03*
G01X1586814Y-538124D03*
G54D29*
G01X2451811Y-118110D03*
G01X1586814Y-118110D03*
G54D30*
G01X2659304Y-1504213D03*
G01X2659304Y-1754200D03*
G01X2659304Y-1954200D03*
G01X2659304Y-2204187D03*
G54D31*
G01X3538296Y-1209192D03*
G01X3538296Y-2499208D03*
G54D32*
G01X1283208Y-843356D03*
G01X1226642Y-899947D03*
G54D33*
G01X1180668Y-945896D03*
G01X1145311Y-981278D03*
G01X1109980Y-1016610D03*
G01X1074623Y-1051966D03*
G01X1039266Y-1087323D03*
G01X1003910Y-1122680D03*
G01X968553Y-1158037D03*
G01X933196Y-1193394D03*
G54D32*
G01X887222Y-1239368D03*
G01X830656Y-1295908D03*
G54D34*
G01X1323873Y-724941D03*
G01X712241Y-1336573D03*
G54D35*
G01X1026897Y-427939D03*
G01X415239Y-1039597D03*
G04 Pad End*

M02*

