G04 Layer: BottomLayer*
G04 EasyEDA Pro v3.2.148, 2026-06-19 23:32:46*
G04 Gerber Generator version 0.3*
G04 Scale: 100 percent, Rotated: No, Reflected: No*
G04 Dimensions in millimeters*
G04 Leading zeros omitted, absolute positions, 4 integers and 5 decimals*
G04 Generated by one-click*
G04 Object Configs: Pad,Via,Track,Text,Image,Dimension,BoardOutline,BoardCutout,CopperFilled,SolidRegion,FPCStiffener,Line,PlaneZone,ComponentProperty,ComponentSilkscreen,TearDrop*
G04 Layer Configs: 1,2,3,4,5,6,7,8,9,10,11,13,14,56*
G04 Copper Areas: 53*
%FSLAX45Y45*%
%MOMM*%
%AMOval*1,1,$1,$2,$3*1,1,$1,$4,$5*20,1,$1,$2,$3,$4,$5,0*%
%ADD10C,0.254*%
%ADD11C,1.524*%
%ADD12O,1.2X3.09999*%
%ADD13O,2.0X1.1*%
%ADD14O,1.8X1.2*%
%ADD15O,1.1X2.0*%
%ADD16O,1.2X1.8*%
%ADD17O,3.1000X1.2*%
%ADD18O,3.09999X1.2*%
%ADD19Oval,1.1X-0.3182X0.3182X0.3182X-0.3182*%
%ADD20Oval,1.2X-0.21213X0.21213X0.21213X-0.21213*%
%ADD21C,0.62001*%
G75*


G04 Copper Start*
G36*
G01X15494Y-2431511D02*
G01X15494Y-2295627D01*
G01X438150Y-2295627D01*
G01X439913Y-2310142D01*
G01X445098Y-2323814D01*
G01X453404Y-2335848D01*
G01X464349Y-2345545D01*
G01X477297Y-2352340D01*
G01X491494Y-2355840D01*
G01X506116Y-2355840D01*
G01X520314Y-2352340D01*
G01X533261Y-2345545D01*
G01X544206Y-2335848D01*
G01X552513Y-2323814D01*
G01X557698Y-2310142D01*
G01X559460Y-2295627D01*
G01X557698Y-2281111D01*
G01X552513Y-2267439D01*
G01X544206Y-2255405D01*
G01X533261Y-2245708D01*
G01X520314Y-2238913D01*
G01X506116Y-2235414D01*
G01X491494Y-2235414D01*
G01X477297Y-2238913D01*
G01X464349Y-2245708D01*
G01X453404Y-2255405D01*
G01X445098Y-2267439D01*
G01X439913Y-2281111D01*
G01X438150Y-2295627D01*
G01X438150Y-2295627D01*
G01X15494Y-2295627D01*
G01X15494Y-1854988D01*
G01X375151Y-1854988D01*
G01X377357Y-1869876D01*
G01X383406Y-1883658D01*
G01X392869Y-1895360D01*
G01X405080Y-1904158D01*
G01X419177Y-1909431D01*
G01X434165Y-1910805D01*
G01X448014Y-1924654D01*
G01X448014Y-1924654D01*
G01X434137Y-1925501D01*
G01X420885Y-1929701D01*
G01X409055Y-1937003D01*
G01X399359Y-1946965D01*
G01X392381Y-1958989D01*
G01X388541Y-1972350D01*
G01X388070Y-1986244D01*
G01X390997Y-1999834D01*
G01X397146Y-2012302D01*
G01X406146Y-2022898D01*
G01X406146Y-2130002D01*
G01X396520Y-2141572D01*
G01X390281Y-2155268D01*
G01X387867Y-2170123D01*
G01X389450Y-2185090D01*
G01X394918Y-2199112D01*
G01X403885Y-2211200D01*
G01X415719Y-2220499D01*
G01X429583Y-2226356D01*
G01X444500Y-2228355D01*
G01X459417Y-2226356D01*
G01X473281Y-2220499D01*
G01X485115Y-2211200D01*
G01X494082Y-2199112D01*
G01X499550Y-2185090D01*
G01X501133Y-2170123D01*
G01X498719Y-2155268D01*
G01X492480Y-2141572D01*
G01X482854Y-2130002D01*
G01X482854Y-2022898D01*
G01X491104Y-2013416D01*
G01X497060Y-2002348D01*
G01X500429Y-1990240D01*
G01X501046Y-1977686D01*
G01X671380Y-2148020D01*
G01X679323Y-2154116D01*
G01X688573Y-2157947D01*
G01X698500Y-2159254D01*
G01X1012402Y-2159254D01*
G01X1023972Y-2168880D01*
G01X1037668Y-2175119D01*
G01X1052523Y-2177533D01*
G01X1067490Y-2175950D01*
G01X1081512Y-2170482D01*
G01X1093600Y-2161515D01*
G01X1102899Y-2149681D01*
G01X1108756Y-2135817D01*
G01X1110755Y-2120900D01*
G01X1108756Y-2105983D01*
G01X1102899Y-2092119D01*
G01X1093600Y-2080285D01*
G01X1081512Y-2071318D01*
G01X1067490Y-2065850D01*
G01X1052523Y-2064267D01*
G01X1037668Y-2066681D01*
G01X1023972Y-2072920D01*
G01X1012402Y-2082546D01*
G01X714387Y-2082546D01*
G01X667151Y-2035310D01*
G01X1950042Y-2035310D01*
G01X1952805Y-2049771D01*
G01X1959200Y-2063033D01*
G01X1968797Y-2074198D01*
G01X1980946Y-2082514D01*
G01X1980946Y-2371302D01*
G01X1971320Y-2382872D01*
G01X1965081Y-2396568D01*
G01X1962667Y-2411423D01*
G01X1964250Y-2426390D01*
G01X1969718Y-2440412D01*
G01X1978685Y-2452500D01*
G01X1990519Y-2461799D01*
G01X2004383Y-2467656D01*
G01X2019300Y-2469655D01*
G01X2034217Y-2467656D01*
G01X2048081Y-2461799D01*
G01X2059915Y-2452500D01*
G01X2068882Y-2440412D01*
G01X2074350Y-2426390D01*
G01X2075933Y-2411423D01*
G01X2073519Y-2396568D01*
G01X2067280Y-2382872D01*
G01X2057654Y-2371302D01*
G01X2057654Y-2056561D01*
G01X2062259Y-2042577D01*
G01X2063105Y-2027879D01*
G01X2060135Y-2013459D01*
G01X2053550Y-2000291D01*
G01X2043794Y-1989264D01*
G01X2031527Y-1981124D01*
G01X2017576Y-1976419D01*
G01X2002884Y-1975467D01*
G01X1988443Y-1978334D01*
G01X1988443Y-1978334D01*
G01X1975228Y-1984824D01*
G01X1964132Y-1994500D01*
G01X1955904Y-2006709D01*
G01X1951099Y-2020626D01*
G01X1950042Y-2035310D01*
G01X667151Y-2035310D01*
G01X488405Y-1856565D01*
G01X487031Y-1841577D01*
G01X481758Y-1827480D01*
G01X472960Y-1815269D01*
G01X461258Y-1805806D01*
G01X447476Y-1799757D01*
G01X432588Y-1797551D01*
G01X417645Y-1799342D01*
G01X403701Y-1805005D01*
G01X391739Y-1814139D01*
G01X382605Y-1826101D01*
G01X376942Y-1840045D01*
G01X375151Y-1854988D01*
G01X15494Y-1854988D01*
G01X15494Y-1738323D01*
G01X298967Y-1738323D01*
G01X300550Y-1753290D01*
G01X306018Y-1767312D01*
G01X314985Y-1779400D01*
G01X326819Y-1788699D01*
G01X340683Y-1794556D01*
G01X355600Y-1796555D01*
G01X370517Y-1794556D01*
G01X384381Y-1788699D01*
G01X396215Y-1779400D01*
G01X405182Y-1767312D01*
G01X410650Y-1753290D01*
G01X412233Y-1738323D01*
G01X409819Y-1723468D01*
G01X407157Y-1717624D01*
G01X438150Y-1717624D01*
G01X439913Y-1732140D01*
G01X445098Y-1745812D01*
G01X453404Y-1757846D01*
G01X464349Y-1767542D01*
G01X477297Y-1774338D01*
G01X491494Y-1777837D01*
G01X506116Y-1777837D01*
G01X520314Y-1774338D01*
G01X533261Y-1767542D01*
G01X544206Y-1757846D01*
G01X552513Y-1745812D01*
G01X557698Y-1732140D01*
G01X559460Y-1717624D01*
G01X557698Y-1703108D01*
G01X552513Y-1689436D01*
G01X544206Y-1677402D01*
G01X533261Y-1667706D01*
G01X520314Y-1660911D01*
G01X506116Y-1657411D01*
G01X491494Y-1657411D01*
G01X477297Y-1660911D01*
G01X464349Y-1667706D01*
G01X453404Y-1677402D01*
G01X445098Y-1689436D01*
G01X439913Y-1703108D01*
G01X438150Y-1717624D01*
G01X438150Y-1717624D01*
G01X407157Y-1717624D01*
G01X403580Y-1709772D01*
G01X393954Y-1698202D01*
G01X393954Y-1511554D01*
G01X454920Y-1511554D01*
G01X442320Y-1524393D01*
G01X432879Y-1539706D01*
G01X427066Y-1556730D01*
G01X425172Y-1574619D01*
G01X427290Y-1592483D01*
G01X433315Y-1609433D01*
G01X442947Y-1624626D01*
G01X455707Y-1637307D01*
G01X470960Y-1646843D01*
G01X487948Y-1652762D01*
G01X505824Y-1654768D01*
G01X595824Y-1654768D01*
G01X613701Y-1652762D01*
G01X630689Y-1646843D01*
G01X645942Y-1637307D01*
G01X658702Y-1624626D01*
G01X668334Y-1609433D01*
G01X674359Y-1592483D01*
G01X676477Y-1574619D01*
G01X674582Y-1556730D01*
G01X668770Y-1539706D01*
G01X659329Y-1524393D01*
G01X646729Y-1511554D01*
G01X784213Y-1511554D01*
G01X997495Y-1724835D01*
G01X998208Y-1736468D01*
G01X1001287Y-1747708D01*
G01X1006601Y-1758080D01*
G01X1013924Y-1767146D01*
G01X998509Y-1778632D01*
G01X985526Y-1792810D01*
G01X975438Y-1809175D01*
G01X968605Y-1827144D01*
G01X965270Y-1846076D01*
G01X965552Y-1865298D01*
G01X969441Y-1884125D01*
G01X976798Y-1901886D01*
G01X987362Y-1917948D01*
G01X1000755Y-1931739D01*
G01X1016501Y-1942768D01*
G01X1034039Y-1950641D01*
G01X1052743Y-1955079D01*
G01X1071949Y-1955924D01*
G01X1090971Y-1953144D01*
G01X1109132Y-1946840D01*
G01X1125785Y-1937236D01*
G01X1140337Y-1924673D01*
G01X1152269Y-1909601D01*
G01X1161157Y-1892554D01*
G01X1358900Y-1892554D01*
G01X1368827Y-1891247D01*
G01X1378077Y-1887416D01*
G01X1386020Y-1881320D01*
G01X1699435Y-1567905D01*
G01X1714423Y-1566531D01*
G01X1728520Y-1561258D01*
G01X1740731Y-1552460D01*
G01X1750194Y-1540758D01*
G01X1756243Y-1526976D01*
G01X1758449Y-1512088D01*
G01X1756658Y-1497145D01*
G01X1750995Y-1483201D01*
G01X1741861Y-1471239D01*
G01X1729899Y-1462105D01*
G01X1715955Y-1456442D01*
G01X1701012Y-1454651D01*
G01X1686124Y-1456857D01*
G01X1672342Y-1462906D01*
G01X1660640Y-1472369D01*
G01X1651842Y-1484580D01*
G01X1646569Y-1498677D01*
G01X1645195Y-1513665D01*
G01X1343013Y-1815846D01*
G01X1161157Y-1815846D01*
G01X1153434Y-1800639D01*
G01X1143283Y-1786934D01*
G01X1130986Y-1775116D01*
G01X1116890Y-1765514D01*
G01X1101390Y-1758399D01*
G01X1107526Y-1746052D01*
G01X1110498Y-1732588D01*
G01X1110129Y-1718805D01*
G01X1106442Y-1705520D01*
G01X1099655Y-1693518D01*
G01X1090170Y-1683511D01*
G01X1078548Y-1676092D01*
G01X1065479Y-1671700D01*
G01X1051735Y-1670595D01*
G01X827220Y-1446080D01*
G01X827220Y-1446080D01*
G01X819277Y-1439984D01*
G01X810027Y-1436153D01*
G01X800100Y-1434846D01*
G01X789767Y-1434846D01*
G01X803125Y-1423316D01*
G01X813655Y-1409158D01*
G01X820854Y-1393048D01*
G01X824378Y-1375759D01*
G01X824058Y-1358117D01*
G01X819909Y-1340967D01*
G01X812129Y-1325129D01*
G01X801092Y-1311362D01*
G01X737453Y-1247723D01*
G01X723332Y-1236462D01*
G01X707060Y-1228626D01*
G01X689452Y-1224607D01*
G01X671391Y-1224607D01*
G01X653783Y-1228626D01*
G01X637511Y-1236462D01*
G01X623391Y-1247723D01*
G01X612130Y-1261843D01*
G01X604294Y-1278115D01*
G01X600275Y-1295723D01*
G01X600275Y-1313784D01*
G01X604294Y-1331392D01*
G01X612130Y-1347664D01*
G01X623391Y-1361785D01*
G01X687030Y-1425424D01*
G01X698355Y-1434846D01*
G01X355600Y-1434846D01*
G01X343748Y-1436723D01*
G01X333056Y-1442171D01*
G01X324571Y-1450656D01*
G01X319123Y-1461348D01*
G01X317246Y-1473200D01*
G01X317246Y-1698202D01*
G01X307620Y-1709772D01*
G01X301381Y-1723468D01*
G01X298967Y-1738323D01*
G01X15494Y-1738323D01*
G01X15494Y-1581714D01*
G01X18996Y-1599472D01*
G01X26151Y-1616097D01*
G01X36640Y-1630848D01*
G01X49994Y-1643065D01*
G01X65617Y-1652204D01*
G01X82812Y-1657856D01*
G01X100810Y-1659768D01*
G01X160810Y-1659768D01*
G01X178618Y-1657896D01*
G01X195649Y-1652363D01*
G01X211156Y-1643410D01*
G01X224463Y-1631428D01*
G01X234988Y-1616941D01*
G01X242272Y-1600583D01*
G01X245995Y-1583067D01*
G01X245995Y-1565161D01*
G01X242272Y-1547646D01*
G01X234988Y-1531287D01*
G01X224463Y-1516801D01*
G01X211156Y-1504819D01*
G01X195649Y-1495865D01*
G01X178618Y-1490332D01*
G01X160810Y-1488460D01*
G01X100810Y-1488460D01*
G01X82812Y-1490373D01*
G01X65617Y-1496024D01*
G01X49994Y-1505163D01*
G01X36640Y-1517380D01*
G01X26151Y-1532131D01*
G01X18996Y-1548757D01*
G01X15494Y-1566514D01*
G01X15494Y-1276198D01*
G01X93359Y-1198347D01*
G01X716255Y-1198347D01*
G01X718017Y-1212862D01*
G01X723202Y-1226534D01*
G01X731509Y-1238568D01*
G01X742454Y-1248265D01*
G01X755401Y-1255060D01*
G01X769599Y-1258560D01*
G01X784221Y-1258560D01*
G01X798418Y-1255060D01*
G01X811366Y-1248265D01*
G01X822311Y-1238568D01*
G01X830617Y-1226534D01*
G01X835802Y-1212862D01*
G01X837565Y-1198347D01*
G01X835802Y-1183831D01*
G01X830617Y-1170159D01*
G01X822311Y-1158125D01*
G01X811366Y-1148428D01*
G01X798418Y-1141633D01*
G01X784221Y-1138134D01*
G01X769599Y-1138134D01*
G01X755401Y-1141633D01*
G01X742454Y-1148428D01*
G01X731509Y-1158125D01*
G01X723202Y-1170159D01*
G01X718017Y-1183831D01*
G01X716255Y-1198347D01*
G01X716255Y-1198347D01*
G01X93359Y-1198347D01*
G01X328367Y-963379D01*
G01X318271Y-978412D01*
G01X311560Y-995232D01*
G01X308536Y-1013087D01*
G01X309333Y-1031179D01*
G01X313916Y-1048698D01*
G01X322080Y-1064863D01*
G01X333460Y-1078950D01*
G01X375886Y-1121376D01*
G01X389802Y-1132645D01*
G01X405757Y-1140775D01*
G01X423053Y-1145409D01*
G01X440935Y-1146346D01*
G01X458621Y-1143545D01*
G01X475338Y-1137128D01*
G01X490356Y-1127375D01*
G01X503018Y-1114713D01*
G01X512771Y-1099696D01*
G01X519188Y-1082979D01*
G01X521989Y-1065293D01*
G01X521052Y-1047411D01*
G01X516417Y-1030114D01*
G01X508288Y-1014159D01*
G01X497019Y-1000243D01*
G01X454592Y-957817D01*
G01X440507Y-946438D01*
G01X424345Y-938275D01*
G01X406828Y-933692D01*
G01X388738Y-932893D01*
G01X370885Y-935915D01*
G01X354066Y-942622D01*
G01X339033Y-952715D01*
G01X502141Y-789635D01*
G01X1124966Y-789635D01*
G01X1126729Y-804151D01*
G01X1131914Y-817823D01*
G01X1140220Y-829857D01*
G01X1151165Y-839553D01*
G01X1164113Y-846349D01*
G01X1178310Y-849848D01*
G01X1192932Y-849848D01*
G01X1207130Y-846349D01*
G01X1220077Y-839553D01*
G01X1231022Y-829857D01*
G01X1239329Y-817823D01*
G01X1244514Y-804151D01*
G01X1246276Y-789635D01*
G01X1244514Y-775119D01*
G01X1239329Y-761447D01*
G01X1231022Y-749413D01*
G01X1220077Y-739717D01*
G01X1207130Y-732922D01*
G01X1192932Y-729422D01*
G01X1178310Y-729422D01*
G01X1164113Y-732922D01*
G01X1151165Y-739717D01*
G01X1140220Y-749413D01*
G01X1131914Y-761447D01*
G01X1126729Y-775119D01*
G01X1124966Y-789635D01*
G01X1124966Y-789635D01*
G01X502141Y-789635D01*
G01X607703Y-684091D01*
G01X1211907Y-684091D01*
G01X1211907Y-702152D01*
G01X1215926Y-719760D01*
G01X1223762Y-736032D01*
G01X1235023Y-750153D01*
G01X1298662Y-813792D01*
G01X1312783Y-825053D01*
G01X1329055Y-832889D01*
G01X1346663Y-836908D01*
G01X1364724Y-836908D01*
G01X1382331Y-832889D01*
G01X1398604Y-825053D01*
G01X1412724Y-813792D01*
G01X1423985Y-799672D01*
G01X1431821Y-783399D01*
G01X1435840Y-765792D01*
G01X1435840Y-747731D01*
G01X1431821Y-730123D01*
G01X1423985Y-713851D01*
G01X1412724Y-699730D01*
G01X1412724Y-699730D01*
G01X1349085Y-636091D01*
G01X1334964Y-624830D01*
G01X1318692Y-616994D01*
G01X1301084Y-612975D01*
G01X1283023Y-612975D01*
G01X1265415Y-616994D01*
G01X1249143Y-624830D01*
G01X1235023Y-636091D01*
G01X1223762Y-650211D01*
G01X1215926Y-666483D01*
G01X1211907Y-684091D01*
G01X607703Y-684091D01*
G01X939506Y-352346D01*
G01X929606Y-367371D01*
G01X923063Y-384133D01*
G01X920166Y-401893D01*
G01X921043Y-419865D01*
G01X925656Y-437258D01*
G01X933800Y-453303D01*
G01X945117Y-467292D01*
G01X987543Y-509719D01*
G01X1001459Y-520988D01*
G01X1017414Y-529117D01*
G01X1034711Y-533752D01*
G01X1052593Y-534689D01*
G01X1070279Y-531888D01*
G01X1086996Y-525471D01*
G01X1102013Y-515718D01*
G01X1114675Y-503056D01*
G01X1121125Y-493124D01*
G01X1506160Y-493124D01*
G01X1506160Y-583124D01*
G01X1508182Y-601071D01*
G01X1514148Y-618119D01*
G01X1523756Y-633411D01*
G01X1536527Y-646182D01*
G01X1551820Y-655791D01*
G01X1568867Y-661756D01*
G01X1586814Y-663778D01*
G01X1604761Y-661756D01*
G01X1621809Y-655791D01*
G01X1637101Y-646182D01*
G01X1649872Y-633411D01*
G01X1659481Y-618119D01*
G01X1665446Y-601071D01*
G01X1667468Y-583124D01*
G01X1667468Y-583124D01*
G01X1667468Y-493124D01*
G01X1666677Y-486105D01*
G01X1669644Y-486105D01*
G01X1671406Y-500621D01*
G01X1676591Y-514293D01*
G01X1684898Y-526327D01*
G01X1695843Y-536023D01*
G01X1708790Y-542819D01*
G01X1722988Y-546318D01*
G01X1737610Y-546318D01*
G01X1751807Y-542819D01*
G01X1764755Y-536023D01*
G01X1775700Y-526327D01*
G01X1784006Y-514293D01*
G01X1789191Y-500621D01*
G01X1790954Y-486105D01*
G01X1789191Y-471589D01*
G01X1784006Y-457917D01*
G01X1775700Y-445883D01*
G01X1764755Y-436187D01*
G01X1751807Y-429392D01*
G01X1737610Y-425892D01*
G01X1722988Y-425892D01*
G01X1708790Y-429392D01*
G01X1695843Y-436187D01*
G01X1684898Y-445883D01*
G01X1676591Y-457917D01*
G01X1671406Y-471589D01*
G01X1669644Y-486105D01*
G01X1669644Y-486105D01*
G01X1666677Y-486105D01*
G01X1665446Y-475177D01*
G01X1659481Y-458130D01*
G01X1649872Y-442838D01*
G01X1637101Y-430067D01*
G01X1621809Y-420458D01*
G01X1604761Y-414493D01*
G01X1586814Y-412471D01*
G01X1568867Y-414493D01*
G01X1551820Y-420458D01*
G01X1536527Y-430067D01*
G01X1523756Y-442838D01*
G01X1514148Y-458130D01*
G01X1508182Y-475177D01*
G01X1506160Y-493124D01*
G01X1121125Y-493124D01*
G01X1124428Y-488038D01*
G01X1130845Y-471321D01*
G01X1133646Y-453635D01*
G01X1132709Y-435753D01*
G01X1128075Y-418457D01*
G01X1122029Y-406593D01*
G01X1790446Y-406593D01*
G01X1792450Y-426507D01*
G01X1798310Y-445645D01*
G01X1807799Y-463267D01*
G01X1820551Y-478694D01*
G01X1836074Y-491329D01*
G01X1853768Y-500684D01*
G01X1872949Y-506399D01*
G01X1892878Y-508252D01*
G01X1912784Y-506173D01*
G01X1931900Y-500241D01*
G01X2315758Y-884098D01*
G01X2311711Y-903686D01*
G01X2311570Y-923687D01*
G01X2315341Y-943330D01*
G01X2322877Y-961857D01*
G01X2333889Y-978554D01*
G01X2347952Y-992777D01*
G01X2364523Y-1003978D01*
G01X2382963Y-1011724D01*
G01X2402562Y-1015718D01*
G01X2422563Y-1015804D01*
G01X2442196Y-1011980D01*
G01X2460702Y-1004393D01*
G01X2477369Y-993336D01*
G01X2491554Y-979234D01*
G01X2491554Y-979234D01*
G01X2502710Y-962633D01*
G01X2510406Y-944172D01*
G01X2514346Y-924562D01*
G01X2514378Y-904561D01*
G01X2510500Y-884939D01*
G01X2502863Y-866453D01*
G01X2491760Y-849816D01*
G01X2477620Y-835670D01*
G01X2460989Y-824559D01*
G01X2442506Y-816914D01*
G01X2422886Y-813027D01*
G01X2402885Y-813050D01*
G01X2383274Y-816980D01*
G01X2364809Y-824668D01*
G01X2026246Y-486105D01*
G01X2247621Y-486105D01*
G01X2249383Y-500621D01*
G01X2254568Y-514293D01*
G01X2262875Y-526327D01*
G01X2273820Y-536023D01*
G01X2286767Y-542819D01*
G01X2300965Y-546318D01*
G01X2315587Y-546318D01*
G01X2329784Y-542819D01*
G01X2342732Y-536023D01*
G01X2353677Y-526327D01*
G01X2361983Y-514293D01*
G01X2367168Y-500621D01*
G01X2368079Y-493124D01*
G01X2371157Y-493124D01*
G01X2371157Y-583124D01*
G01X2373179Y-601071D01*
G01X2379145Y-618119D01*
G01X2388753Y-633411D01*
G01X2401524Y-646182D01*
G01X2416817Y-655791D01*
G01X2433864Y-661756D01*
G01X2451811Y-663778D01*
G01X2469758Y-661756D01*
G01X2486806Y-655791D01*
G01X2502098Y-646182D01*
G01X2514869Y-633411D01*
G01X2524478Y-618119D01*
G01X2530443Y-601071D01*
G01X2532465Y-583124D01*
G01X2532465Y-583124D01*
G01X2532465Y-508000D01*
G01X3107045Y-508000D01*
G01X3109067Y-525947D01*
G01X3115032Y-542995D01*
G01X3124641Y-558288D01*
G01X3137412Y-571059D01*
G01X3152705Y-580668D01*
G01X3169753Y-586633D01*
G01X3187700Y-588655D01*
G01X3205647Y-586633D01*
G01X3222695Y-580668D01*
G01X3237988Y-571059D01*
G01X3250759Y-558288D01*
G01X3260368Y-542995D01*
G01X3266333Y-525947D01*
G01X3268355Y-508000D01*
G01X3266333Y-490053D01*
G01X3260368Y-473005D01*
G01X3250759Y-457712D01*
G01X3237988Y-444941D01*
G01X3222695Y-435332D01*
G01X3205647Y-429367D01*
G01X3187700Y-427345D01*
G01X3169753Y-429367D01*
G01X3152705Y-435332D01*
G01X3137412Y-444941D01*
G01X3124641Y-457712D01*
G01X3115032Y-473005D01*
G01X3109067Y-490053D01*
G01X3107045Y-508000D01*
G01X3107045Y-508000D01*
G01X2532465Y-508000D01*
G01X2532465Y-493124D01*
G01X2530443Y-475177D01*
G01X2524478Y-458130D01*
G01X2514869Y-442838D01*
G01X2502098Y-430067D01*
G01X2486806Y-420458D01*
G01X2469758Y-414493D01*
G01X2451811Y-412471D01*
G01X2433864Y-414493D01*
G01X2416817Y-420458D01*
G01X2401524Y-430067D01*
G01X2388753Y-442838D01*
G01X2379145Y-458130D01*
G01X2373179Y-475177D01*
G01X2371157Y-493124D01*
G01X2368079Y-493124D01*
G01X2368931Y-486105D01*
G01X2367168Y-471589D01*
G01X2361983Y-457917D01*
G01X2353677Y-445883D01*
G01X2342732Y-436187D01*
G01X2329784Y-429392D01*
G01X2315587Y-425892D01*
G01X2300965Y-425892D01*
G01X2286767Y-429392D01*
G01X2273820Y-436187D01*
G01X2262875Y-445883D01*
G01X2254568Y-457917D01*
G01X2249383Y-471589D01*
G01X2247621Y-486105D01*
G01X2247621Y-486105D01*
G01X2026246Y-486105D01*
G01X1986141Y-446000D01*
G01X1992073Y-426884D01*
G01X1994152Y-406978D01*
G01X1992299Y-387049D01*
G01X1986584Y-367868D01*
G01X1977229Y-350174D01*
G01X1964594Y-334651D01*
G01X1949167Y-321899D01*
G01X1931545Y-312410D01*
G01X1912407Y-306550D01*
G01X1892493Y-304546D01*
G01X1872571Y-306475D01*
G01X1853411Y-312262D01*
G01X1835753Y-321685D01*
G01X1820278Y-334378D01*
G01X1807585Y-349853D01*
G01X1798162Y-367511D01*
G01X1792375Y-386671D01*
G01X1790446Y-406593D01*
G01X1122029Y-406593D01*
G01X1119945Y-402502D01*
G01X1108676Y-388586D01*
G01X1066250Y-346160D01*
G01X1052262Y-334844D01*
G01X1036219Y-326700D01*
G01X1018829Y-322087D01*
G01X1000858Y-321208D01*
G01X983101Y-324103D01*
G01X966340Y-330643D01*
G01X951315Y-340540D01*
G01X1276417Y-15494D01*
G01X1541388Y-15494D01*
G01X1527721Y-26105D01*
G01X1516465Y-39247D01*
G01X1508080Y-54383D01*
G01X1502908Y-70895D01*
G01X1501160Y-88110D01*
G01X1501160Y-148110D01*
G01X1503032Y-165918D01*
G01X1508565Y-182949D01*
G01X1517519Y-198456D01*
G01X1529501Y-211763D01*
G01X1543987Y-222288D01*
G01X1560346Y-229572D01*
G01X1577861Y-233295D01*
G01X1595767Y-233295D01*
G01X1613283Y-229572D01*
G01X1629641Y-222288D01*
G01X1644128Y-211763D01*
G01X1656110Y-198456D01*
G01X1665063Y-182949D01*
G01X1670596Y-165918D01*
G01X1672468Y-148110D01*
G01X1672468Y-88110D01*
G01X1670720Y-70895D01*
G01X1665548Y-54383D01*
G01X1657163Y-39247D01*
G01X1645907Y-26105D01*
G01X1632240Y-15494D01*
G01X2406385Y-15494D01*
G01X2392718Y-26105D01*
G01X2381462Y-39247D01*
G01X2373077Y-54383D01*
G01X2367905Y-70895D01*
G01X2366157Y-88110D01*
G01X2366157Y-148110D01*
G01X2368029Y-165918D01*
G01X2373562Y-182949D01*
G01X2382516Y-198456D01*
G01X2394498Y-211763D01*
G01X2408984Y-222288D01*
G01X2425343Y-229572D01*
G01X2442858Y-233295D01*
G01X2460764Y-233295D01*
G01X2478280Y-229572D01*
G01X2494638Y-222288D01*
G01X2509125Y-211763D01*
G01X2521107Y-198456D01*
G01X2530060Y-182949D01*
G01X2535593Y-165918D01*
G01X2537465Y-148110D01*
G01X2537465Y-88110D01*
G01X2535717Y-70895D01*
G01X2530545Y-54383D01*
G01X2522160Y-39247D01*
G01X2510904Y-26105D01*
G01X2497237Y-15494D01*
G01X3379993Y-15494D01*
G01X3379993Y-15494D01*
G01X3414087Y-17409D01*
G01X3447752Y-23129D01*
G01X3480565Y-32582D01*
G01X3512113Y-45650D01*
G01X3542000Y-62167D01*
G01X3569849Y-81927D01*
G01X3595311Y-104682D01*
G01X3618065Y-130143D01*
G01X3637825Y-157993D01*
G01X3654343Y-187879D01*
G01X3667411Y-219428D01*
G01X3676864Y-252241D01*
G01X3682584Y-285906D01*
G01X3684499Y-319999D01*
G01X3684499Y-1140527D01*
G01X3668781Y-1131235D01*
G01X3651451Y-1125485D01*
G01X3633296Y-1123539D01*
G01X3443296Y-1123539D01*
G01X3425488Y-1125410D01*
G01X3408458Y-1130944D01*
G01X3392950Y-1139897D01*
G01X3379643Y-1151879D01*
G01X3369118Y-1166365D01*
G01X3361835Y-1182724D01*
G01X3358112Y-1200239D01*
G01X3358112Y-1218146D01*
G01X3361835Y-1235661D01*
G01X3369118Y-1252019D01*
G01X3379643Y-1266506D01*
G01X3392950Y-1278488D01*
G01X3408458Y-1287441D01*
G01X3425488Y-1292975D01*
G01X3443296Y-1294846D01*
G01X3633296Y-1294846D01*
G01X3651451Y-1292900D01*
G01X3668781Y-1287150D01*
G01X3684499Y-1277857D01*
G01X3684499Y-2430543D01*
G01X3668781Y-2421250D01*
G01X3651451Y-2415500D01*
G01X3633296Y-2413554D01*
G01X3443296Y-2413554D01*
G01X3425488Y-2415425D01*
G01X3408458Y-2420959D01*
G01X3392950Y-2429912D01*
G01X3379643Y-2441894D01*
G01X3369118Y-2456381D01*
G01X3361835Y-2472739D01*
G01X3358112Y-2490254D01*
G01X3358112Y-2508161D01*
G01X3361835Y-2525676D01*
G01X3369118Y-2542035D01*
G01X3379643Y-2556521D01*
G01X3392950Y-2568503D01*
G01X3408458Y-2577456D01*
G01X3425488Y-2582990D01*
G01X3443296Y-2584861D01*
G01X3633296Y-2584861D01*
G01X3651451Y-2582915D01*
G01X3668781Y-2577165D01*
G01X3684499Y-2567873D01*
G01X3684499Y-3379993D01*
G01X3684499Y-3379993D01*
G01X3682584Y-3414087D01*
G01X3676864Y-3447752D01*
G01X3667411Y-3480565D01*
G01X3654343Y-3512113D01*
G01X3637825Y-3542000D01*
G01X3618065Y-3569849D01*
G01X3595311Y-3595311D01*
G01X3569849Y-3618065D01*
G01X3542000Y-3637825D01*
G01X3512113Y-3654343D01*
G01X3480565Y-3667411D01*
G01X3447752Y-3676864D01*
G01X3414087Y-3682584D01*
G01X3379993Y-3684499D01*
G01X2554906Y-3684499D01*
G01X2564342Y-3668695D01*
G01X2570184Y-3651240D01*
G01X2572161Y-3632940D01*
G01X2572161Y-3442941D01*
G01X2570290Y-3425132D01*
G01X2564756Y-3408102D01*
G01X2555803Y-3392595D01*
G01X2543821Y-3379288D01*
G01X2529335Y-3368762D01*
G01X2512976Y-3361479D01*
G01X2495461Y-3357756D01*
G01X2477554Y-3357756D01*
G01X2460039Y-3361479D01*
G01X2443681Y-3368762D01*
G01X2429194Y-3379288D01*
G01X2417212Y-3392595D01*
G01X2408259Y-3408102D01*
G01X2402725Y-3425132D01*
G01X2400854Y-3442941D01*
G01X2400854Y-3632940D01*
G01X2402831Y-3651240D01*
G01X2408673Y-3668695D01*
G01X2418109Y-3684499D01*
G01X1264891Y-3684499D01*
G01X1274327Y-3668695D01*
G01X1280169Y-3651240D01*
G01X1282146Y-3632940D01*
G01X1282146Y-3442941D01*
G01X1280275Y-3425132D01*
G01X1274741Y-3408102D01*
G01X1265788Y-3392595D01*
G01X1253806Y-3379288D01*
G01X1239319Y-3368762D01*
G01X1222961Y-3361479D01*
G01X1205446Y-3357756D01*
G01X1187539Y-3357756D01*
G01X1170024Y-3361479D01*
G01X1153665Y-3368762D01*
G01X1139179Y-3379288D01*
G01X1127197Y-3392595D01*
G01X1118244Y-3408102D01*
G01X1112710Y-3425132D01*
G01X1110839Y-3442941D01*
G01X1110839Y-3632940D01*
G01X1112816Y-3651240D01*
G01X1118658Y-3668695D01*
G01X1128094Y-3684499D01*
G01X319999Y-3684499D01*
G01X319999Y-3684499D01*
G01X285906Y-3682584D01*
G01X252241Y-3676864D01*
G01X219428Y-3667411D01*
G01X187879Y-3654343D01*
G01X157993Y-3637825D01*
G01X130143Y-3618065D01*
G01X104682Y-3595311D01*
G01X81927Y-3569849D01*
G01X62167Y-3542000D01*
G01X45650Y-3512113D01*
G01X32582Y-3480565D01*
G01X23129Y-3447752D01*
G01X17409Y-3414087D01*
G01X15494Y-3379993D01*
G01X15494Y-3337306D01*
G01X3172041Y-3337306D01*
G01X3174003Y-3363486D01*
G01X3179845Y-3389081D01*
G01X3189436Y-3413519D01*
G01X3202563Y-3436255D01*
G01X3218931Y-3456781D01*
G01X3238176Y-3474638D01*
G01X3259868Y-3489427D01*
G01X3283521Y-3500817D01*
G01X3308608Y-3508556D01*
G01X3334568Y-3512469D01*
G01X3360821Y-3512469D01*
G01X3386781Y-3508556D01*
G01X3411868Y-3500817D01*
G01X3435521Y-3489427D01*
G01X3457213Y-3474638D01*
G01X3476458Y-3456781D01*
G01X3492826Y-3436255D01*
G01X3505953Y-3413519D01*
G01X3515544Y-3389081D01*
G01X3521386Y-3363486D01*
G01X3523348Y-3337306D01*
G01X3521386Y-3311126D01*
G01X3515544Y-3285531D01*
G01X3505953Y-3261093D01*
G01X3492826Y-3238357D01*
G01X3476458Y-3217831D01*
G01X3457213Y-3199974D01*
G01X3435521Y-3185185D01*
G01X3411868Y-3173795D01*
G01X3386781Y-3166056D01*
G01X3360821Y-3162143D01*
G01X3334568Y-3162143D01*
G01X3308608Y-3166056D01*
G01X3283521Y-3173795D01*
G01X3259868Y-3185185D01*
G01X3238176Y-3199974D01*
G01X3218931Y-3217831D01*
G01X3202563Y-3238357D01*
G01X3189436Y-3261093D01*
G01X3179845Y-3285531D01*
G01X3174003Y-3311126D01*
G01X3172041Y-3337306D01*
G01X3172041Y-3337306D01*
G01X15494Y-3337306D01*
G01X15494Y-3175000D01*
G01X427345Y-3175000D01*
G01X429367Y-3192947D01*
G01X435332Y-3209995D01*
G01X444941Y-3225288D01*
G01X457712Y-3238059D01*
G01X473005Y-3247668D01*
G01X490053Y-3253633D01*
G01X508000Y-3255655D01*
G01X525947Y-3253633D01*
G01X542995Y-3247668D01*
G01X558288Y-3238059D01*
G01X571059Y-3225288D01*
G01X580668Y-3209995D01*
G01X586633Y-3192947D01*
G01X588655Y-3175000D01*
G01X586633Y-3157053D01*
G01X580668Y-3140005D01*
G01X571059Y-3124712D01*
G01X558288Y-3111941D01*
G01X542995Y-3102332D01*
G01X525947Y-3096367D01*
G01X508000Y-3094345D01*
G01X490053Y-3096367D01*
G01X473005Y-3102332D01*
G01X457712Y-3111941D01*
G01X444941Y-3124712D01*
G01X435332Y-3140005D01*
G01X429367Y-3157053D01*
G01X427345Y-3175000D01*
G01X427345Y-3175000D01*
G01X15494Y-3175000D01*
G01X15494Y-2997200D01*
G01X2929245Y-2997200D01*
G01X2931267Y-3015147D01*
G01X2937232Y-3032195D01*
G01X2946841Y-3047488D01*
G01X2959612Y-3060259D01*
G01X2974905Y-3069868D01*
G01X2991953Y-3075833D01*
G01X3009900Y-3077855D01*
G01X3027847Y-3075833D01*
G01X3044895Y-3069868D01*
G01X3060188Y-3060259D01*
G01X3072959Y-3047488D01*
G01X3082568Y-3032195D01*
G01X3088533Y-3015147D01*
G01X3090555Y-2997200D01*
G01X3088533Y-2979253D01*
G01X3082568Y-2962205D01*
G01X3072959Y-2946912D01*
G01X3060188Y-2934141D01*
G01X3044895Y-2924532D01*
G01X3027847Y-2918567D01*
G01X3009900Y-2916545D01*
G01X2991953Y-2918567D01*
G01X2974905Y-2924532D01*
G01X2959612Y-2934141D01*
G01X2946841Y-2946912D01*
G01X2937232Y-2962205D01*
G01X2931267Y-2979253D01*
G01X2929245Y-2997200D01*
G01X2929245Y-2997200D01*
G01X15494Y-2997200D01*
G01X15494Y-2446711D01*
G01X18996Y-2464469D01*
G01X26151Y-2481094D01*
G01X36640Y-2495845D01*
G01X49994Y-2508062D01*
G01X65617Y-2517201D01*
G01X82812Y-2522853D01*
G01X100810Y-2524765D01*
G01X160810Y-2524765D01*
G01X178618Y-2522893D01*
G01X195649Y-2517360D01*
G01X211156Y-2508407D01*
G01X224463Y-2496425D01*
G01X234988Y-2481938D01*
G01X242272Y-2465580D01*
G01X245995Y-2448064D01*
G01X245995Y-2439111D01*
G01X425171Y-2439111D01*
G01X427193Y-2457058D01*
G01X433158Y-2474106D01*
G01X442767Y-2489398D01*
G01X455538Y-2502169D01*
G01X470830Y-2511778D01*
G01X487877Y-2517743D01*
G01X505824Y-2519765D01*
G01X595824Y-2519765D01*
G01X613771Y-2517743D01*
G01X622753Y-2514600D01*
G01X692645Y-2514600D01*
G01X694576Y-2529263D01*
G01X700236Y-2542927D01*
G01X709239Y-2554661D01*
G01X720973Y-2563664D01*
G01X734637Y-2569324D01*
G01X749300Y-2571255D01*
G01X763963Y-2569324D01*
G01X777627Y-2563664D01*
G01X789361Y-2554661D01*
G01X798364Y-2542927D01*
G01X804024Y-2529263D01*
G01X805955Y-2514600D01*
G01X804024Y-2499937D01*
G01X798364Y-2486273D01*
G01X789361Y-2474539D01*
G01X777627Y-2465536D01*
G01X763963Y-2459876D01*
G01X749300Y-2457945D01*
G01X734637Y-2459876D01*
G01X720973Y-2465536D01*
G01X709239Y-2474539D01*
G01X700236Y-2486273D01*
G01X694576Y-2499937D01*
G01X692645Y-2514600D01*
G01X692645Y-2514600D01*
G01X622753Y-2514600D01*
G01X630819Y-2511778D01*
G01X646111Y-2502169D01*
G01X658882Y-2489398D01*
G01X668491Y-2474106D01*
G01X674456Y-2457058D01*
G01X676478Y-2439111D01*
G01X674456Y-2421164D01*
G01X668491Y-2404117D01*
G01X658882Y-2388824D01*
G01X646111Y-2376053D01*
G01X630819Y-2366445D01*
G01X613771Y-2360479D01*
G01X595824Y-2358457D01*
G01X595824Y-2358457D01*
G01X505824Y-2358457D01*
G01X487877Y-2360479D01*
G01X470830Y-2366445D01*
G01X455538Y-2376053D01*
G01X442767Y-2388824D01*
G01X433158Y-2404117D01*
G01X427193Y-2421164D01*
G01X425171Y-2439111D01*
G01X245995Y-2439111D01*
G01X245995Y-2430158D01*
G01X242272Y-2412643D01*
G01X234988Y-2396284D01*
G01X224463Y-2381798D01*
G01X211156Y-2369816D01*
G01X195649Y-2360862D01*
G01X178618Y-2355329D01*
G01X160810Y-2353457D01*
G01X100810Y-2353457D01*
G01X82812Y-2355370D01*
G01X65617Y-2361021D01*
G01X49994Y-2370160D01*
G01X36640Y-2382377D01*
G01X26151Y-2397128D01*
G01X18996Y-2413754D01*
G01X15494Y-2431511D01*
G37*
G54D10*
G01X130810Y-2439111D02*
G01X130810Y-2353457D01*
G01X130810Y-2439111D02*
G01X130810Y-2524765D01*
G01X130810Y-2439111D02*
G01X246464Y-2439111D01*
G01X130810Y-1574114D02*
G01X130810Y-1488460D01*
G01X130810Y-1574114D02*
G01X130810Y-1659768D01*
G01X130810Y-1574114D02*
G01X246464Y-1574114D01*
G01X415239Y-1039597D02*
G01X475806Y-979030D01*
G01X415239Y-1039597D02*
G01X354673Y-1100163D01*
G01X415239Y-1039597D02*
G01X497019Y-1121376D01*
G01X550824Y-2439111D02*
G01X550824Y-2358457D01*
G01X550824Y-2439111D02*
G01X550824Y-2519765D01*
G01X550824Y-2439111D02*
G01X676478Y-2439111D01*
G01X550824Y-2439111D02*
G01X425171Y-2439111D01*
G01X550824Y-1574114D02*
G01X550824Y-1654768D01*
G01X550824Y-1574114D02*
G01X676478Y-1574114D01*
G01X550824Y-1574114D02*
G01X425171Y-1574114D01*
G01X712241Y-1336573D02*
G01X769272Y-1279542D01*
G01X712241Y-1336573D02*
G01X655210Y-1393604D01*
G01X712241Y-1336573D02*
G01X623391Y-1247723D01*
G01X1026897Y-427939D02*
G01X1087463Y-367373D01*
G01X1026897Y-427939D02*
G01X966330Y-488506D01*
G01X1026897Y-427939D02*
G01X1108676Y-509719D01*
G01X1196492Y-3537941D02*
G01X1110839Y-3537941D01*
G01X1196492Y-3537941D02*
G01X1282146Y-3537941D01*
G01X1196492Y-3537941D02*
G01X1196492Y-3357287D01*
G01X1323873Y-724941D02*
G01X1380904Y-667910D01*
G01X1323873Y-724941D02*
G01X1266842Y-781972D01*
G01X1323873Y-724941D02*
G01X1412724Y-813792D01*
G01X1323873Y-724941D02*
G01X1235023Y-636091D01*
G01X1586814Y-538124D02*
G01X1667468Y-538124D01*
G01X1586814Y-538124D02*
G01X1506160Y-538124D01*
G01X1586814Y-538124D02*
G01X1586814Y-663778D01*
G01X1586814Y-538124D02*
G01X1586814Y-412471D01*
G01X1586814Y-118110D02*
G01X1672468Y-118110D01*
G01X1586814Y-118110D02*
G01X1501160Y-118110D01*
G01X1586814Y-118110D02*
G01X1586814Y-233764D01*
G01X2451811Y-538124D02*
G01X2532465Y-538124D01*
G01X2451811Y-538124D02*
G01X2371157Y-538124D01*
G01X2451811Y-538124D02*
G01X2451811Y-663778D01*
G01X2451811Y-538124D02*
G01X2451811Y-412471D01*
G01X2451811Y-118110D02*
G01X2537465Y-118110D01*
G01X2451811Y-118110D02*
G01X2366157Y-118110D01*
G01X2451811Y-118110D02*
G01X2451811Y-233764D01*
G01X2486508Y-3537941D02*
G01X2400854Y-3537941D01*
G01X2486508Y-3537941D02*
G01X2572161Y-3537941D01*
G01X2486508Y-3537941D02*
G01X2486508Y-3357287D01*
G01X3538296Y-1209192D02*
G01X3538296Y-1294846D01*
G01X3538296Y-1209192D02*
G01X3538296Y-1123539D01*
G01X3538296Y-1209192D02*
G01X3357643Y-1209192D01*
G01X3538296Y-2499208D02*
G01X3538296Y-2584861D01*
G01X3538296Y-2499208D02*
G01X3538296Y-2413554D01*
G01X3538296Y-2499208D02*
G01X3357643Y-2499208D01*
G04 Copper End*

G04 Pad Start*
G54D11*
G01X2413000Y-914400D03*
G01X1892300Y-406400D03*
G01X1066800Y-1854200D03*
G54D12*
G01X2486508Y-3537941D03*
G01X1196492Y-3537941D03*
G54D13*
G01X550824Y-1574114D03*
G01X550824Y-2439111D03*
G54D14*
G01X130810Y-1574114D03*
G01X130810Y-2439111D03*
G54D15*
G01X2451811Y-538124D03*
G01X1586814Y-538124D03*
G54D16*
G01X2451811Y-118110D03*
G01X1586814Y-118110D03*
G54D18*
G01X3538296Y-1209192D03*
G01X3538296Y-2499208D03*
G54D19*
G01X1323873Y-724941D03*
G01X712241Y-1336573D03*
G54D20*
G01X1026897Y-427939D03*
G01X415239Y-1039597D03*
G04 Pad End*

G04 Via Start*
G54D21*
G01X1701800Y-1511300D03*
G01X1054100Y-2120900D03*
G01X431800Y-1854200D03*
G01X749300Y-2514600D03*
G01X1054100Y-1727200D03*
G01X444500Y-1981200D03*
G01X444500Y-2171700D03*
G01X1168400Y-2686202D03*
G01X2425700Y-2425700D03*
G01X2527300Y-2362200D03*
G01X1809902Y-1041400D03*
G01X1447800Y-843356D03*
G01X1485900Y-1079500D03*
G01X762000Y-1536700D03*
G01X711200Y-1600200D03*
G01X2070100Y-2658948D03*
G01X1943100Y-2095500D03*
G01X1905000Y-1803400D03*
G01X2235200Y-1993900D03*
G01X1701800Y-1803400D03*
G01X355600Y-1739900D03*
G01X2019300Y-2413000D03*
G01X2006600Y-2032000D03*
G04 Via End*

G04 Track Start*
G54D10*
G01X2019300Y-2413000D02*
G01X2019300Y-2044700D01*
G01X2006600Y-2032000D01*
G01X355600Y-1739900D02*
G01X355600Y-1473200D01*
G01X800100Y-1473200D01*
G01X1054100Y-1727200D01*
G01X2413000Y-914400D02*
G01X2400300Y-914400D01*
G01X1892300Y-406400D01*
G01X1066800Y-1854200D02*
G01X1358900Y-1854200D01*
G01X1701800Y-1511300D01*
G01X1054100Y-2120900D02*
G01X698500Y-2120900D01*
G01X431800Y-1854200D01*
G01X444500Y-2171700D02*
G01X444500Y-1981200D01*
G04 Track End*

M02*

