G04 Layer: TopSilkscreenLayer*
G04 EasyEDA v6.5.54, 2026-06-19 11:45:45*
G04 6a2118062d98413c807dd24a82e81eea,7ea0ab90f84049098100ea965be8407d,10*
G04 Gerber Generator version 0.2*
G04 Scale: 100 percent, Rotated: No, Reflected: No *
G04 Dimensions in millimeters *
G04 leading zeros omitted , absolute positions ,4 integer and 5 decimal *
%FSLAX45Y45*%
%MOMM*%

%ADD10C,0.1700*%
%ADD11C,0.1524*%
%ADD12C,0.1300*%
%ADD13C,0.2540*%
%ADD14C,0.0122*%

%LPD*%
G36*
X2197150Y-1002334D02*
G01*
X2197252Y-1004316D01*
X2239721Y-1194866D01*
X2239721Y-1195476D01*
X2234336Y-1199235D01*
X2144064Y-1254353D01*
X2077415Y-1295349D01*
X2073554Y-1298041D01*
X2073249Y-1299159D01*
X2079193Y-1300226D01*
X2269134Y-1328623D01*
X2269591Y-1328978D01*
X2270048Y-1329944D01*
X2310587Y-1509572D01*
X2311704Y-1509928D01*
X2314092Y-1505153D01*
X2385669Y-1336903D01*
X2386126Y-1336446D01*
X2387142Y-1336294D01*
X2574340Y-1359408D01*
X2574391Y-1359103D01*
X2573070Y-1357528D01*
X2431643Y-1225702D01*
X2428290Y-1222349D01*
X2427224Y-1220927D01*
X2428951Y-1216101D01*
X2484475Y-1088796D01*
X2503424Y-1044803D01*
X2502458Y-1044295D01*
X2497632Y-1046886D01*
X2410714Y-1099515D01*
X2348433Y-1136954D01*
X2213102Y-1015746D01*
X2197963Y-1002487D01*
G37*
G36*
X3039770Y-2558084D02*
G01*
X3038754Y-2558643D01*
X3026867Y-2570276D01*
X3028696Y-2572308D01*
X3029051Y-2573121D01*
X3028950Y-2575661D01*
X2975356Y-2973781D01*
X2974746Y-2974949D01*
X2973781Y-2975660D01*
X2972257Y-2976067D01*
X2573782Y-3029559D01*
X2571851Y-3029153D01*
X2569870Y-3027273D01*
X2557119Y-3040024D01*
X2558592Y-3041548D01*
X2560675Y-3047644D01*
X2563152Y-3050946D01*
X2615895Y-3050946D01*
X2616758Y-3050133D01*
X2618587Y-3049473D01*
X2988462Y-2999740D01*
X2991561Y-2998927D01*
X2993491Y-2997911D01*
X2996031Y-2995930D01*
X2997860Y-2993288D01*
X2999181Y-2989834D01*
X3049117Y-2618638D01*
X3049676Y-2616758D01*
X3050286Y-2615692D01*
X3050895Y-2615641D01*
X3070860Y-2653182D01*
X3074771Y-2661005D01*
X3079292Y-2669133D01*
X3082290Y-2675432D01*
X3086658Y-2683154D01*
X3123285Y-2752953D01*
X3127959Y-2761437D01*
X3171037Y-2843479D01*
X3197809Y-2893872D01*
X3203803Y-2905556D01*
X3208223Y-2913481D01*
X3216402Y-2929432D01*
X3222650Y-2940812D01*
X3231032Y-2956864D01*
X3233521Y-2960624D01*
X3235858Y-2962859D01*
X3240024Y-2964789D01*
X3242818Y-2965297D01*
X3245205Y-2965246D01*
X3506978Y-2930296D01*
X3617671Y-2915310D01*
X3617976Y-2915462D01*
X3617010Y-2917139D01*
X3612642Y-2922016D01*
X3587648Y-2947619D01*
X3355644Y-3180130D01*
X3354933Y-3182721D01*
X3354324Y-3186176D01*
X3354628Y-3189579D01*
X3356051Y-3193694D01*
X3366312Y-3213658D01*
X3389629Y-3257550D01*
X3393846Y-3265982D01*
X3395472Y-3268370D01*
X3399282Y-3275990D01*
X3439922Y-3352850D01*
X3441852Y-3356864D01*
X3523284Y-3510940D01*
X3531412Y-3526688D01*
X3535730Y-3534308D01*
X3535679Y-3535019D01*
X3534816Y-3535934D01*
X3534003Y-3536187D01*
X3193034Y-3356305D01*
X3189224Y-3354984D01*
X3185972Y-3354679D01*
X3182670Y-3355289D01*
X3179673Y-3356101D01*
X2916224Y-3618737D01*
X2915412Y-3618839D01*
X2915005Y-3618280D01*
X2914954Y-3616858D01*
X2922524Y-3562096D01*
X2963976Y-3252114D01*
X2964637Y-3244138D01*
X2963824Y-3238652D01*
X2961030Y-3234690D01*
X2954324Y-3230219D01*
X2936240Y-3220923D01*
X2931515Y-3218230D01*
X2839821Y-3169920D01*
X2834792Y-3167024D01*
X2828442Y-3163874D01*
X2627833Y-3058160D01*
X2616149Y-3051708D01*
X2615895Y-3050946D01*
X2563152Y-3050946D01*
X2567076Y-3054248D01*
X2931566Y-3246577D01*
X2935071Y-3248152D01*
X2936392Y-3249269D01*
X2937510Y-3250590D01*
X2937967Y-3251555D01*
X2884220Y-3653688D01*
X2883916Y-3657244D01*
X2881579Y-3659835D01*
X2894482Y-3672738D01*
X2896209Y-3671112D01*
X2897276Y-3670554D01*
X2900273Y-3670046D01*
X2904693Y-3668572D01*
X3132328Y-3441090D01*
X3190392Y-3383686D01*
X3191814Y-3383889D01*
X3220110Y-3398672D01*
X3224326Y-3401110D01*
X3227933Y-3402837D01*
X3452317Y-3521151D01*
X3460902Y-3525875D01*
X3546195Y-3570782D01*
X3561537Y-3578606D01*
X3565601Y-3580231D01*
X3567531Y-3581247D01*
X3569614Y-3583178D01*
X3582720Y-3570020D01*
X3580841Y-3568039D01*
X3579926Y-3566312D01*
X3578453Y-3562502D01*
X3570528Y-3546906D01*
X3532124Y-3473805D01*
X3529228Y-3468776D01*
X3524453Y-3459479D01*
X3519322Y-3450082D01*
X3406749Y-3236366D01*
X3402380Y-3228390D01*
X3400551Y-3224479D01*
X3394100Y-3212693D01*
X3383686Y-3192678D01*
X3383127Y-3191306D01*
X3425139Y-3148685D01*
X3669182Y-2903677D01*
X3670198Y-2898749D01*
X3671062Y-2896412D01*
X3671824Y-2895193D01*
X3671315Y-2894177D01*
X3659378Y-2881985D01*
X3658362Y-2883052D01*
X3657396Y-2883560D01*
X3653078Y-2884525D01*
X3256127Y-2937865D01*
X3250641Y-2938018D01*
X3248202Y-2936798D01*
X3245916Y-2931515D01*
X3241700Y-2923692D01*
X3240074Y-2921304D01*
X3238652Y-2917901D01*
X3109620Y-2673350D01*
X3055924Y-2571089D01*
X3052419Y-2565704D01*
X3049016Y-2562453D01*
G37*
G36*
X3079089Y-2788462D02*
G01*
X3074314Y-2790952D01*
X3071012Y-2795930D01*
X3069234Y-2803245D01*
X3039110Y-3028340D01*
X3037992Y-3035198D01*
X3036874Y-3037738D01*
X3035198Y-3038348D01*
X2804109Y-3069590D01*
X2796641Y-3070809D01*
X2792577Y-3073095D01*
X2789478Y-3076346D01*
X2787954Y-3080156D01*
X2787700Y-3083407D01*
X2788208Y-3086252D01*
X2789682Y-3088995D01*
X2792129Y-3091535D01*
X2844495Y-3091535D01*
X2844901Y-3090722D01*
X2846578Y-3090011D01*
X2862478Y-3087624D01*
X3031286Y-3065018D01*
X3050743Y-3062224D01*
X3054451Y-3061055D01*
X3057347Y-3059328D01*
X3059531Y-3056788D01*
X3061157Y-3053283D01*
X3062427Y-3048558D01*
X3063341Y-3042412D01*
X3065018Y-3027730D01*
X3089300Y-2847492D01*
X3089910Y-2845511D01*
X3090672Y-2844647D01*
X3091484Y-2844952D01*
X3094939Y-2850896D01*
X3099663Y-2860192D01*
X3101644Y-2863545D01*
X3121761Y-2902102D01*
X3135020Y-2926842D01*
X3147415Y-2950921D01*
X3152343Y-2959760D01*
X3190036Y-3031439D01*
X3192119Y-3034893D01*
X3194456Y-3037687D01*
X3196996Y-3039719D01*
X3199638Y-3040989D01*
X3202432Y-3041446D01*
X3207766Y-3041192D01*
X3347669Y-3022650D01*
X3411270Y-3013964D01*
X3412998Y-3014116D01*
X3408426Y-3019094D01*
X3371545Y-3056636D01*
X3265678Y-3163163D01*
X3265017Y-3166110D01*
X3264712Y-3168954D01*
X3265068Y-3171952D01*
X3266135Y-3175203D01*
X3279952Y-3201873D01*
X3363569Y-3360369D01*
X3365957Y-3363874D01*
X3365601Y-3365398D01*
X3363671Y-3365703D01*
X3360572Y-3364484D01*
X3351580Y-3359505D01*
X3261055Y-3312007D01*
X3259175Y-3311245D01*
X3257397Y-3310077D01*
X3228187Y-3294329D01*
X3224987Y-3292856D01*
X3176168Y-3267049D01*
X3172307Y-3265627D01*
X3168853Y-3265170D01*
X3165551Y-3265525D01*
X3162706Y-3266135D01*
X3053435Y-3374745D01*
X3019298Y-3408172D01*
X3014268Y-3412388D01*
X3013659Y-3412591D01*
X3013405Y-3412439D01*
X3039364Y-3218789D01*
X3040583Y-3207512D01*
X3040532Y-3203854D01*
X3039973Y-3200704D01*
X3038805Y-3197860D01*
X3036925Y-3195218D01*
X3034182Y-3192627D01*
X3030474Y-3189986D01*
X3025698Y-3187141D01*
X3012490Y-3180384D01*
X3001416Y-3175000D01*
X2992272Y-3170021D01*
X2973273Y-3160166D01*
X2964789Y-3155492D01*
X2924454Y-3134410D01*
X2902661Y-3122676D01*
X2845511Y-3092500D01*
X2844495Y-3091535D01*
X2792129Y-3091535D01*
X2796489Y-3094786D01*
X2802229Y-3098241D01*
X2998012Y-3201416D01*
X3007969Y-3206394D01*
X3012490Y-3209340D01*
X3014116Y-3211982D01*
X3014014Y-3215284D01*
X2993288Y-3369208D01*
X2988716Y-3401822D01*
X2982874Y-3447287D01*
X2982823Y-3453790D01*
X2984804Y-3458972D01*
X2988818Y-3462629D01*
X2996387Y-3465118D01*
X2997504Y-3465169D01*
X2999028Y-3464509D01*
X3001365Y-3462832D01*
X3010204Y-3454857D01*
X3027222Y-3438194D01*
X3156102Y-3309620D01*
X3163265Y-3302812D01*
X3168345Y-3298291D01*
X3171850Y-3295700D01*
X3174136Y-3294583D01*
X3175660Y-3294583D01*
X3178302Y-3296412D01*
X3225292Y-3321304D01*
X3227984Y-3322929D01*
X3233623Y-3325672D01*
X3389528Y-3407968D01*
X3396132Y-3410305D01*
X3401822Y-3410153D01*
X3406394Y-3407562D01*
X3409442Y-3402736D01*
X3410204Y-3399485D01*
X3409746Y-3395878D01*
X3407613Y-3390696D01*
X3344570Y-3270656D01*
X3296818Y-3180334D01*
X3294786Y-3176117D01*
X3294227Y-3174542D01*
X3294126Y-3171393D01*
X3462680Y-3002838D01*
X3463594Y-2999790D01*
X3464204Y-2995574D01*
X3463391Y-2991612D01*
X3461308Y-2988056D01*
X3457956Y-2985058D01*
X3455009Y-2983484D01*
X3453028Y-2983128D01*
X3450183Y-2983128D01*
X3439820Y-2984195D01*
X3217672Y-3014065D01*
X3211322Y-3014218D01*
X3208375Y-3012287D01*
X3138932Y-2880766D01*
X3133445Y-2870708D01*
X3110077Y-2826258D01*
X3102660Y-2811678D01*
X3096463Y-2800197D01*
X3093821Y-2796082D01*
X3091434Y-2792984D01*
X3089249Y-2790748D01*
X3087116Y-2789275D01*
X3085084Y-2788513D01*
G37*
G36*
X775157Y-3200298D02*
G01*
X761898Y-3200806D01*
X750874Y-3202127D01*
X743559Y-3203397D01*
X734517Y-3205480D01*
X732282Y-3206343D01*
X730351Y-3206800D01*
X728878Y-3207410D01*
X727405Y-3207715D01*
X723239Y-3209290D01*
X719988Y-3210255D01*
X712622Y-3213455D01*
X709777Y-3214420D01*
X706577Y-3215894D01*
X702970Y-3217214D01*
X695147Y-3221075D01*
X689051Y-3224631D01*
X683717Y-3228136D01*
X676503Y-3234080D01*
X669594Y-3240633D01*
X662686Y-3248964D01*
X660298Y-3252215D01*
X652424Y-3265830D01*
X651865Y-3266490D01*
X648360Y-3273044D01*
X645261Y-3279648D01*
X641451Y-3289858D01*
X638708Y-3298240D01*
X635812Y-3311245D01*
X635355Y-3316325D01*
X635152Y-3325977D01*
X635406Y-3387547D01*
X634441Y-3388766D01*
X633679Y-3389172D01*
X631850Y-3389579D01*
X625703Y-3392017D01*
X618693Y-3396081D01*
X610006Y-3400653D01*
X592632Y-3410915D01*
X584962Y-3416046D01*
X574751Y-3422396D01*
X564896Y-3429406D01*
X560171Y-3433013D01*
X552704Y-3438194D01*
X539648Y-3448100D01*
X526796Y-3459835D01*
X519277Y-3467201D01*
X504698Y-3483000D01*
X501345Y-3487420D01*
X493877Y-3499408D01*
X488950Y-3508857D01*
X485140Y-3518255D01*
X483514Y-3523538D01*
X482396Y-3532327D01*
X482041Y-3542588D01*
X482498Y-3551732D01*
X484124Y-3558895D01*
X485089Y-3561232D01*
X487629Y-3563772D01*
X490982Y-3566007D01*
X496062Y-3567887D01*
X502310Y-3569055D01*
X513740Y-3569766D01*
X525627Y-3569919D01*
X533247Y-3569309D01*
X568604Y-3561232D01*
X571144Y-3560470D01*
X573176Y-3560165D01*
X575310Y-3559352D01*
X584860Y-3557015D01*
X591870Y-3554120D01*
X620420Y-3540150D01*
X623011Y-3539134D01*
X623925Y-3539185D01*
X624179Y-3546652D01*
X624078Y-3579012D01*
X623824Y-3587038D01*
X623620Y-3588562D01*
X624890Y-3614724D01*
X626008Y-3625900D01*
X628751Y-3643376D01*
X631393Y-3664559D01*
X633628Y-3677462D01*
X634593Y-3681476D01*
X634796Y-3683558D01*
X644702Y-3683508D01*
X647496Y-3683304D01*
X647649Y-3683101D01*
X645312Y-3671773D01*
X644042Y-3663899D01*
X640537Y-3638092D01*
X638098Y-3623411D01*
X636727Y-3609086D01*
X635965Y-3598367D01*
X635355Y-3576269D01*
X634238Y-3552088D01*
X632053Y-3538423D01*
X631139Y-3536035D01*
X630732Y-3534105D01*
X629716Y-3532479D01*
X628192Y-3531108D01*
X626465Y-3530193D01*
X624890Y-3529736D01*
X623620Y-3529634D01*
X622350Y-3529939D01*
X618439Y-3531615D01*
X612038Y-3533851D01*
X603199Y-3538220D01*
X579374Y-3548379D01*
X567232Y-3551631D01*
X557530Y-3554577D01*
X551738Y-3556050D01*
X541680Y-3559149D01*
X538835Y-3559606D01*
X533908Y-3560876D01*
X528878Y-3561587D01*
X519328Y-3561892D01*
X509016Y-3561842D01*
X501954Y-3561334D01*
X496316Y-3560013D01*
X492963Y-3557930D01*
X491337Y-3554526D01*
X490829Y-3549091D01*
X490880Y-3537356D01*
X491794Y-3528568D01*
X493725Y-3521354D01*
X497433Y-3513124D01*
X497890Y-3511651D01*
X500481Y-3506622D01*
X503123Y-3502507D01*
X508000Y-3496157D01*
X508812Y-3494633D01*
X526542Y-3474465D01*
X535990Y-3464915D01*
X540969Y-3460597D01*
X548030Y-3455466D01*
X559511Y-3445764D01*
X576834Y-3432657D01*
X584962Y-3427628D01*
X589534Y-3425037D01*
X604520Y-3415029D01*
X614019Y-3409035D01*
X628548Y-3400806D01*
X633933Y-3398520D01*
X638352Y-3397402D01*
X639013Y-3397605D01*
X641959Y-3400044D01*
X647090Y-3405124D01*
X660755Y-3420465D01*
X668375Y-3428288D01*
X676249Y-3435858D01*
X691794Y-3448659D01*
X693216Y-3449370D01*
X694537Y-3450488D01*
X698449Y-3453129D01*
X700074Y-3453892D01*
X701598Y-3455212D01*
X704088Y-3456686D01*
X704037Y-3457854D01*
X702360Y-3460038D01*
X693572Y-3469538D01*
X686460Y-3478885D01*
X685901Y-3480104D01*
X684631Y-3481832D01*
X684225Y-3482898D01*
X682701Y-3485286D01*
X678586Y-3493770D01*
X677316Y-3496919D01*
X675843Y-3502151D01*
X672236Y-3520490D01*
X670204Y-3540150D01*
X669798Y-3555898D01*
X669645Y-3582924D01*
X670052Y-3675278D01*
X671728Y-3678275D01*
X672388Y-3679088D01*
X672642Y-3680358D01*
X672541Y-3683558D01*
X682244Y-3683558D01*
X681888Y-3666236D01*
X682752Y-3545535D01*
X683056Y-3539083D01*
X684276Y-3524605D01*
X688035Y-3501136D01*
X689406Y-3497224D01*
X693369Y-3488944D01*
X694080Y-3487877D01*
X694436Y-3486810D01*
X696112Y-3483864D01*
X701395Y-3477260D01*
X714197Y-3463594D01*
X719632Y-3458514D01*
X724458Y-3454501D01*
X729488Y-3451301D01*
X734872Y-3448304D01*
X756818Y-3437331D01*
X762304Y-3435248D01*
X765911Y-3434283D01*
X774598Y-3433216D01*
X791210Y-3431895D01*
X807567Y-3431997D01*
X812444Y-3432352D01*
X818388Y-3433826D01*
X823772Y-3435756D01*
X835914Y-3441446D01*
X836676Y-3442157D01*
X844550Y-3446526D01*
X849071Y-3449726D01*
X850900Y-3450742D01*
X853033Y-3452368D01*
X854862Y-3453434D01*
X862126Y-3459175D01*
X867918Y-3464763D01*
X874826Y-3472535D01*
X878484Y-3477107D01*
X881380Y-3481476D01*
X885240Y-3488690D01*
X889406Y-3498494D01*
X890371Y-3501339D01*
X891743Y-3504437D01*
X895756Y-3516731D01*
X896366Y-3518001D01*
X897483Y-3522827D01*
X898956Y-3531717D01*
X904138Y-3554882D01*
X905205Y-3561892D01*
X905865Y-3569462D01*
X907135Y-3577234D01*
X907592Y-3578910D01*
X908659Y-3590188D01*
X909167Y-3603396D01*
X909421Y-3618737D01*
X909370Y-3631031D01*
X907338Y-3664000D01*
X906322Y-3673297D01*
X904341Y-3683152D01*
X904494Y-3683355D01*
X914704Y-3683558D01*
X916533Y-3673601D01*
X917702Y-3662832D01*
X918565Y-3636721D01*
X919175Y-3631844D01*
X919784Y-3618534D01*
X920394Y-3588258D01*
X920902Y-3584803D01*
X922629Y-3579571D01*
X926287Y-3572306D01*
X929081Y-3566007D01*
X930757Y-3564026D01*
X932942Y-3561994D01*
X937768Y-3558184D01*
X943813Y-3552139D01*
X947419Y-3546957D01*
X949198Y-3542588D01*
X951128Y-3536848D01*
X955192Y-3519881D01*
X955548Y-3515766D01*
X955649Y-3504031D01*
X954836Y-3494887D01*
X954582Y-3486912D01*
X954227Y-3482340D01*
X953566Y-3479952D01*
X953160Y-3477514D01*
X952195Y-3474465D01*
X951331Y-3472637D01*
X950721Y-3470706D01*
X947775Y-3464509D01*
X946302Y-3460546D01*
X940816Y-3448304D01*
X936142Y-3439464D01*
X935126Y-3438245D01*
X929081Y-3428085D01*
X925728Y-3423564D01*
X919886Y-3417722D01*
X914755Y-3413607D01*
X913282Y-3409797D01*
X912164Y-3405835D01*
X911250Y-3403803D01*
X910742Y-3401974D01*
X906780Y-3393084D01*
X906830Y-3392373D01*
X907491Y-3392322D01*
X910082Y-3393033D01*
X914552Y-3394964D01*
X917397Y-3395929D01*
X929081Y-3400958D01*
X930706Y-3401466D01*
X932637Y-3402380D01*
X947216Y-3407003D01*
X957681Y-3410051D01*
X959459Y-3410254D01*
X962152Y-3410204D01*
X964031Y-3409492D01*
X965250Y-3407968D01*
X966012Y-3405479D01*
X966216Y-3403650D01*
X965809Y-3402025D01*
X964539Y-3399993D01*
X960729Y-3395421D01*
X949350Y-3383229D01*
X940765Y-3375456D01*
X939647Y-3374796D01*
X929081Y-3365601D01*
X921715Y-3358337D01*
X914908Y-3350564D01*
X905764Y-3341014D01*
X903630Y-3337610D01*
X904544Y-3335223D01*
X909878Y-3331108D01*
X929690Y-3312566D01*
X933348Y-3308807D01*
X946200Y-3297885D01*
X970787Y-3274720D01*
X980897Y-3264306D01*
X981913Y-3261664D01*
X981557Y-3259378D01*
X979982Y-3257905D01*
X977392Y-3257651D01*
X975207Y-3258413D01*
X968146Y-3261969D01*
X958189Y-3267506D01*
X957224Y-3268217D01*
X945642Y-3274161D01*
X938021Y-3277311D01*
X921207Y-3285286D01*
X909421Y-3291128D01*
X891286Y-3301187D01*
X882091Y-3306673D01*
X878484Y-3309264D01*
X877062Y-3310940D01*
X876553Y-3312769D01*
X877011Y-3314649D01*
X878433Y-3316376D01*
X879906Y-3316986D01*
X881938Y-3316782D01*
X884580Y-3315766D01*
X900430Y-3306318D01*
X916482Y-3297428D01*
X936498Y-3287572D01*
X946505Y-3283102D01*
X948486Y-3282442D01*
X948740Y-3282696D01*
X945134Y-3286353D01*
X932078Y-3297732D01*
X923594Y-3306064D01*
X910183Y-3320135D01*
X900074Y-3329482D01*
X897890Y-3331718D01*
X896924Y-3332987D01*
X896061Y-3336848D01*
X896874Y-3340811D01*
X899566Y-3345281D01*
X913231Y-3360420D01*
X918210Y-3366262D01*
X930351Y-3378403D01*
X940053Y-3386836D01*
X945743Y-3392322D01*
X950010Y-3397046D01*
X951331Y-3399383D01*
X949452Y-3399231D01*
X933450Y-3393846D01*
X923798Y-3389274D01*
X909624Y-3383686D01*
X899109Y-3380892D01*
X879500Y-3373526D01*
X871118Y-3369716D01*
X869289Y-3368649D01*
X867460Y-3368040D01*
X864717Y-3367786D01*
X862837Y-3369157D01*
X862330Y-3371443D01*
X863650Y-3373882D01*
X865022Y-3374999D01*
X872185Y-3378047D01*
X873201Y-3378809D01*
X874674Y-3379317D01*
X875893Y-3380130D01*
X895502Y-3388258D01*
X896619Y-3389020D01*
X898398Y-3394913D01*
X902055Y-3402787D01*
X905103Y-3410102D01*
X908608Y-3420262D01*
X909269Y-3422802D01*
X910498Y-3429660D01*
X918210Y-3429660D01*
X918514Y-3429508D01*
X920343Y-3431082D01*
X922528Y-3433724D01*
X925474Y-3438550D01*
X928065Y-3442258D01*
X928827Y-3443833D01*
X934110Y-3452317D01*
X940257Y-3466693D01*
X940866Y-3468674D01*
X941476Y-3469589D01*
X944371Y-3476142D01*
X946251Y-3481273D01*
X946708Y-3484219D01*
X948080Y-3507892D01*
X948131Y-3513836D01*
X947623Y-3519068D01*
X946150Y-3526485D01*
X944168Y-3534105D01*
X941628Y-3542588D01*
X939952Y-3545687D01*
X935583Y-3551275D01*
X932027Y-3554272D01*
X928573Y-3556406D01*
X928522Y-3555034D01*
X930198Y-3541725D01*
X930605Y-3535375D01*
X930910Y-3516884D01*
X930808Y-3509416D01*
X930452Y-3501999D01*
X929843Y-3495141D01*
X928573Y-3486505D01*
X925626Y-3470554D01*
X925118Y-3469182D01*
X924610Y-3464966D01*
X922070Y-3451047D01*
X921562Y-3449370D01*
X921105Y-3445611D01*
X919124Y-3436010D01*
X918210Y-3429660D01*
X910498Y-3429660D01*
X912114Y-3442258D01*
X913485Y-3450234D01*
X914095Y-3452063D01*
X914349Y-3454044D01*
X916127Y-3462375D01*
X917041Y-3469538D01*
X920038Y-3483305D01*
X921766Y-3494278D01*
X923036Y-3504234D01*
X923391Y-3511143D01*
X923493Y-3534968D01*
X923188Y-3541826D01*
X921258Y-3557117D01*
X919124Y-3569868D01*
X918514Y-3572103D01*
X918006Y-3571798D01*
X917498Y-3570427D01*
X915517Y-3556558D01*
X912571Y-3544265D01*
X912266Y-3541979D01*
X911555Y-3539947D01*
X910894Y-3536746D01*
X910234Y-3534664D01*
X905459Y-3512159D01*
X903630Y-3507079D01*
X903325Y-3505606D01*
X899363Y-3495801D01*
X892098Y-3479139D01*
X889000Y-3473958D01*
X885291Y-3468420D01*
X879652Y-3460953D01*
X870305Y-3450437D01*
X867562Y-3447796D01*
X856640Y-3439718D01*
X848512Y-3434689D01*
X831189Y-3426002D01*
X823620Y-3423310D01*
X817981Y-3421735D01*
X809040Y-3420770D01*
X799084Y-3420313D01*
X789584Y-3420872D01*
X767537Y-3423412D01*
X763930Y-3424021D01*
X761746Y-3424682D01*
X759612Y-3425037D01*
X757834Y-3425748D01*
X755751Y-3426256D01*
X742340Y-3431844D01*
X726440Y-3440480D01*
X714857Y-3448050D01*
X713028Y-3448913D01*
X711809Y-3448812D01*
X708964Y-3446779D01*
X707593Y-3446068D01*
X705612Y-3444595D01*
X703884Y-3443630D01*
X698246Y-3439312D01*
X677621Y-3420668D01*
X668883Y-3411829D01*
X660958Y-3403193D01*
X653491Y-3395979D01*
X648716Y-3392017D01*
X647090Y-3391103D01*
X646430Y-3390188D01*
X646074Y-3389122D01*
X646531Y-3311347D01*
X648716Y-3299815D01*
X649986Y-3295446D01*
X651662Y-3291433D01*
X652424Y-3289046D01*
X654812Y-3283508D01*
X661060Y-3271265D01*
X668020Y-3259632D01*
X669442Y-3257702D01*
X670153Y-3256381D01*
X672236Y-3253435D01*
X674725Y-3250590D01*
X684022Y-3241395D01*
X691083Y-3235807D01*
X694944Y-3233470D01*
X701649Y-3229864D01*
X710590Y-3225952D01*
X712216Y-3225495D01*
X716127Y-3223768D01*
X718261Y-3223158D01*
X721664Y-3221634D01*
X725728Y-3220161D01*
X741121Y-3215995D01*
X749401Y-3214370D01*
X760018Y-3213252D01*
X773277Y-3212490D01*
X786790Y-3212439D01*
X792835Y-3212693D01*
X797915Y-3213150D01*
X807313Y-3215081D01*
X817575Y-3217722D01*
X830376Y-3221431D01*
X838758Y-3224682D01*
X854557Y-3232708D01*
X855776Y-3233623D01*
X859790Y-3235807D01*
X862990Y-3237839D01*
X865022Y-3239414D01*
X865682Y-3239617D01*
X877265Y-3248812D01*
X879957Y-3251809D01*
X881583Y-3254095D01*
X884631Y-3257042D01*
X887882Y-3257905D01*
X890625Y-3256737D01*
X892302Y-3253486D01*
X891743Y-3251301D01*
X889965Y-3247745D01*
X887526Y-3243935D01*
X884936Y-3240786D01*
X880211Y-3236366D01*
X876350Y-3233420D01*
X876147Y-3233013D01*
X876350Y-3232607D01*
X876960Y-3232302D01*
X884275Y-3232099D01*
X889101Y-3232200D01*
X892200Y-3232607D01*
X894486Y-3233623D01*
X897026Y-3235706D01*
X897280Y-3236874D01*
X897331Y-3238703D01*
X898652Y-3244748D01*
X899363Y-3246272D01*
X900277Y-3249320D01*
X902462Y-3252825D01*
X905357Y-3256229D01*
X908253Y-3258565D01*
X909574Y-3259378D01*
X909828Y-3269030D01*
X909472Y-3271926D01*
X908558Y-3274314D01*
X905713Y-3279140D01*
X905205Y-3280968D01*
X905560Y-3282492D01*
X906729Y-3283712D01*
X908100Y-3284118D01*
X909574Y-3283813D01*
X910945Y-3282899D01*
X912571Y-3280054D01*
X913282Y-3279241D01*
X916482Y-3273247D01*
X916432Y-3251352D01*
X916279Y-3249574D01*
X915466Y-3247644D01*
X915111Y-3246170D01*
X913282Y-3242462D01*
X908303Y-3235096D01*
X906373Y-3232810D01*
X901395Y-3228898D01*
X897331Y-3226765D01*
X892454Y-3224580D01*
X886460Y-3224123D01*
X872540Y-3223564D01*
X868375Y-3223564D01*
X864616Y-3224377D01*
X863396Y-3224377D01*
X862330Y-3224072D01*
X859028Y-3222040D01*
X847648Y-3216452D01*
X846074Y-3215182D01*
X844550Y-3214573D01*
X843432Y-3213811D01*
X834847Y-3210153D01*
X821486Y-3205988D01*
X814628Y-3204159D01*
X798372Y-3200958D01*
X793394Y-3200552D01*
G37*
G36*
X773684Y-3263747D02*
G01*
X765810Y-3265220D01*
X760222Y-3267202D01*
X755954Y-3267964D01*
X753668Y-3268624D01*
X747115Y-3271672D01*
X738225Y-3277362D01*
X729538Y-3283965D01*
X720242Y-3292348D01*
X712927Y-3299714D01*
X704799Y-3308400D01*
X700786Y-3313480D01*
X696874Y-3320846D01*
X694690Y-3327044D01*
X693724Y-3330701D01*
X692912Y-3336290D01*
X692708Y-3342792D01*
X693055Y-3348532D01*
X701141Y-3348532D01*
X701395Y-3337356D01*
X702056Y-3332581D01*
X703275Y-3328415D01*
X706831Y-3320948D01*
X707948Y-3319272D01*
X719226Y-3307029D01*
X728878Y-3296920D01*
X735279Y-3290773D01*
X746810Y-3282391D01*
X752246Y-3279444D01*
X757580Y-3277311D01*
X765810Y-3275888D01*
X767334Y-3275279D01*
X768350Y-3274415D01*
X769315Y-3272383D01*
X769823Y-3271875D01*
X774903Y-3270859D01*
X777646Y-3270758D01*
X784961Y-3271875D01*
X793496Y-3274110D01*
X796696Y-3276041D01*
X799947Y-3278632D01*
X804062Y-3283458D01*
X806856Y-3287369D01*
X807821Y-3290722D01*
X807669Y-3294481D01*
X806043Y-3300222D01*
X804062Y-3304844D01*
X801878Y-3308654D01*
X799439Y-3311347D01*
X797560Y-3314141D01*
X793902Y-3318713D01*
X790092Y-3322269D01*
X781050Y-3329990D01*
X769924Y-3336391D01*
X761898Y-3340049D01*
X757834Y-3341420D01*
X751332Y-3343046D01*
X750417Y-3343554D01*
X747928Y-3344265D01*
X746455Y-3344926D01*
X744982Y-3345179D01*
X738479Y-3347110D01*
X735634Y-3347618D01*
X734009Y-3348278D01*
X730504Y-3349193D01*
X724763Y-3351682D01*
X719582Y-3353054D01*
X715619Y-3353155D01*
X710844Y-3352850D01*
X704189Y-3351784D01*
X703224Y-3351428D01*
X702564Y-3350869D01*
X701141Y-3348532D01*
X693055Y-3348532D01*
X693978Y-3352495D01*
X695858Y-3355238D01*
X697433Y-3356711D01*
X700024Y-3358438D01*
X706170Y-3360267D01*
X712368Y-3360928D01*
X718566Y-3361182D01*
X722528Y-3360623D01*
X732942Y-3357778D01*
X743305Y-3355390D01*
X754024Y-3352139D01*
X755497Y-3351885D01*
X762050Y-3350006D01*
X772972Y-3345484D01*
X781253Y-3340811D01*
X786333Y-3337153D01*
X793038Y-3331413D01*
X799185Y-3325469D01*
X806754Y-3316122D01*
X810869Y-3309772D01*
X814882Y-3299358D01*
X815797Y-3295142D01*
X816000Y-3291433D01*
X815187Y-3287471D01*
X813104Y-3283254D01*
X808990Y-3277514D01*
X804621Y-3272485D01*
X798931Y-3268827D01*
X794867Y-3266998D01*
X786587Y-3264712D01*
X782929Y-3264103D01*
X778205Y-3263747D01*
G37*
G36*
X757529Y-3293059D02*
G01*
X752348Y-3293465D01*
X748487Y-3294532D01*
X741527Y-3297174D01*
X736092Y-3300679D01*
X730148Y-3305301D01*
X725119Y-3310077D01*
X721156Y-3316071D01*
X719937Y-3321812D01*
X721461Y-3326485D01*
X725627Y-3329330D01*
X727760Y-3330041D01*
X730758Y-3330346D01*
X741019Y-3330244D01*
X748030Y-3328771D01*
X750976Y-3327450D01*
X757224Y-3325469D01*
X762558Y-3322370D01*
X766673Y-3319627D01*
X768756Y-3317849D01*
X771042Y-3315462D01*
X773023Y-3312922D01*
X775665Y-3308502D01*
X776274Y-3306216D01*
X776782Y-3302711D01*
X775919Y-3299002D01*
X773734Y-3296564D01*
X772464Y-3295548D01*
X769670Y-3294684D01*
X763066Y-3293872D01*
X760984Y-3293262D01*
G37*
D10*
X2676906Y-146812D02*
G01*
X2668015Y-151384D01*
X2658872Y-160528D01*
X2654300Y-173989D01*
X2654300Y-183134D01*
X2658872Y-196850D01*
X2668015Y-205994D01*
X2676906Y-210565D01*
X2690622Y-210565D01*
X2699765Y-205994D01*
X2708909Y-196850D01*
X2713481Y-183134D01*
X2713481Y-173989D01*
X2708909Y-160528D01*
X2699765Y-151384D01*
X2690622Y-146812D01*
X2676906Y-146812D01*
X2743454Y-146812D02*
G01*
X2743454Y-210565D01*
X2743454Y-165100D02*
G01*
X2756915Y-151384D01*
X2766059Y-146812D01*
X2779775Y-146812D01*
X2788920Y-151384D01*
X2793491Y-165100D01*
X2793491Y-210565D01*
X2823463Y-115062D02*
G01*
X2823463Y-210565D01*
X2858008Y-146812D02*
G01*
X2885186Y-210565D01*
X2912363Y-146812D02*
G01*
X2885186Y-210565D01*
X2876041Y-228600D01*
X2867152Y-237744D01*
X2858008Y-242315D01*
X2853436Y-242315D01*
X2956052Y-115062D02*
G01*
X2956052Y-192278D01*
X2960624Y-205994D01*
X2969768Y-210565D01*
X2978911Y-210565D01*
X2942590Y-146812D02*
G01*
X2974340Y-146812D01*
X3008884Y-115062D02*
G01*
X3008884Y-210565D01*
X3008884Y-165100D02*
G01*
X3022600Y-151384D01*
X3031490Y-146812D01*
X3045206Y-146812D01*
X3054350Y-151384D01*
X3058922Y-165100D01*
X3058922Y-210565D01*
X3098038Y-115062D02*
G01*
X3147822Y-115062D01*
X3120643Y-151384D01*
X3134359Y-151384D01*
X3143504Y-155955D01*
X3147822Y-160528D01*
X3152393Y-173989D01*
X3152393Y-183134D01*
X3147822Y-196850D01*
X3138931Y-205994D01*
X3125215Y-210565D01*
X3111500Y-210565D01*
X3098038Y-205994D01*
X3093465Y-201421D01*
X3088893Y-192278D01*
X3182365Y-115062D02*
G01*
X3182365Y-210565D01*
X3182365Y-160528D02*
G01*
X3191509Y-151384D01*
X3200654Y-146812D01*
X3214370Y-146812D01*
X3223513Y-151384D01*
X3232404Y-160528D01*
X3236975Y-173989D01*
X3236975Y-183134D01*
X3232404Y-196850D01*
X3223513Y-205994D01*
X3214370Y-210565D01*
X3200654Y-210565D01*
X3191509Y-205994D01*
X3182365Y-196850D01*
X3266947Y-173989D02*
G01*
X3321558Y-173989D01*
X3321558Y-165100D01*
X3316986Y-155955D01*
X3312413Y-151384D01*
X3303270Y-146812D01*
X3289808Y-146812D01*
X3280663Y-151384D01*
X3271520Y-160528D01*
X3266947Y-173989D01*
X3266947Y-183134D01*
X3271520Y-196850D01*
X3280663Y-205994D01*
X3289808Y-210565D01*
X3303270Y-210565D01*
X3312413Y-205994D01*
X3321558Y-196850D01*
X3401568Y-160528D02*
G01*
X3396995Y-151384D01*
X3383279Y-146812D01*
X3369818Y-146812D01*
X3356102Y-151384D01*
X3351529Y-160528D01*
X3356102Y-169418D01*
X3365245Y-173989D01*
X3387852Y-178562D01*
X3396995Y-183134D01*
X3401568Y-192278D01*
X3401568Y-196850D01*
X3396995Y-205994D01*
X3383279Y-210565D01*
X3369818Y-210565D01*
X3356102Y-205994D01*
X3351529Y-196850D01*
X3445256Y-115062D02*
G01*
X3445256Y-192278D01*
X3449827Y-205994D01*
X3458718Y-210565D01*
X3467861Y-210565D01*
X3431540Y-146812D02*
G01*
X3463290Y-146812D01*
X263144Y-2871723D02*
G01*
X190500Y-2912618D01*
X263144Y-2953765D01*
X268223Y-2962655D02*
G01*
X309118Y-3035300D01*
X350265Y-2962655D01*
X359155Y-2957576D02*
G01*
X431800Y-2916681D01*
X359155Y-2875534D01*
X354076Y-2866644D02*
G01*
X313181Y-2794000D01*
X272034Y-2866644D01*
X163576Y-3038094D02*
G01*
X81534Y-3038094D01*
X122681Y-2997200D02*
G01*
X122681Y-3078987D01*
X213613Y-3127502D02*
G01*
X156210Y-3127502D01*
X184912Y-3098800D02*
G01*
X184912Y-3155950D01*
X2753359Y-771905D02*
G01*
X2698750Y-771905D01*
X2739643Y-749300D02*
G01*
X2712465Y-794765D01*
X2739643Y-794765D02*
G01*
X2712465Y-749300D01*
X226060Y-1381505D02*
G01*
X171450Y-1381505D01*
X212344Y-1358900D02*
G01*
X185165Y-1404365D01*
X212344Y-1404365D02*
G01*
X185165Y-1358900D01*
D11*
X1027686Y-3352802D02*
G01*
X1105664Y-3352802D01*
X1121153Y-3347722D01*
X1131570Y-3337308D01*
X1136650Y-3321557D01*
X1136650Y-3311146D01*
X1131570Y-3295652D01*
X1121158Y-3285238D01*
X1105662Y-3280158D01*
X1027684Y-3280158D01*
X1043178Y-3172970D02*
G01*
X1032766Y-3183381D01*
X1027681Y-3199132D01*
X1027681Y-3219706D01*
X1032763Y-3235454D01*
X1043178Y-3245868D01*
X1053592Y-3245868D01*
X1064005Y-3240534D01*
X1069339Y-3235454D01*
X1074420Y-3225037D01*
X1084831Y-3193798D01*
X1089913Y-3183384D01*
X1095247Y-3178304D01*
X1105662Y-3172970D01*
X1121155Y-3172970D01*
X1131570Y-3183381D01*
X1136647Y-3199135D01*
X1136650Y-3219706D01*
X1131570Y-3235454D01*
X1121155Y-3245868D01*
X1027684Y-3138680D02*
G01*
X1136650Y-3138680D01*
X1027684Y-3138680D02*
G01*
X1027684Y-3091944D01*
X1032761Y-3076450D01*
X1038095Y-3071116D01*
X1048512Y-3066036D01*
X1058926Y-3066036D01*
X1069337Y-3071116D01*
X1074420Y-3076450D01*
X1079500Y-3091944D01*
X1079500Y-3138680D02*
G01*
X1079500Y-3091944D01*
X1084834Y-3076450D01*
X1089911Y-3071116D01*
X1100328Y-3066039D01*
X1116076Y-3066034D01*
X1126489Y-3071116D01*
X1131570Y-3076450D01*
X1136650Y-3091942D01*
X1136650Y-3138680D01*
X1027686Y-2969260D02*
G01*
X1027684Y-3021332D01*
X1074420Y-3026412D01*
X1069339Y-3021335D01*
X1064005Y-3005838D01*
X1064005Y-2990090D01*
X1069339Y-2974599D01*
X1079500Y-2964182D01*
X1095247Y-2959102D01*
X1105662Y-2959102D01*
X1121155Y-2964182D01*
X1131570Y-2974596D01*
X1136650Y-2990090D01*
X1136650Y-3005838D01*
X1131572Y-3021332D01*
X1126489Y-3026412D01*
X1116076Y-3031746D01*
D12*
X1124912Y-1598810D02*
G01*
X1117727Y-1596296D01*
X1108029Y-1596296D01*
X1100843Y-1598810D01*
X1091326Y-1608330D01*
X1088811Y-1615513D01*
X1088811Y-1625211D01*
X1091145Y-1632577D01*
X1095994Y-1642094D01*
X1108209Y-1654309D01*
X1117727Y-1659158D01*
X1125090Y-1661492D01*
X1134610Y-1661312D01*
X1141973Y-1658978D01*
X1151493Y-1649458D01*
X1153828Y-1642094D01*
X1154008Y-1632577D01*
X1151493Y-1625391D01*
X1138562Y-1580489D02*
G01*
X1140896Y-1573126D01*
X1140896Y-1558759D01*
X1191544Y-1609407D01*
X825754Y-1579626D02*
G01*
X822452Y-1572768D01*
X815594Y-1565910D01*
X808736Y-1562607D01*
X795273Y-1562607D01*
X788415Y-1565910D01*
X781557Y-1572768D01*
X778002Y-1579626D01*
X774700Y-1589786D01*
X774700Y-1607057D01*
X778002Y-1617218D01*
X781557Y-1624076D01*
X788415Y-1630679D01*
X795273Y-1634236D01*
X808736Y-1634236D01*
X815594Y-1630679D01*
X822452Y-1624076D01*
X825754Y-1617218D01*
X851662Y-1579626D02*
G01*
X851662Y-1576323D01*
X855218Y-1569465D01*
X858520Y-1565910D01*
X865378Y-1562607D01*
X879094Y-1562607D01*
X885952Y-1565910D01*
X889254Y-1569465D01*
X892555Y-1576323D01*
X892555Y-1583181D01*
X889254Y-1589786D01*
X882395Y-1600200D01*
X848360Y-1634236D01*
X896112Y-1634236D01*
X1957324Y-916686D02*
G01*
X1953768Y-909828D01*
X1947163Y-902970D01*
X1940306Y-899668D01*
X1926589Y-899668D01*
X1919731Y-902970D01*
X1912873Y-909828D01*
X1909571Y-916686D01*
X1906270Y-926845D01*
X1906270Y-943863D01*
X1909571Y-954023D01*
X1912873Y-960881D01*
X1919731Y-967739D01*
X1926589Y-971042D01*
X1940306Y-971042D01*
X1947163Y-967739D01*
X1953768Y-960881D01*
X1957324Y-954023D01*
X1986534Y-899668D02*
G01*
X2024125Y-899668D01*
X2003552Y-926845D01*
X2013965Y-926845D01*
X2020570Y-930147D01*
X2024125Y-933704D01*
X2027427Y-943863D01*
X2027427Y-950721D01*
X2024125Y-960881D01*
X2017268Y-967739D01*
X2007108Y-971042D01*
X1996947Y-971042D01*
X1986534Y-967739D01*
X1983231Y-964437D01*
X1979675Y-957579D01*
X1423789Y-1531312D02*
G01*
X1426303Y-1524127D01*
X1426303Y-1514429D01*
X1423789Y-1507243D01*
X1414269Y-1497726D01*
X1407086Y-1495211D01*
X1397388Y-1495211D01*
X1390022Y-1497545D01*
X1380505Y-1502394D01*
X1368290Y-1514609D01*
X1363441Y-1524127D01*
X1361107Y-1531490D01*
X1361287Y-1541010D01*
X1363621Y-1548373D01*
X1373141Y-1557893D01*
X1380505Y-1560228D01*
X1390022Y-1560408D01*
X1397208Y-1557893D01*
X1475874Y-1559331D02*
G01*
X1418041Y-1569029D01*
X1454142Y-1605130D01*
X1475874Y-1559331D02*
G01*
X1425227Y-1609979D01*
X1550789Y-1658312D02*
G01*
X1553303Y-1651127D01*
X1553303Y-1641429D01*
X1550789Y-1634243D01*
X1541269Y-1624726D01*
X1534086Y-1622211D01*
X1524388Y-1622211D01*
X1517022Y-1624545D01*
X1507505Y-1629394D01*
X1495290Y-1641609D01*
X1490441Y-1651127D01*
X1488107Y-1658490D01*
X1488287Y-1668010D01*
X1490621Y-1675373D01*
X1500141Y-1684893D01*
X1507505Y-1687228D01*
X1517022Y-1687408D01*
X1524208Y-1684893D01*
X1607723Y-1691180D02*
G01*
X1583656Y-1667113D01*
X1559410Y-1686331D01*
X1564439Y-1686331D01*
X1573959Y-1691180D01*
X1581142Y-1698363D01*
X1586171Y-1708063D01*
X1585991Y-1717581D01*
X1581142Y-1727459D01*
X1576473Y-1732130D01*
X1566595Y-1736979D01*
X1557256Y-1736979D01*
X1547378Y-1732130D01*
X1540192Y-1724944D01*
X1535523Y-1715246D01*
X1535343Y-1710397D01*
X1537858Y-1703212D01*
X1512689Y-2204412D02*
G01*
X1515203Y-2197227D01*
X1515203Y-2187529D01*
X1512689Y-2180343D01*
X1503169Y-2170826D01*
X1495986Y-2168311D01*
X1486288Y-2168311D01*
X1478922Y-2170645D01*
X1469405Y-2175494D01*
X1457190Y-2187709D01*
X1452341Y-2197227D01*
X1450007Y-2204590D01*
X1450187Y-2214110D01*
X1452521Y-2221473D01*
X1462041Y-2230993D01*
X1469405Y-2233328D01*
X1478922Y-2233508D01*
X1486108Y-2230993D01*
X1562440Y-2244463D02*
G01*
X1564954Y-2237280D01*
X1559925Y-2227579D01*
X1555076Y-2222731D01*
X1545556Y-2217882D01*
X1533344Y-2220396D01*
X1518975Y-2230094D01*
X1506941Y-2242129D01*
X1499577Y-2254163D01*
X1499758Y-2263681D01*
X1504426Y-2273381D01*
X1506941Y-2275895D01*
X1516641Y-2280564D01*
X1526159Y-2280744D01*
X1535859Y-2275715D01*
X1538193Y-2273381D01*
X1543042Y-2263861D01*
X1543042Y-2254163D01*
X1538373Y-2244463D01*
X1535859Y-2241948D01*
X1526159Y-2237280D01*
X1516461Y-2237280D01*
X1506941Y-2242129D01*
X1639689Y-2331412D02*
G01*
X1642203Y-2324227D01*
X1642203Y-2314529D01*
X1639689Y-2307343D01*
X1630169Y-2297826D01*
X1622986Y-2295311D01*
X1613288Y-2295311D01*
X1605922Y-2297645D01*
X1596405Y-2302494D01*
X1584190Y-2314709D01*
X1579341Y-2324227D01*
X1577007Y-2331590D01*
X1577187Y-2341110D01*
X1579521Y-2348473D01*
X1589041Y-2357993D01*
X1596405Y-2360328D01*
X1605922Y-2360508D01*
X1613108Y-2357993D01*
X1701472Y-2369129D02*
G01*
X1626758Y-2395710D01*
X1667708Y-2335362D02*
G01*
X1701472Y-2369129D01*
X2477889Y-2153612D02*
G01*
X2480403Y-2146427D01*
X2480403Y-2136729D01*
X2477889Y-2129543D01*
X2468369Y-2120026D01*
X2461186Y-2117511D01*
X2451488Y-2117511D01*
X2444122Y-2119845D01*
X2434605Y-2124694D01*
X2422390Y-2136909D01*
X2417541Y-2146427D01*
X2415207Y-2153790D01*
X2415387Y-2163310D01*
X2417721Y-2170673D01*
X2427241Y-2180193D01*
X2434605Y-2182528D01*
X2444122Y-2182708D01*
X2451308Y-2180193D01*
X2517940Y-2169596D02*
G01*
X2508422Y-2164748D01*
X2501059Y-2167082D01*
X2496210Y-2171931D01*
X2493873Y-2179294D01*
X2496388Y-2186480D01*
X2503393Y-2198512D01*
X2508422Y-2208212D01*
X2508242Y-2217729D01*
X2505908Y-2225095D01*
X2498722Y-2232279D01*
X2491359Y-2234613D01*
X2486690Y-2234613D01*
X2476990Y-2229944D01*
X2467292Y-2220244D01*
X2462623Y-2210546D01*
X2462443Y-2205697D01*
X2464958Y-2198512D01*
X2472141Y-2191329D01*
X2479327Y-2188814D01*
X2489024Y-2188814D01*
X2498544Y-2193663D01*
X2510756Y-2200849D01*
X2517940Y-2203363D01*
X2525125Y-2200849D01*
X2529974Y-2195997D01*
X2532489Y-2188814D01*
X2527640Y-2179294D01*
X2517940Y-2169596D01*
X2350889Y-2026612D02*
G01*
X2353403Y-2019427D01*
X2353403Y-2009729D01*
X2350889Y-2002543D01*
X2341369Y-1993026D01*
X2334186Y-1990511D01*
X2324488Y-1990511D01*
X2317122Y-1992845D01*
X2307605Y-1997694D01*
X2295390Y-2009909D01*
X2290541Y-2019427D01*
X2288207Y-2026790D01*
X2288387Y-2036310D01*
X2290721Y-2043673D01*
X2300241Y-2053193D01*
X2307605Y-2055528D01*
X2317122Y-2055708D01*
X2324308Y-2053193D01*
X2393276Y-2078697D02*
G01*
X2383756Y-2083546D01*
X2374059Y-2083546D01*
X2364359Y-2078875D01*
X2361844Y-2076363D01*
X2357175Y-2066663D01*
X2357175Y-2056965D01*
X2362024Y-2047445D01*
X2364359Y-2045111D01*
X2374059Y-2040082D01*
X2383756Y-2040082D01*
X2393276Y-2044931D01*
X2395791Y-2047445D01*
X2400640Y-2056965D01*
X2400640Y-2066663D01*
X2393276Y-2078697D01*
X2381242Y-2090729D01*
X2366873Y-2100430D01*
X2354841Y-2102764D01*
X2345141Y-2098095D01*
X2340292Y-2093244D01*
X2335623Y-2083546D01*
X2337777Y-2076363D01*
X2573274Y-2591054D02*
G01*
X2580131Y-2587752D01*
X2586990Y-2580894D01*
X2590291Y-2574036D01*
X2590291Y-2560573D01*
X2586990Y-2553715D01*
X2580131Y-2546857D01*
X2573274Y-2543302D01*
X2563113Y-2540000D01*
X2545841Y-2540000D01*
X2535681Y-2543302D01*
X2528824Y-2546857D01*
X2522220Y-2553715D01*
X2518663Y-2560573D01*
X2518663Y-2574036D01*
X2522220Y-2580894D01*
X2528824Y-2587752D01*
X2535681Y-2591054D01*
X2576575Y-2613660D02*
G01*
X2580131Y-2620518D01*
X2590291Y-2630678D01*
X2518663Y-2630678D01*
X2590291Y-2673604D02*
G01*
X2586990Y-2663444D01*
X2576575Y-2656586D01*
X2559558Y-2653284D01*
X2549397Y-2653284D01*
X2532379Y-2656586D01*
X2522220Y-2663444D01*
X2518663Y-2673604D01*
X2518663Y-2680462D01*
X2522220Y-2690621D01*
X2532379Y-2697479D01*
X2549397Y-2700781D01*
X2559558Y-2700781D01*
X2576575Y-2697479D01*
X2586990Y-2690621D01*
X2590291Y-2680462D01*
X2590291Y-2673604D01*
X1270380Y-2392426D02*
G01*
X1266825Y-2385568D01*
X1260220Y-2378710D01*
X1253362Y-2375407D01*
X1239646Y-2375407D01*
X1232788Y-2378710D01*
X1225930Y-2385568D01*
X1222629Y-2392426D01*
X1219327Y-2402586D01*
X1219327Y-2419857D01*
X1222629Y-2430018D01*
X1225930Y-2436876D01*
X1232788Y-2443479D01*
X1239646Y-2447036D01*
X1253362Y-2447036D01*
X1260220Y-2443479D01*
X1266825Y-2436876D01*
X1270380Y-2430018D01*
X1292732Y-2389123D02*
G01*
X1299590Y-2385568D01*
X1310004Y-2375407D01*
X1310004Y-2447036D01*
X1332356Y-2389123D02*
G01*
X1339214Y-2385568D01*
X1349375Y-2375407D01*
X1349375Y-2447036D01*
X1445077Y-1254577D02*
G01*
X1495727Y-1305227D01*
X1445077Y-1254577D02*
G01*
X1466809Y-1232844D01*
X1476329Y-1227996D01*
X1481178Y-1228176D01*
X1488541Y-1230510D01*
X1493390Y-1235359D01*
X1495546Y-1242545D01*
X1495727Y-1247394D01*
X1490875Y-1256911D01*
X1469143Y-1278643D01*
X1486027Y-1261762D02*
G01*
X1529491Y-1271460D01*
X1504348Y-1214704D02*
G01*
X1506682Y-1207340D01*
X1506862Y-1192794D01*
X1557510Y-1243441D01*
X1171122Y-1178377D02*
G01*
X1120472Y-1229027D01*
X1171122Y-1178377D02*
G01*
X1192855Y-1200109D01*
X1197703Y-1209629D01*
X1197523Y-1214478D01*
X1195189Y-1221841D01*
X1190340Y-1226690D01*
X1183154Y-1228846D01*
X1178305Y-1229027D01*
X1168788Y-1224175D01*
X1147056Y-1202443D01*
X1163937Y-1219327D02*
G01*
X1154239Y-1262791D01*
X1211173Y-1242496D02*
G01*
X1213510Y-1240162D01*
X1220693Y-1237648D01*
X1225722Y-1237648D01*
X1232905Y-1240162D01*
X1242425Y-1249679D01*
X1244940Y-1256865D01*
X1244940Y-1261894D01*
X1242425Y-1269077D01*
X1237576Y-1273926D01*
X1230571Y-1276263D01*
X1218359Y-1278775D01*
X1170045Y-1278597D01*
X1203810Y-1312362D01*
X868174Y-2400807D02*
G01*
X868174Y-2472436D01*
X868174Y-2400807D02*
G01*
X898908Y-2400807D01*
X909068Y-2404110D01*
X912370Y-2407665D01*
X915926Y-2414523D01*
X915926Y-2421381D01*
X912370Y-2427986D01*
X909068Y-2431542D01*
X898908Y-2434844D01*
X868174Y-2434844D01*
X892050Y-2434844D02*
G01*
X915926Y-2472436D01*
X945136Y-2400807D02*
G01*
X982728Y-2400807D01*
X962154Y-2427986D01*
X972568Y-2427986D01*
X979426Y-2431542D01*
X982728Y-2434844D01*
X986030Y-2445257D01*
X986030Y-2451862D01*
X982728Y-2462276D01*
X975870Y-2468879D01*
X965710Y-2472436D01*
X955550Y-2472436D01*
X945136Y-2468879D01*
X941834Y-2465578D01*
X938278Y-2458720D01*
X688594Y-2400807D02*
G01*
X688594Y-2472436D01*
X688594Y-2400807D02*
G01*
X719328Y-2400807D01*
X729487Y-2404110D01*
X732789Y-2407665D01*
X736345Y-2414523D01*
X736345Y-2421381D01*
X732789Y-2427986D01*
X729487Y-2431542D01*
X719328Y-2434844D01*
X688594Y-2434844D01*
X712470Y-2434844D02*
G01*
X736345Y-2472436D01*
X792987Y-2400807D02*
G01*
X758697Y-2448560D01*
X810005Y-2448560D01*
X792987Y-2400807D02*
G01*
X792987Y-2472436D01*
X2349500Y-724407D02*
G01*
X2349500Y-796036D01*
X2349500Y-724407D02*
G01*
X2380234Y-724407D01*
X2390393Y-727710D01*
X2393695Y-731265D01*
X2397252Y-738123D01*
X2397252Y-744981D01*
X2393695Y-751586D01*
X2390393Y-755142D01*
X2380234Y-758444D01*
X2349500Y-758444D01*
X2373375Y-758444D02*
G01*
X2397252Y-796036D01*
X2460752Y-724407D02*
G01*
X2426461Y-724407D01*
X2423159Y-755142D01*
X2426461Y-751586D01*
X2436875Y-748284D01*
X2447036Y-748284D01*
X2457195Y-751586D01*
X2464054Y-758444D01*
X2467356Y-768857D01*
X2467356Y-775462D01*
X2464054Y-785876D01*
X2457195Y-792479D01*
X2447036Y-796036D01*
X2436875Y-796036D01*
X2426461Y-792479D01*
X2423159Y-789178D01*
X2419604Y-782320D01*
X1916684Y-720344D02*
G01*
X1916684Y-791971D01*
X1916684Y-720344D02*
G01*
X1947163Y-720344D01*
X1957577Y-723900D01*
X1960879Y-727202D01*
X1964181Y-734060D01*
X1964181Y-740918D01*
X1960879Y-747776D01*
X1957577Y-751078D01*
X1947163Y-754634D01*
X1916684Y-754634D01*
X1940306Y-754634D02*
G01*
X1964181Y-791971D01*
X2027681Y-730757D02*
G01*
X2024379Y-723900D01*
X2013965Y-720344D01*
X2007361Y-720344D01*
X1996947Y-723900D01*
X1990090Y-734060D01*
X1986788Y-751078D01*
X1986788Y-768095D01*
X1990090Y-781812D01*
X1996947Y-788670D01*
X2007361Y-791971D01*
X2010663Y-791971D01*
X2020824Y-788670D01*
X2027681Y-781812D01*
X2030984Y-771652D01*
X2030984Y-768095D01*
X2027681Y-757936D01*
X2020824Y-751078D01*
X2010663Y-747776D01*
X2007361Y-747776D01*
X1996947Y-751078D01*
X1990090Y-757936D01*
X1986788Y-768095D01*
D11*
X2075441Y-1429758D02*
G01*
X2020300Y-1484899D01*
X2012937Y-1499445D01*
X2012937Y-1514172D01*
X2020481Y-1528902D01*
X2027844Y-1536265D01*
X2042393Y-1543629D01*
X2057120Y-1543629D01*
X2071669Y-1536265D01*
X2126808Y-1481127D01*
X2136327Y-1520101D02*
G01*
X2147463Y-1523692D01*
X2169553Y-1523872D01*
X2092502Y-1600923D01*
X68955Y-2538981D02*
G01*
X68955Y-2616959D01*
X74035Y-2632453D01*
X84452Y-2642867D01*
X100197Y-2647947D01*
X110611Y-2647947D01*
X126105Y-2642867D01*
X136519Y-2632453D01*
X141599Y-2616959D01*
X141599Y-2538981D01*
X248785Y-2554475D02*
G01*
X238373Y-2544061D01*
X222625Y-2538981D01*
X202051Y-2538981D01*
X186303Y-2544061D01*
X175887Y-2554475D01*
X175889Y-2564889D01*
X181223Y-2575303D01*
X186303Y-2580637D01*
X196717Y-2585717D01*
X227959Y-2596134D01*
X238373Y-2601213D01*
X243453Y-2606545D01*
X248787Y-2616959D01*
X248785Y-2632453D01*
X238373Y-2642867D01*
X222625Y-2647947D01*
X202054Y-2647947D01*
X186303Y-2642867D01*
X175887Y-2632453D01*
X283077Y-2538981D02*
G01*
X283077Y-2647947D01*
X283077Y-2538981D02*
G01*
X329813Y-2538981D01*
X345307Y-2544061D01*
X350641Y-2549395D01*
X355721Y-2559809D01*
X355721Y-2570223D01*
X350641Y-2580637D01*
X345307Y-2585717D01*
X329813Y-2590797D01*
X283077Y-2590797D02*
G01*
X329813Y-2590797D01*
X345305Y-2596131D01*
X350641Y-2601211D01*
X355721Y-2611625D01*
X355721Y-2627373D01*
X350641Y-2637787D01*
X345307Y-2642867D01*
X329813Y-2647947D01*
X283077Y-2647947D01*
X395345Y-2564889D02*
G01*
X395345Y-2559809D01*
X400425Y-2549395D01*
X405505Y-2544061D01*
X415919Y-2538981D01*
X436747Y-2538981D01*
X447161Y-2544061D01*
X452495Y-2549397D01*
X457575Y-2559809D01*
X457575Y-2570223D01*
X452495Y-2580637D01*
X442081Y-2596134D01*
X390011Y-2647947D01*
X462655Y-2647947D01*
X1370581Y-449958D02*
G01*
X1448559Y-449955D01*
X1464050Y-444875D01*
X1474467Y-434464D01*
X1479547Y-418716D01*
X1479544Y-408299D01*
X1474467Y-392808D01*
X1464053Y-382391D01*
X1448559Y-377311D01*
X1370581Y-377311D01*
X1386078Y-270123D02*
G01*
X1375661Y-280537D01*
X1370581Y-296283D01*
X1370581Y-316859D01*
X1375661Y-332607D01*
X1386075Y-343024D01*
X1396492Y-343021D01*
X1406903Y-337687D01*
X1412237Y-332605D01*
X1417317Y-322193D01*
X1427731Y-290951D01*
X1432808Y-280537D01*
X1438145Y-275457D01*
X1448559Y-270123D01*
X1464050Y-270123D01*
X1474467Y-280537D01*
X1479544Y-296285D01*
X1479547Y-316857D01*
X1474467Y-332607D01*
X1464053Y-343019D01*
X1370581Y-235833D02*
G01*
X1479550Y-235833D01*
X1370581Y-235833D02*
G01*
X1370581Y-189097D01*
X1375661Y-173601D01*
X1380992Y-168269D01*
X1391412Y-163189D01*
X1401823Y-163189D01*
X1412237Y-168267D01*
X1417317Y-173603D01*
X1422397Y-189097D01*
X1422397Y-235833D02*
G01*
X1422397Y-189097D01*
X1427731Y-173606D01*
X1432811Y-168269D01*
X1443225Y-163189D01*
X1458973Y-163189D01*
X1469387Y-168269D01*
X1474470Y-173603D01*
X1479547Y-189095D01*
X1479550Y-235833D01*
X1370581Y-118485D02*
G01*
X1370581Y-61335D01*
X1412237Y-92580D01*
X1412237Y-76829D01*
X1417317Y-66418D01*
X1422397Y-61338D01*
X1438142Y-56258D01*
X1448559Y-56255D01*
X1464053Y-61335D01*
X1474470Y-71749D01*
X1479544Y-87243D01*
X1479547Y-102991D01*
X1474467Y-118485D01*
X1469389Y-123565D01*
X1458976Y-128899D01*
X2959097Y-1040384D02*
G01*
X2959094Y-1118362D01*
X2964174Y-1133855D01*
X2974588Y-1144270D01*
X2990336Y-1149350D01*
X3000753Y-1149350D01*
X3016242Y-1144270D01*
X3026658Y-1133855D01*
X3031738Y-1118362D01*
X3031736Y-1040384D01*
X3138926Y-1055880D02*
G01*
X3128512Y-1045463D01*
X3112764Y-1040384D01*
X3092190Y-1040384D01*
X3076442Y-1045463D01*
X3066031Y-1055878D01*
X3066028Y-1066292D01*
X3071365Y-1076708D01*
X3076442Y-1082037D01*
X3086856Y-1087120D01*
X3118096Y-1097534D01*
X3128512Y-1102613D01*
X3133592Y-1107947D01*
X3138926Y-1118359D01*
X3138929Y-1133858D01*
X3128512Y-1144270D01*
X3112764Y-1149350D01*
X3092193Y-1149347D01*
X3076445Y-1144270D01*
X3066028Y-1133855D01*
X3173216Y-1040384D02*
G01*
X3173216Y-1149350D01*
X3173216Y-1040384D02*
G01*
X3219952Y-1040384D01*
X3235446Y-1045463D01*
X3240778Y-1050797D01*
X3245860Y-1061209D01*
X3245860Y-1071628D01*
X3240780Y-1082037D01*
X3235446Y-1087120D01*
X3219952Y-1092200D01*
X3173216Y-1092200D02*
G01*
X3219952Y-1092200D01*
X3235446Y-1097534D01*
X3240778Y-1102611D01*
X3245860Y-1113025D01*
X3245863Y-1128776D01*
X3240783Y-1139189D01*
X3235446Y-1144270D01*
X3219952Y-1149350D01*
X3173216Y-1149350D01*
X3332220Y-1040381D02*
G01*
X3280150Y-1113028D01*
X3358128Y-1113030D01*
X3332220Y-1040381D02*
G01*
X3332220Y-1149350D01*
X373641Y-1124960D02*
G01*
X318500Y-1180099D01*
X311142Y-1194645D01*
X311142Y-1209372D01*
X318681Y-1224102D01*
X326049Y-1231465D01*
X340598Y-1238826D01*
X355320Y-1238829D01*
X369872Y-1231468D01*
X425010Y-1176324D01*
X489849Y-1263075D02*
G01*
X489854Y-1248346D01*
X482307Y-1233619D01*
X467756Y-1219072D01*
X453029Y-1211529D01*
X438299Y-1211526D01*
X430936Y-1218895D01*
X427342Y-1230028D01*
X427172Y-1237394D01*
X430936Y-1248349D01*
X445663Y-1277800D01*
X449437Y-1288755D01*
X449259Y-1296121D01*
X445668Y-1307259D01*
X434710Y-1318214D01*
X419986Y-1318214D01*
X405251Y-1310667D01*
X390707Y-1296123D01*
X383164Y-1281391D01*
X383164Y-1266667D01*
X525053Y-1276367D02*
G01*
X448000Y-1353416D01*
X525053Y-1276367D02*
G01*
X558098Y-1309413D01*
X565464Y-1323962D01*
X565464Y-1331503D01*
X561687Y-1342461D01*
X554327Y-1349824D01*
X543369Y-1353593D01*
X536008Y-1353416D01*
X521462Y-1346050D01*
X488411Y-1313004D02*
G01*
X521462Y-1346050D01*
X528642Y-1360779D01*
X528822Y-1368140D01*
X525048Y-1379103D01*
X513915Y-1390235D01*
X502960Y-1394007D01*
X495592Y-1393827D01*
X481050Y-1386466D01*
X448000Y-1353416D01*
X585934Y-1366707D02*
G01*
X597075Y-1370296D01*
X618980Y-1370299D01*
X541936Y-1447352D01*
D13*
X2501900Y-3361275D02*
G01*
X2501900Y-2793649D01*
X2270612Y-2793649D01*
X1181097Y-3714617D02*
G01*
X1181102Y-3796949D01*
X2501897Y-3796949D01*
X2501900Y-3714620D01*
X1412387Y-2793652D02*
G01*
X1181100Y-2793652D01*
X1181102Y-3361273D01*
X2020613Y-2793652D02*
G01*
X2112385Y-2793652D01*
X1820616Y-2793652D02*
G01*
X1862386Y-2793652D01*
X1570611Y-2793652D02*
G01*
X1662386Y-2793652D01*
X2099307Y-3385492D02*
G01*
X2302309Y-3385492D01*
X2085312Y-3264476D02*
G01*
X2311326Y-3264479D01*
X1411198Y-3375583D02*
G01*
X1614192Y-3375583D01*
X1397205Y-3254585D02*
G01*
X1623214Y-3254585D01*
X1692020Y-3028058D02*
G01*
X1656463Y-3602113D01*
X1366898Y-3602111D01*
X1318640Y-3028058D01*
X1369438Y-3028058D01*
X1419961Y-3541575D01*
X1594990Y-3541575D01*
X1653920Y-3028058D01*
X1692020Y-3028058D01*
X2374900Y-3034952D02*
G01*
X2340096Y-3608611D01*
X2051575Y-3608115D01*
X2002078Y-3034611D01*
X2052952Y-3035002D01*
X2103983Y-3489030D01*
X2111499Y-3556850D01*
X2286482Y-3555771D01*
X2333879Y-3077951D01*
X2336871Y-3034952D01*
X2374900Y-3034952D01*
X920615Y-1503560D02*
G01*
X864047Y-1446994D01*
X960211Y-1543225D02*
G01*
X1016774Y-1599788D01*
X1020998Y-1403177D02*
G01*
X964430Y-1346606D01*
X1060594Y-1442839D02*
G01*
X1117163Y-1499405D01*
X864052Y-1403184D02*
G01*
X920622Y-1346611D01*
X1117158Y-1543220D02*
G01*
X1060587Y-1599791D01*
X866218Y-1668942D02*
G01*
X946216Y-1668942D01*
X810173Y-1668896D02*
G01*
X730176Y-1668896D01*
X866218Y-1810910D02*
G01*
X946216Y-1810910D01*
X810173Y-1810862D02*
G01*
X730176Y-1810862D01*
X977191Y-1699925D02*
G01*
X977191Y-1779930D01*
X699198Y-1779877D02*
G01*
X699198Y-1699874D01*
X1711881Y-985357D02*
G01*
X1631883Y-985357D01*
X1767926Y-985403D02*
G01*
X1847923Y-985403D01*
X1711878Y-843389D02*
G01*
X1631883Y-843389D01*
X1767926Y-843437D02*
G01*
X1847923Y-843437D01*
X1600908Y-954374D02*
G01*
X1600906Y-874369D01*
X1878901Y-874422D02*
G01*
X1878901Y-954425D01*
X1239636Y-1631812D02*
G01*
X1296205Y-1575247D01*
X1199974Y-1671411D02*
G01*
X1143408Y-1727977D01*
X1340025Y-1732198D02*
G01*
X1396591Y-1675632D01*
X1300360Y-1771794D02*
G01*
X1243794Y-1828363D01*
X1340015Y-1575252D02*
G01*
X1396588Y-1631822D01*
X1199979Y-1828358D02*
G01*
X1143408Y-1771787D01*
X1366636Y-1758812D02*
G01*
X1423205Y-1702247D01*
X1326974Y-1798411D02*
G01*
X1270408Y-1854977D01*
X1467025Y-1859198D02*
G01*
X1523591Y-1802632D01*
X1427360Y-1898794D02*
G01*
X1370794Y-1955363D01*
X1467015Y-1702252D02*
G01*
X1523588Y-1758822D01*
X1326979Y-1955358D02*
G01*
X1270408Y-1898787D01*
X1681363Y-2152787D02*
G01*
X1624794Y-2209352D01*
X1721025Y-2113188D02*
G01*
X1777591Y-2056622D01*
X1580974Y-2052401D02*
G01*
X1524408Y-2108967D01*
X1620639Y-2012805D02*
G01*
X1677205Y-1956236D01*
X1580984Y-2209347D02*
G01*
X1524411Y-2152777D01*
X1721020Y-1956241D02*
G01*
X1777591Y-2012812D01*
X1808363Y-2279787D02*
G01*
X1751794Y-2336352D01*
X1848025Y-2240188D02*
G01*
X1904591Y-2183622D01*
X1707974Y-2179401D02*
G01*
X1651408Y-2235967D01*
X1747639Y-2139805D02*
G01*
X1804205Y-2083236D01*
X1707984Y-2336347D02*
G01*
X1651411Y-2279777D01*
X1848020Y-2083241D02*
G01*
X1904591Y-2139812D01*
X2367163Y-2394087D02*
G01*
X2310594Y-2450652D01*
X2406825Y-2354488D02*
G01*
X2463391Y-2297922D01*
X2266774Y-2293701D02*
G01*
X2210208Y-2350267D01*
X2306439Y-2254105D02*
G01*
X2363005Y-2197536D01*
X2266784Y-2450647D02*
G01*
X2210211Y-2394077D01*
X2406820Y-2197541D02*
G01*
X2463391Y-2254112D01*
X2240163Y-2267087D02*
G01*
X2183594Y-2323652D01*
X2279825Y-2227488D02*
G01*
X2336391Y-2170922D01*
X2139774Y-2166701D02*
G01*
X2083208Y-2223267D01*
X2179439Y-2127105D02*
G01*
X2236005Y-2070536D01*
X2139784Y-2323647D02*
G01*
X2083211Y-2267077D01*
X2279820Y-2070541D02*
G01*
X2336391Y-2127112D01*
X2492217Y-2644223D02*
G01*
X2492217Y-2724221D01*
X2492263Y-2588178D02*
G01*
X2492263Y-2508181D01*
X2350249Y-2644223D02*
G01*
X2350249Y-2724221D01*
X2350297Y-2588178D02*
G01*
X2350297Y-2508181D01*
X2461234Y-2755196D02*
G01*
X2381229Y-2755196D01*
X2381283Y-2477203D02*
G01*
X2461285Y-2477203D01*
X1222027Y-2588181D02*
G01*
X1222027Y-2508183D01*
X1221981Y-2644226D02*
G01*
X1221981Y-2724223D01*
X1363995Y-2588181D02*
G01*
X1363995Y-2508183D01*
X1363946Y-2644226D02*
G01*
X1363946Y-2724223D01*
X1253009Y-2477208D02*
G01*
X1333014Y-2477208D01*
X1332961Y-2755201D02*
G01*
X1252959Y-2755201D01*
D11*
X1375470Y-1028052D02*
G01*
X1307670Y-960246D01*
X1214246Y-1053670D01*
X1282052Y-1121476D01*
X1435747Y-1088329D02*
G01*
X1503553Y-1156129D01*
X1410131Y-1249553D01*
X1342329Y-1181747D01*
X1134170Y-1269352D02*
G01*
X1066368Y-1201546D01*
X972946Y-1294970D01*
X1040749Y-1362773D01*
X1194450Y-1329626D02*
G01*
X1262253Y-1397429D01*
X1168831Y-1490853D01*
X1101029Y-1423047D01*
X861039Y-2277821D02*
G01*
X861039Y-2373708D01*
X993160Y-2373708D01*
X993160Y-2277821D01*
X861039Y-2192578D02*
G01*
X861039Y-2096691D01*
X993160Y-2096691D01*
X993160Y-2192578D01*
X683239Y-2277821D02*
G01*
X683239Y-2373708D01*
X815360Y-2373708D01*
X815360Y-2277821D01*
X683239Y-2192578D02*
G01*
X683239Y-2096691D01*
X815360Y-2096691D01*
X815360Y-2192578D01*
X2301260Y-770178D02*
G01*
X2301260Y-674291D01*
X2169139Y-674291D01*
X2169139Y-770178D01*
X2301260Y-855421D02*
G01*
X2301260Y-951308D01*
X2169139Y-951308D01*
X2169139Y-855421D01*
X1697278Y-674291D02*
G01*
X1601391Y-674291D01*
X1601391Y-806411D01*
X1697278Y-806411D01*
X1782521Y-674291D02*
G01*
X1878408Y-674291D01*
X1878408Y-806411D01*
X1782521Y-806411D01*
D13*
X1946775Y-1488876D02*
G01*
X2003343Y-1545445D01*
X2130623Y-1672724D02*
G01*
X2074054Y-1616156D01*
X1628576Y-1807075D02*
G01*
X1631327Y-1804327D01*
X1946775Y-1488876D02*
G01*
X1944027Y-1491625D01*
X1815172Y-1988172D02*
G01*
X1812424Y-1990923D01*
X2130623Y-1672724D02*
G01*
X2127872Y-1675472D01*
X1812424Y-1990923D02*
G01*
X1628576Y-1807075D01*
X228605Y-2463807D02*
G01*
X428000Y-2463807D01*
X-114297Y-2463810D02*
G01*
X32999Y-2463807D01*
X228917Y-1556608D02*
G01*
X427690Y-1556608D01*
X-129197Y-1556608D02*
G01*
X32687Y-1556608D01*
X-129197Y-2456606D02*
G01*
X-129197Y-1556608D01*
X1562092Y-215905D02*
G01*
X1562092Y-415300D01*
X1562092Y127000D02*
G01*
X1562092Y-20299D01*
X2469291Y-216214D02*
G01*
X2469291Y-414992D01*
X2469291Y141897D02*
G01*
X2469291Y-19987D01*
X1569293Y141897D02*
G01*
X2469291Y141897D01*
X3361623Y-1193802D02*
G01*
X2794000Y-1193800D01*
X2794000Y-1425087D01*
X3714968Y-2514600D02*
G01*
X3797300Y-2514600D01*
X3797300Y-1193802D01*
X3714968Y-1193797D01*
X2794005Y-2283312D02*
G01*
X2794002Y-2514597D01*
X3361623Y-2514600D01*
X2794002Y-1675084D02*
G01*
X2794002Y-1583314D01*
X2794000Y-1875086D02*
G01*
X2794002Y-1833313D01*
X2794002Y-2125085D02*
G01*
X2794002Y-2033310D01*
X3385842Y-1596392D02*
G01*
X3385842Y-1393390D01*
X3264827Y-1610390D02*
G01*
X3264827Y-1384373D01*
X3375934Y-2284498D02*
G01*
X3375934Y-2081507D01*
X3254936Y-2298496D02*
G01*
X3254938Y-2072485D01*
X3028408Y-2003681D02*
G01*
X3602461Y-2039236D01*
X3602461Y-2328801D01*
X3028408Y-2377059D01*
X3028408Y-2326259D01*
X3541923Y-2275738D01*
X3541925Y-2100709D01*
X3028408Y-2041779D01*
X3028408Y-2003681D01*
X3035302Y-1320800D02*
G01*
X3608961Y-1355600D01*
X3608468Y-1644124D01*
X3034962Y-1693621D01*
X3035353Y-1642747D01*
X3489378Y-1591713D01*
X3557203Y-1584200D01*
X3556121Y-1409217D01*
X3078302Y-1361818D01*
X3035302Y-1358826D01*
X3035302Y-1320800D01*
X466925Y-1126210D02*
G01*
X607918Y-1267208D01*
X224454Y-883747D02*
G01*
X328615Y-987899D01*
X1108631Y-484952D02*
G01*
X1249187Y-625502D01*
X855411Y-231726D02*
G01*
X969881Y-346194D01*
X219014Y-868118D02*
G01*
X855411Y-231726D01*
G75*
G01*
X1117161Y-1499405D02*
G02*
X1117158Y-1543220I-21911J-21906D01*
G75*
G01*
X1060590Y-1599789D02*
G02*
X1016772Y-1599786I-21908J21909D01*
G75*
G01*
X864050Y-1447000D02*
G02*
X864052Y-1403185I21910J21906D01*
G75*
G01*
X920618Y-1346619D02*
G02*
X964435Y-1346611I21912J-21904D01*
G75*
G01*
X730181Y-1810863D02*
G02*
X699199Y-1779877I0J30983D01*
G75*
G01*
X699199Y-1699880D02*
G02*
X730181Y-1668897I30982J0D01*
G75*
G01*
X946211Y-1668943D02*
G02*
X977191Y-1699925I-3J-30982D01*
G75*
G01*
X977191Y-1779923D02*
G02*
X946211Y-1810911I-30983J-5D01*
G75*
G01*
X1847919Y-843437D02*
G02*
X1878901Y-874423I0J-30983D01*
G75*
G01*
X1878901Y-954420D02*
G02*
X1847921Y-985403I-30982J0D01*
G75*
G01*
X1631889Y-985357D02*
G02*
X1600909Y-954375I3J30982D01*
G75*
G01*
X1600909Y-874380D02*
G02*
X1631889Y-843387I30983J10D01*
G75*
G01*
X1243797Y-1828358D02*
G02*
X1199980Y-1828358I-21908J21908D01*
G75*
G01*
X1143411Y-1771790D02*
G02*
X1143411Y-1727975I21909J21908D01*
G75*
G01*
X1296200Y-1575250D02*
G02*
X1340015Y-1575252I21906J-21910D01*
G75*
G01*
X1396581Y-1631818D02*
G02*
X1396589Y-1675638I-21903J-21914D01*
G75*
G01*
X1370797Y-1955358D02*
G02*
X1326980Y-1955358I-21908J21908D01*
G75*
G01*
X1270411Y-1898790D02*
G02*
X1270411Y-1854975I21909J21908D01*
G75*
G01*
X1423200Y-1702250D02*
G02*
X1467015Y-1702252I21906J-21910D01*
G75*
G01*
X1523581Y-1758818D02*
G02*
X1523589Y-1802638I-21903J-21914D01*
G75*
G01*
X1677203Y-1956242D02*
G02*
X1721020Y-1956242I21908J-21908D01*
G75*
G01*
X1777589Y-2012810D02*
G02*
X1777589Y-2056625I-21909J-21908D01*
G75*
G01*
X1624800Y-2209350D02*
G02*
X1580985Y-2209348I-21906J21910D01*
G75*
G01*
X1524419Y-2152782D02*
G02*
X1524411Y-2108962I21903J21914D01*
G75*
G01*
X1804203Y-2083242D02*
G02*
X1848020Y-2083242I21908J-21908D01*
G75*
G01*
X1904589Y-2139810D02*
G02*
X1904589Y-2183625I-21909J-21908D01*
G75*
G01*
X1751800Y-2336350D02*
G02*
X1707985Y-2336348I-21906J21910D01*
G75*
G01*
X1651419Y-2279782D02*
G02*
X1651411Y-2235962I21903J21914D01*
G75*
G01*
X2363003Y-2197542D02*
G02*
X2406820Y-2197542I21908J-21908D01*
G75*
G01*
X2463389Y-2254110D02*
G02*
X2463389Y-2297925I-21909J-21908D01*
G75*
G01*
X2310600Y-2450650D02*
G02*
X2266785Y-2450648I-21906J21910D01*
G75*
G01*
X2210219Y-2394082D02*
G02*
X2210211Y-2350262I21903J21914D01*
G75*
G01*
X2236003Y-2070542D02*
G02*
X2279820Y-2070542I21908J-21908D01*
G75*
G01*
X2336389Y-2127110D02*
G02*
X2336389Y-2170925I-21909J-21908D01*
G75*
G01*
X2183600Y-2323650D02*
G02*
X2139785Y-2323648I-21906J21910D01*
G75*
G01*
X2083219Y-2267082D02*
G02*
X2083211Y-2223262I21903J21914D01*
G75*
G01*
X2350298Y-2508186D02*
G02*
X2381283Y-2477204I30982J0D01*
G75*
G01*
X2461280Y-2477204D02*
G02*
X2492263Y-2508186I0J-30982D01*
G75*
G01*
X2492218Y-2724216D02*
G02*
X2461235Y-2755196I-30983J3D01*
G75*
G01*
X2381237Y-2755196D02*
G02*
X2350249Y-2724216I-5J30982D01*
G75*
G01*
X1363947Y-2724219D02*
G02*
X1332962Y-2755201I-30983J0D01*
G75*
G01*
X1252964Y-2755201D02*
G02*
X1221981Y-2724219I0J30982D01*
G75*
G01*
X1222027Y-2508189D02*
G02*
X1253010Y-2477209I30983J-3D01*
G75*
G01*
X1333007Y-2477209D02*
G02*
X1363995Y-2508189I5J-30983D01*
G75*
G01*
X2003344Y-1545445D02*
G03*
X2074113Y-1616151I35617J-35120D01*
G75*
G01
X1924660Y-1444320D02*
G03X1924660Y-1444320I-12522J0D01*
M02*
